<?xml version="1.0" encoding="UTF-8" standalone="no"?>
<!DOCTYPE svg PUBLIC "-//W3C//DTD SVG 1.1//EN" "http://www.w3.org/Graphics/SVG/1.1/DTD/svg11.dtd">
<svg width="100%" height="100%" viewBox="0 0 30 7" version="1.1" xmlns="http://www.w3.org/2000/svg" xmlns:xlink="http://www.w3.org/1999/xlink" xml:space="preserve" xmlns:serif="http://www.serif.com/" style="fill-rule:evenodd;clip-rule:evenodd;stroke-linejoin:round;stroke-miterlimit:2;">
    <g transform="matrix(1,0,0,1,-454.817,-377.995)">
        <path d="M484.297,384.172L454.817,384.172L454.817,377.995L484.297,377.995L484.297,384.172ZM475.604,382.053L475.604,380.75C475.604,380.74 475.601,380.731 475.595,380.724C475.589,380.717 475.579,380.71 475.565,380.705C475.551,380.7 475.532,380.695 475.509,380.693C475.485,380.69 475.456,380.688 475.419,380.688C475.383,380.688 475.354,380.69 475.33,380.693C475.307,380.695 475.288,380.7 475.274,380.705C475.26,380.71 475.25,380.717 475.244,380.724C475.238,380.731 475.235,380.74 475.235,380.75L475.235,382.053C475.235,382.063 475.238,382.072 475.244,382.079C475.25,382.086 475.26,382.092 475.274,382.097C475.288,382.102 475.307,382.106 475.33,382.108C475.354,382.111 475.383,382.112 475.419,382.112C475.456,382.112 475.485,382.111 475.509,382.108C475.532,382.106 475.551,382.102 475.565,382.097C475.579,382.092 475.589,382.086 475.595,382.079C475.601,382.072 475.604,382.063 475.604,382.053ZM474.12,380.366C474.12,380.337 474.119,380.312 474.116,380.291C474.114,380.271 474.11,380.254 474.105,380.242C474.101,380.23 474.095,380.221 474.087,380.216C474.08,380.21 474.072,380.208 474.063,380.208L472.727,380.208C472.717,380.208 472.709,380.21 472.702,380.216C472.695,380.221 472.689,380.23 472.685,380.242C472.68,380.254 472.676,380.271 472.674,380.291C472.671,380.312 472.67,380.337 472.67,380.366C472.67,380.394 472.671,380.418 472.674,380.438C472.676,380.458 472.68,380.475 472.685,380.487C472.689,380.499 472.695,380.508 472.702,380.514C472.709,380.52 472.717,380.523 472.727,380.523L473.202,380.523L473.202,382.05C473.202,382.06 473.205,382.069 473.211,382.077C473.218,382.085 473.228,382.091 473.243,382.096C473.257,382.101 473.277,382.105 473.302,382.108C473.327,382.111 473.358,382.112 473.395,382.112C473.432,382.112 473.463,382.111 473.488,382.108C473.513,382.105 473.533,382.101 473.547,382.096C473.562,382.091 473.573,382.085 473.579,382.077C473.585,382.069 473.588,382.06 473.588,382.05L473.588,380.523L474.063,380.523C474.072,380.523 474.08,380.52 474.087,380.514C474.095,380.508 474.101,380.499 474.105,380.487C474.11,380.475 474.114,380.458 474.116,380.438C474.119,380.418 474.12,380.394 474.12,380.366ZM475.008,380.868C475.008,380.833 475.007,380.805 475.006,380.785C475.005,380.764 475.004,380.749 475.002,380.739C475,380.728 474.998,380.72 474.995,380.715C474.993,380.709 474.989,380.703 474.984,380.698C474.978,380.694 474.97,380.689 474.958,380.684C474.946,380.68 474.933,380.676 474.917,380.673C474.901,380.669 474.886,380.667 474.872,380.665C474.857,380.664 474.843,380.663 474.831,380.663C474.803,380.663 474.776,380.667 474.749,380.674C474.721,380.682 474.694,380.694 474.667,380.713C474.639,380.732 474.61,380.757 474.58,380.788C474.55,380.82 474.518,380.861 474.483,380.909L474.483,380.747C474.483,380.737 474.481,380.728 474.476,380.721C474.471,380.714 474.463,380.708 474.452,380.703C474.441,380.698 474.425,380.694 474.404,380.692C474.384,380.689 474.358,380.688 474.327,380.688C474.296,380.688 474.271,380.689 474.251,380.692C474.231,380.694 474.215,380.698 474.202,380.703C474.189,380.708 474.181,380.714 474.176,380.721C474.171,380.728 474.168,380.737 474.168,380.747L474.168,382.053C474.168,382.063 474.171,382.072 474.177,382.079C474.183,382.086 474.193,382.092 474.207,382.097C474.221,382.102 474.24,382.106 474.264,382.108C474.287,382.111 474.317,382.112 474.353,382.112C474.389,382.112 474.419,382.111 474.442,382.108C474.466,382.106 474.485,382.102 474.499,382.097C474.513,382.092 474.523,382.086 474.529,382.079C474.535,382.072 474.538,382.063 474.538,382.053L474.538,381.239C474.565,381.196 474.591,381.16 474.615,381.131C474.638,381.101 474.661,381.078 474.683,381.06C474.705,381.043 474.727,381.03 474.747,381.021C474.768,381.013 474.788,381.009 474.809,381.009C474.826,381.009 474.842,381.011 474.857,381.014C474.872,381.017 474.885,381.021 474.897,381.025C474.909,381.029 474.92,381.033 474.93,381.036C474.94,381.039 474.949,381.041 474.957,381.041C474.966,381.041 474.974,381.039 474.981,381.034C474.987,381.029 474.992,381.02 474.996,381.007C475,380.995 475.003,380.977 475.005,380.955C475.007,380.932 475.008,380.903 475.008,380.868ZM462.978,381.968L462.978,380.265C462.978,380.255 462.976,380.246 462.971,380.238C462.966,380.231 462.958,380.224 462.945,380.218C462.933,380.212 462.916,380.208 462.893,380.205C462.871,380.203 462.843,380.202 462.81,380.202C462.775,380.202 462.746,380.203 462.723,380.205C462.701,380.208 462.683,380.212 462.669,380.218C462.656,380.224 462.646,380.231 462.64,380.238C462.634,380.246 462.631,380.255 462.631,380.265L462.631,381.154C462.631,381.221 462.632,381.292 462.633,381.366C462.635,381.441 462.636,381.512 462.639,381.58C462.622,381.541 462.603,381.502 462.584,381.463C462.566,381.424 462.547,381.384 462.527,381.344C462.508,381.303 462.487,381.263 462.466,381.222C462.445,381.182 462.424,381.14 462.403,381.098L462.034,380.405C462.015,380.367 461.997,380.335 461.979,380.309C461.962,380.284 461.943,380.263 461.923,380.249C461.903,380.234 461.88,380.224 461.855,380.217C461.829,380.211 461.798,380.208 461.761,380.208L461.555,380.208C461.515,380.208 461.482,380.219 461.456,380.242C461.429,380.265 461.415,380.299 461.415,380.345L461.415,382.049C461.415,382.059 461.418,382.068 461.423,382.075C461.428,382.083 461.436,382.09 461.449,382.095C461.462,382.1 461.479,382.105 461.502,382.108C461.524,382.111 461.553,382.112 461.587,382.112C461.622,382.112 461.651,382.111 461.673,382.108C461.696,382.105 461.713,382.1 461.727,382.095C461.74,382.09 461.749,382.083 461.754,382.075C461.76,382.068 461.763,382.059 461.763,382.049L461.763,381.057C461.763,380.983 461.762,380.911 461.76,380.841C461.758,380.771 461.755,380.701 461.751,380.631L461.754,380.631C461.776,380.689 461.802,380.748 461.83,380.809C461.858,380.87 461.886,380.927 461.913,380.98L462.385,381.866C462.409,381.915 462.431,381.955 462.451,381.985C462.471,382.016 462.491,382.04 462.512,382.059C462.533,382.077 462.556,382.089 462.581,382.096C462.606,382.103 462.635,382.106 462.669,382.106L462.833,382.106C462.852,382.106 462.87,382.103 462.888,382.098C462.906,382.093 462.922,382.084 462.935,382.072C462.948,382.061 462.959,382.046 462.967,382.028C462.974,382.011 462.978,381.991 462.978,381.968ZM478.597,380.838C478.597,380.787 478.592,380.751 478.581,380.729C478.571,380.708 478.558,380.697 478.541,380.697L478.126,380.697C478.094,380.688 478.059,380.681 478.022,380.676C477.984,380.672 477.945,380.669 477.904,380.669C477.824,380.669 477.751,380.68 477.684,380.702C477.618,380.724 477.561,380.756 477.513,380.797C477.465,380.839 477.428,380.89 477.401,380.95C477.374,381.01 477.36,381.078 477.36,381.154C477.36,381.225 477.371,381.285 477.391,381.333C477.412,381.381 477.439,381.422 477.473,381.456C477.431,381.494 477.397,381.537 477.371,381.584C477.344,381.631 477.331,381.684 477.331,381.741C477.331,381.787 477.343,381.83 477.366,381.868C477.388,381.907 477.421,381.937 477.463,381.96C477.433,381.982 477.406,382.006 477.382,382.03C477.359,382.054 477.339,382.08 477.323,382.107C477.307,382.134 477.295,382.162 477.286,382.191C477.278,382.22 477.274,382.251 477.274,382.283C477.274,382.335 477.285,382.383 477.308,382.426C477.331,382.47 477.368,382.507 477.418,382.538C477.469,382.569 477.533,382.594 477.612,382.611C477.69,382.629 477.785,382.638 477.897,382.638C478.011,382.638 478.111,382.626 478.196,382.601C478.282,382.577 478.353,382.544 478.409,382.502C478.466,382.46 478.508,382.41 478.537,382.353C478.565,382.296 478.579,382.235 478.579,382.171C478.579,382.112 478.569,382.06 478.548,382.014C478.527,381.968 478.496,381.929 478.457,381.896C478.417,381.863 478.368,381.838 478.31,381.82C478.252,381.802 478.186,381.791 478.112,381.788L477.794,381.777C477.749,381.775 477.714,381.765 477.689,381.746C477.664,381.728 477.652,381.705 477.652,381.677C477.652,381.655 477.657,381.636 477.666,381.618C477.675,381.601 477.686,381.586 477.697,381.573C477.718,381.587 477.747,381.599 477.785,381.609C477.823,381.619 477.863,381.624 477.905,381.624C477.987,381.624 478.062,381.614 478.129,381.593C478.196,381.572 478.253,381.541 478.3,381.5C478.347,381.46 478.384,381.41 478.409,381.351C478.435,381.292 478.447,381.224 478.447,381.148C478.447,381.116 478.443,381.085 478.433,381.055C478.424,381.025 478.409,380.999 478.387,380.975L478.541,380.975C478.557,380.975 478.57,380.964 478.581,380.942C478.591,380.919 478.597,380.884 478.597,380.838ZM478.21,382.19C478.21,382.215 478.205,382.239 478.195,382.262C478.186,382.285 478.169,382.306 478.146,382.324C478.122,382.343 478.091,382.358 478.053,382.369C478.015,382.38 477.968,382.386 477.913,382.386C477.823,382.386 477.753,382.373 477.704,382.348C477.655,382.322 477.63,382.285 477.63,382.236C477.63,382.221 477.631,382.206 477.634,382.191C477.637,382.176 477.643,382.161 477.653,382.146C477.662,382.13 477.674,382.114 477.689,382.097C477.704,382.08 477.725,382.062 477.75,382.043L478.012,382.05C478.074,382.052 478.122,382.065 478.157,382.089C478.192,382.112 478.21,382.146 478.21,382.19ZM478.124,381.147C478.124,381.176 478.119,381.204 478.11,381.231C478.1,381.258 478.087,381.281 478.069,381.302C478.051,381.322 478.028,381.339 478.001,381.35C477.973,381.362 477.941,381.368 477.904,381.368C477.835,381.368 477.78,381.349 477.741,381.31C477.702,381.271 477.683,381.219 477.683,381.153C477.683,381.122 477.687,381.093 477.696,381.065C477.705,381.038 477.718,381.013 477.736,380.992C477.754,380.971 477.777,380.955 477.804,380.942C477.832,380.93 477.863,380.924 477.899,380.924C477.971,380.924 478.026,380.944 478.065,380.983C478.104,381.022 478.124,381.076 478.124,381.147ZM480.016,381.362L480.016,381.303C480.016,381.212 480.004,381.127 479.981,381.048C479.958,380.97 479.921,380.903 479.871,380.846C479.821,380.788 479.758,380.744 479.68,380.712C479.602,380.679 479.509,380.663 479.399,380.663C479.296,380.663 479.203,380.68 479.12,380.715C479.038,380.749 478.968,380.798 478.91,380.863C478.853,380.928 478.809,381.007 478.778,381.1C478.748,381.194 478.733,381.298 478.733,381.415C478.733,381.537 478.747,381.643 478.776,381.734C478.805,381.825 478.849,381.9 478.907,381.96C478.966,382.019 479.039,382.064 479.126,382.093C479.214,382.122 479.315,382.137 479.432,382.137C479.496,382.137 479.557,382.133 479.613,382.124C479.67,382.116 479.72,382.106 479.764,382.095C479.808,382.084 479.844,382.072 479.873,382.061C479.901,382.049 479.918,382.04 479.925,382.033C479.931,382.026 479.936,382.019 479.94,382.012C479.944,382.004 479.947,381.995 479.949,381.985C479.951,381.974 479.952,381.961 479.953,381.946C479.954,381.931 479.955,381.912 479.955,381.891C479.955,381.866 479.954,381.846 479.952,381.83C479.951,381.814 479.948,381.801 479.944,381.793C479.94,381.784 479.936,381.778 479.93,381.774C479.924,381.771 479.917,381.769 479.908,381.769C479.893,381.769 479.874,381.774 479.851,381.783C479.827,381.792 479.798,381.803 479.762,381.814C479.726,381.825 479.684,381.835 479.635,381.845C479.586,381.854 479.53,381.859 479.465,381.859C479.402,381.859 479.347,381.85 479.302,381.834C479.257,381.817 479.22,381.793 479.191,381.761C479.162,381.729 479.141,381.691 479.128,381.645C479.115,381.6 479.108,381.549 479.108,381.494L479.903,381.494C479.939,381.494 479.966,381.483 479.986,381.462C480.006,381.44 480.016,381.407 480.016,381.362ZM479.659,381.257L479.108,381.257C479.11,381.211 479.117,381.167 479.129,381.127C479.141,381.086 479.159,381.051 479.182,381.021C479.205,380.992 479.234,380.968 479.268,380.95C479.303,380.933 479.344,380.924 479.391,380.924C479.483,380.924 479.552,380.954 479.596,381.013C479.641,381.072 479.662,381.153 479.659,381.257ZM464.966,381.128C464.966,380.977 464.945,380.845 464.903,380.731C464.861,380.616 464.8,380.52 464.719,380.443C464.639,380.365 464.54,380.307 464.422,380.267C464.304,380.227 464.161,380.208 463.992,380.208L463.506,380.208C463.473,380.208 463.446,380.217 463.424,380.236C463.402,380.255 463.391,380.286 463.391,380.329L463.391,381.982C463.391,382.025 463.402,382.056 463.424,382.075C463.446,382.094 463.473,382.103 463.506,382.103L463.958,382.103C464.126,382.103 464.271,382.085 464.393,382.048C464.514,382.012 464.618,381.954 464.702,381.876C464.787,381.798 464.853,381.697 464.898,381.574C464.943,381.45 464.966,381.301 464.966,381.128ZM464.568,381.141C464.568,381.25 464.556,381.346 464.532,381.428C464.508,381.51 464.472,381.579 464.423,381.634C464.375,381.689 464.315,381.73 464.243,381.757C464.17,381.785 464.081,381.798 463.976,381.798L463.775,381.798L463.775,380.509L463.97,380.509C464.088,380.509 464.184,380.525 464.256,380.557C464.329,380.589 464.389,380.633 464.435,380.69C464.482,380.746 464.515,380.813 464.536,380.89C464.557,380.967 464.568,381.051 464.568,381.141ZM469.723,383.41L469.723,378.757C469.723,378.665 469.649,378.59 469.557,378.59C469.465,378.59 469.39,378.665 469.39,378.757L469.39,383.41C469.39,383.502 469.465,383.577 469.557,383.577C469.649,383.577 469.723,383.502 469.723,383.41ZM475.632,380.304C475.632,380.233 475.617,380.184 475.588,380.156C475.559,380.128 475.503,380.114 475.421,380.114C475.338,380.114 475.282,380.128 475.252,380.157C475.222,380.186 475.207,380.237 475.207,380.312C475.207,380.383 475.221,380.432 475.25,380.46C475.279,380.487 475.335,380.501 475.418,380.501C475.5,380.501 475.556,380.486 475.586,380.458C475.617,380.43 475.632,380.379 475.632,380.304ZM481.159,380.868C481.159,380.833 481.158,380.805 481.157,380.785C481.156,380.764 481.155,380.749 481.153,380.739C481.151,380.728 481.149,380.72 481.146,380.715C481.144,380.709 481.14,380.703 481.135,380.698C481.129,380.694 481.121,380.689 481.109,380.684C481.097,380.68 481.084,380.676 481.068,380.673C481.052,380.669 481.037,380.667 481.022,380.665C481.008,380.664 480.994,380.663 480.981,380.663C480.954,380.663 480.927,380.667 480.899,380.674C480.872,380.682 480.845,380.694 480.817,380.713C480.79,380.732 480.761,380.757 480.731,380.788C480.701,380.82 480.668,380.861 480.634,380.909L480.634,380.747C480.634,380.737 480.632,380.728 480.627,380.721C480.622,380.714 480.614,380.708 480.603,380.703C480.592,380.698 480.576,380.694 480.555,380.692C480.535,380.689 480.509,380.688 480.478,380.688C480.447,380.688 480.422,380.689 480.402,380.692C480.382,380.694 480.366,380.698 480.353,380.703C480.34,380.708 480.332,380.714 480.327,380.721C480.322,380.728 480.319,380.737 480.319,380.747L480.319,382.053C480.319,382.063 480.322,382.072 480.328,382.079C480.334,382.086 480.344,382.092 480.358,382.097C480.372,382.102 480.391,382.106 480.415,382.108C480.438,382.111 480.468,382.112 480.504,382.112C480.54,382.112 480.57,382.111 480.593,382.108C480.617,382.106 480.636,382.102 480.65,382.097C480.664,382.092 480.674,382.086 480.68,382.079C480.686,382.072 480.689,382.063 480.689,382.053L480.689,381.239C480.716,381.196 480.741,381.16 480.765,381.131C480.789,381.101 480.812,381.078 480.834,381.06C480.856,381.043 480.877,381.03 480.898,381.021C480.918,381.013 480.939,381.009 480.96,381.009C480.977,381.009 480.993,381.011 481.008,381.014C481.022,381.017 481.036,381.021 481.048,381.025C481.06,381.029 481.071,381.033 481.081,381.036C481.091,381.039 481.1,381.041 481.107,381.041C481.117,381.041 481.125,381.039 481.132,381.034C481.138,381.029 481.143,381.02 481.147,381.007C481.151,380.995 481.154,380.977 481.156,380.955C481.158,380.932 481.159,380.903 481.159,380.868ZM477.149,380.838C477.149,380.787 477.144,380.751 477.134,380.729C477.124,380.708 477.11,380.697 477.094,380.697L476.679,380.697C476.647,380.688 476.612,380.681 476.574,380.676C476.537,380.672 476.498,380.669 476.457,380.669C476.376,380.669 476.303,380.68 476.237,380.702C476.17,380.724 476.113,380.756 476.065,380.797C476.018,380.839 475.98,380.89 475.953,380.95C475.927,381.01 475.913,381.078 475.913,381.154C475.913,381.225 475.923,381.285 475.944,381.333C475.964,381.381 475.992,381.422 476.026,381.456C475.984,381.494 475.95,381.537 475.923,381.584C475.897,381.631 475.884,381.684 475.884,381.741C475.884,381.787 475.895,381.83 475.918,381.868C475.941,381.907 475.974,381.937 476.016,381.96C475.985,381.982 475.959,382.006 475.935,382.03C475.912,382.054 475.892,382.08 475.876,382.107C475.86,382.134 475.847,382.162 475.839,382.191C475.831,382.22 475.827,382.251 475.827,382.283C475.827,382.335 475.838,382.383 475.861,382.426C475.884,382.47 475.921,382.507 475.971,382.538C476.021,382.569 476.086,382.594 476.164,382.611C476.243,382.629 476.338,382.638 476.449,382.638C476.564,382.638 476.663,382.626 476.749,382.601C476.834,382.577 476.905,382.544 476.962,382.502C477.019,382.46 477.061,382.41 477.089,382.353C477.118,382.296 477.132,382.235 477.132,382.171C477.132,382.112 477.121,382.06 477.1,382.014C477.079,381.968 477.049,381.929 477.01,381.896C476.97,381.863 476.921,381.838 476.863,381.82C476.805,381.802 476.739,381.791 476.665,381.788L476.347,381.777C476.302,381.775 476.267,381.765 476.242,381.746C476.217,381.728 476.205,381.705 476.205,381.677C476.205,381.655 476.209,381.636 476.219,381.618C476.228,381.601 476.238,381.586 476.25,381.573C476.271,381.587 476.3,381.599 476.338,381.609C476.376,381.619 476.416,381.624 476.458,381.624C476.54,381.624 476.615,381.614 476.681,381.593C476.748,381.572 476.805,381.541 476.853,381.5C476.9,381.46 476.937,381.41 476.962,381.351C476.987,381.292 477,381.224 477,381.148C477,381.116 476.995,381.085 476.986,381.055C476.977,381.025 476.961,380.999 476.94,380.975L477.094,380.975C477.109,380.975 477.123,380.964 477.133,380.942C477.144,380.919 477.149,380.884 477.149,380.838ZM476.763,382.19C476.763,382.215 476.758,382.239 476.748,382.262C476.738,382.285 476.722,382.306 476.698,382.324C476.675,382.343 476.644,382.358 476.606,382.369C476.568,382.38 476.521,382.386 476.465,382.386C476.376,382.386 476.306,382.373 476.257,382.348C476.207,382.322 476.183,382.285 476.183,382.236C476.183,382.221 476.184,382.206 476.187,382.191C476.19,382.176 476.196,382.161 476.205,382.146C476.215,382.13 476.227,382.114 476.242,382.097C476.257,382.08 476.277,382.062 476.303,382.043L476.565,382.05C476.626,382.052 476.675,382.065 476.71,382.089C476.745,382.112 476.763,382.146 476.763,382.19ZM476.676,381.147C476.676,381.176 476.672,381.204 476.662,381.231C476.653,381.258 476.639,381.281 476.621,381.302C476.603,381.322 476.581,381.339 476.553,381.35C476.526,381.362 476.494,381.368 476.457,381.368C476.387,381.368 476.333,381.349 476.294,381.31C476.255,381.271 476.235,381.219 476.235,381.153C476.235,381.122 476.24,381.093 476.249,381.065C476.257,381.038 476.271,381.013 476.289,380.992C476.307,380.971 476.33,380.955 476.357,380.942C476.384,380.93 476.416,380.924 476.452,380.924C476.523,380.924 476.579,380.944 476.618,380.983C476.657,381.022 476.676,381.076 476.676,381.147ZM461.024,380.502C461.024,380.453 461.021,380.416 461.015,380.392C461.01,380.367 461,380.347 460.987,380.334C460.974,380.32 460.951,380.304 460.917,380.285C460.884,380.267 460.842,380.249 460.792,380.233C460.742,380.217 460.683,380.204 460.616,380.192C460.548,380.181 460.473,380.175 460.391,380.175C460.242,380.175 460.107,380.198 459.985,380.244C459.863,380.29 459.76,380.356 459.674,380.443C459.588,380.529 459.521,380.634 459.474,380.758C459.428,380.881 459.404,381.021 459.404,381.176C459.404,381.326 459.426,381.461 459.47,381.58C459.514,381.698 459.577,381.799 459.66,381.881C459.743,381.964 459.845,382.027 459.964,382.07C460.084,382.114 460.22,382.135 460.371,382.135C460.423,382.135 460.474,382.133 460.525,382.128C460.577,382.123 460.628,382.116 460.678,382.106C460.728,382.096 460.777,382.085 460.824,382.071C460.87,382.057 460.91,382.044 460.941,382.031C460.973,382.019 460.994,382.001 461.004,381.979C461.015,381.957 461.02,381.932 461.02,381.903L461.02,381.148C461.02,381.129 461.017,381.111 461.013,381.096C461.008,381.081 461.001,381.068 460.991,381.057C460.982,381.047 460.971,381.038 460.959,381.033C460.947,381.028 460.933,381.025 460.917,381.025L460.277,381.025C460.268,381.025 460.261,381.028 460.254,381.033C460.247,381.038 460.241,381.047 460.236,381.058C460.231,381.069 460.228,381.084 460.225,381.103C460.223,381.121 460.222,381.144 460.222,381.172C460.222,381.224 460.226,381.262 460.236,381.284C460.246,381.306 460.26,381.317 460.277,381.317L460.636,381.317L460.636,381.756C460.6,381.776 460.561,381.79 460.519,381.8C460.477,381.81 460.434,381.815 460.391,381.815C460.304,381.815 460.223,381.8 460.15,381.772C460.078,381.744 460.015,381.702 459.964,381.646C459.912,381.59 459.872,381.521 459.843,381.439C459.814,381.356 459.8,381.261 459.8,381.153C459.8,381.054 459.814,380.964 459.842,380.882C459.87,380.801 459.911,380.731 459.964,380.673C460.016,380.615 460.08,380.57 460.154,380.538C460.228,380.506 460.311,380.49 460.403,380.49C460.489,380.49 460.565,380.499 460.629,380.517C460.694,380.534 460.75,380.553 460.797,380.574C460.844,380.594 460.882,380.613 460.91,380.631C460.938,380.649 460.959,380.657 460.972,380.657C460.98,380.657 460.988,380.655 460.994,380.65C461.001,380.645 461.006,380.637 461.01,380.624C461.015,380.612 461.018,380.596 461.021,380.575C461.023,380.555 461.024,380.53 461.024,380.502Z"/>
    </g>
</svg>
