<?xml version="1.0" encoding="UTF-8" standalone="no"?>
<!DOCTYPE svg PUBLIC "-//W3C//DTD SVG 1.1//EN" "http://www.w3.org/Graphics/SVG/1.1/DTD/svg11.dtd">
<svg width="100%" height="100%" viewBox="0 0 30 7" version="1.1" xmlns="http://www.w3.org/2000/svg" xmlns:xlink="http://www.w3.org/1999/xlink" xml:space="preserve" xmlns:serif="http://www.serif.com/" style="fill-rule:evenodd;clip-rule:evenodd;stroke-linejoin:round;stroke-miterlimit:2;">
    <g transform="matrix(1,0,0,1,-519.192,-377.995)">
        <path d="M548.672,384.172L519.192,384.172L519.192,377.995L548.672,377.995L548.672,384.172ZM525.399,380.502C525.399,380.453 525.396,380.416 525.391,380.392C525.385,380.367 525.375,380.347 525.362,380.334C525.349,380.32 525.326,380.304 525.292,380.285C525.259,380.267 525.217,380.249 525.167,380.233C525.117,380.217 525.058,380.204 524.991,380.192C524.923,380.181 524.849,380.175 524.766,380.175C524.617,380.175 524.482,380.198 524.36,380.244C524.238,380.29 524.135,380.356 524.049,380.443C523.963,380.529 523.896,380.634 523.849,380.758C523.803,380.881 523.779,381.021 523.779,381.176C523.779,381.326 523.801,381.461 523.845,381.58C523.889,381.698 523.953,381.799 524.036,381.881C524.119,381.964 524.22,382.027 524.339,382.07C524.459,382.114 524.595,382.135 524.746,382.135C524.798,382.135 524.849,382.133 524.901,382.128C524.952,382.123 525.003,382.116 525.053,382.106C525.103,382.096 525.152,382.085 525.199,382.071C525.245,382.057 525.285,382.044 525.317,382.031C525.348,382.019 525.369,382.001 525.38,381.979C525.39,381.957 525.395,381.932 525.395,381.903L525.395,381.148C525.395,381.129 525.392,381.111 525.388,381.096C525.383,381.081 525.376,381.068 525.366,381.057C525.357,381.047 525.346,381.038 525.334,381.033C525.322,381.028 525.308,381.025 525.292,381.025L524.652,381.025C524.643,381.025 524.636,381.028 524.629,381.033C524.622,381.038 524.616,381.047 524.611,381.058C524.606,381.069 524.603,381.084 524.6,381.103C524.598,381.121 524.597,381.144 524.597,381.172C524.597,381.224 524.601,381.262 524.611,381.284C524.621,381.306 524.635,381.317 524.652,381.317L525.011,381.317L525.011,381.756C524.975,381.776 524.936,381.79 524.894,381.8C524.852,381.81 524.809,381.815 524.766,381.815C524.679,381.815 524.598,381.8 524.526,381.772C524.453,381.744 524.391,381.702 524.339,381.646C524.287,381.59 524.247,381.521 524.218,381.439C524.189,381.356 524.175,381.261 524.175,381.153C524.175,381.054 524.189,380.964 524.217,380.882C524.245,380.801 524.286,380.731 524.339,380.673C524.391,380.615 524.455,380.57 524.529,380.538C524.603,380.506 524.686,380.49 524.778,380.49C524.864,380.49 524.94,380.499 525.005,380.517C525.069,380.534 525.125,380.553 525.172,380.574C525.219,380.594 525.257,380.613 525.285,380.631C525.313,380.649 525.334,380.657 525.347,380.657C525.355,380.657 525.363,380.655 525.369,380.65C525.376,380.645 525.381,380.637 525.385,380.624C525.39,380.612 525.393,380.596 525.396,380.575C525.398,380.555 525.399,380.53 525.399,380.502ZM529.341,381.128C529.341,380.977 529.32,380.845 529.278,380.731C529.236,380.616 529.175,380.52 529.094,380.443C529.014,380.365 528.915,380.307 528.797,380.267C528.679,380.227 528.536,380.208 528.367,380.208L527.881,380.208C527.849,380.208 527.821,380.217 527.799,380.236C527.777,380.255 527.766,380.286 527.766,380.329L527.766,381.982C527.766,382.025 527.777,382.056 527.799,382.075C527.821,382.094 527.849,382.103 527.881,382.103L528.333,382.103C528.501,382.103 528.646,382.085 528.768,382.048C528.889,382.012 528.993,381.954 529.078,381.876C529.162,381.798 529.228,381.697 529.273,381.574C529.318,381.45 529.341,381.301 529.341,381.128ZM528.943,381.141C528.943,381.25 528.931,381.346 528.907,381.428C528.883,381.51 528.847,381.579 528.798,381.634C528.75,381.689 528.69,381.73 528.618,381.757C528.545,381.785 528.456,381.798 528.351,381.798L528.15,381.798L528.15,380.509L528.345,380.509C528.463,380.509 528.559,380.525 528.631,380.557C528.704,380.589 528.764,380.633 528.81,380.69C528.857,380.746 528.89,380.813 528.911,380.89C528.932,380.967 528.943,381.051 528.943,381.141ZM540.001,382.036L540.566,380.354C540.578,380.32 540.586,380.293 540.589,380.272C540.593,380.252 540.59,380.236 540.58,380.225C540.571,380.213 540.554,380.206 540.529,380.203C540.504,380.2 540.469,380.199 540.424,380.199C540.379,380.199 540.342,380.2 540.316,380.202C540.29,380.204 540.269,380.208 540.255,380.214C540.241,380.219 540.231,380.227 540.225,380.238C540.219,380.248 540.214,380.261 540.211,380.278L539.757,381.733L539.295,380.271C539.29,380.256 539.285,380.244 539.28,380.234C539.274,380.224 539.265,380.217 539.251,380.212C539.237,380.207 539.218,380.204 539.192,380.202C539.167,380.2 539.132,380.199 539.087,380.199C539.034,380.199 538.993,380.2 538.964,380.203C538.935,380.205 538.914,380.211 538.902,380.222C538.889,380.232 538.885,380.247 538.887,380.268C538.889,380.288 538.897,380.316 538.908,380.351L539.472,382.031C539.476,382.044 539.48,382.055 539.485,382.063C539.489,382.071 539.495,382.078 539.504,382.084C539.512,382.09 539.522,382.095 539.535,382.099C539.547,382.103 539.563,382.106 539.582,382.108C539.602,382.11 539.625,382.111 539.653,382.111C539.681,382.112 539.714,382.112 539.754,382.112C539.802,382.112 539.842,382.111 539.872,382.11C539.902,382.108 539.926,382.105 539.944,382.1C539.962,382.094 539.974,382.086 539.982,382.076C539.99,382.066 539.996,382.052 540.001,382.036ZM534.098,383.41L534.098,378.757C534.098,378.665 534.024,378.59 533.932,378.59C533.84,378.59 533.765,378.665 533.765,378.757L533.765,383.41C533.765,383.502 533.84,383.577 533.932,383.577C534.024,383.577 534.098,383.502 534.098,383.41ZM542.094,381.816C542.094,381.781 542.093,381.753 542.091,381.732C542.089,381.711 542.087,381.694 542.083,381.683C542.079,381.671 542.074,381.663 542.068,381.659C542.062,381.655 542.054,381.653 542.045,381.653C542.032,381.653 542.014,381.661 541.991,381.677C541.968,381.693 541.939,381.71 541.903,381.73C541.868,381.749 541.825,381.767 541.775,381.783C541.725,381.799 541.666,381.807 541.598,381.807C541.523,381.807 541.455,381.794 541.395,381.768C541.335,381.743 541.284,381.703 541.241,381.651C541.199,381.598 541.166,381.531 541.143,381.449C541.12,381.368 541.108,381.271 541.108,381.16C541.108,381.058 541.119,380.967 541.141,380.886C541.162,380.805 541.194,380.736 541.235,380.679C541.277,380.621 541.327,380.578 541.386,380.547C541.445,380.516 541.512,380.501 541.587,380.501C541.656,380.501 541.715,380.509 541.764,380.526C541.813,380.543 541.856,380.562 541.891,380.583C541.927,380.604 541.956,380.623 541.979,380.641C542.001,380.658 542.02,380.666 542.034,380.666C542.043,380.666 542.051,380.663 542.058,380.657C542.065,380.652 542.07,380.642 542.075,380.63C542.08,380.617 542.084,380.6 542.086,380.58C542.087,380.559 542.088,380.534 542.088,380.505C542.088,380.478 542.088,380.455 542.086,380.436C542.085,380.418 542.083,380.402 542.08,380.388C542.077,380.374 542.073,380.363 542.068,380.354C542.063,380.345 542.054,380.334 542.041,380.321C542.028,380.308 542.004,380.292 541.971,380.274C541.938,380.255 541.901,380.239 541.859,380.225C541.818,380.21 541.773,380.199 541.724,380.19C541.675,380.181 541.624,380.177 541.571,380.177C541.441,380.177 541.323,380.199 541.215,380.243C541.107,380.287 541.014,380.351 540.937,380.436C540.86,380.521 540.8,380.626 540.757,380.751C540.714,380.876 540.692,381.019 540.692,381.18C540.692,381.339 540.712,381.477 540.751,381.596C540.79,381.715 540.846,381.815 540.92,381.894C540.993,381.974 541.082,382.034 541.186,382.074C541.291,382.114 541.408,382.134 541.538,382.134C541.604,382.134 541.666,382.129 541.723,382.118C541.78,382.107 541.831,382.094 541.875,382.078C541.92,382.061 541.957,382.045 541.988,382.027C542.019,382.009 542.04,381.995 542.05,381.984C542.061,381.973 542.069,381.963 542.074,381.954C542.079,381.945 542.083,381.934 542.086,381.922C542.088,381.91 542.091,381.895 542.092,381.878C542.094,381.861 542.094,381.84 542.094,381.816ZM527.353,381.968L527.353,380.265C527.353,380.255 527.351,380.246 527.346,380.238C527.341,380.231 527.333,380.224 527.32,380.218C527.308,380.212 527.291,380.208 527.268,380.205C527.246,380.203 527.218,380.202 527.185,380.202C527.15,380.202 527.121,380.203 527.099,380.205C527.076,380.208 527.058,380.212 527.044,380.218C527.031,380.224 527.021,380.231 527.015,380.238C527.009,380.246 527.006,380.255 527.006,380.265L527.006,381.154C527.006,381.221 527.007,381.292 527.008,381.366C527.01,381.441 527.011,381.512 527.014,381.58C526.997,381.541 526.978,381.502 526.959,381.463C526.941,381.424 526.922,381.384 526.902,381.344C526.883,381.303 526.862,381.263 526.841,381.222C526.82,381.182 526.799,381.14 526.778,381.098L526.409,380.405C526.39,380.367 526.372,380.335 526.354,380.309C526.337,380.284 526.318,380.263 526.298,380.249C526.278,380.234 526.255,380.224 526.23,380.217C526.204,380.211 526.173,380.208 526.136,380.208L525.93,380.208C525.891,380.208 525.858,380.219 525.831,380.242C525.804,380.265 525.79,380.299 525.79,380.345L525.79,382.049C525.79,382.059 525.793,382.068 525.798,382.075C525.803,382.083 525.811,382.09 525.824,382.095C525.837,382.1 525.854,382.105 525.877,382.108C525.899,382.111 525.928,382.112 525.962,382.112C525.997,382.112 526.026,382.111 526.048,382.108C526.071,382.105 526.089,382.1 526.102,382.095C526.115,382.09 526.124,382.083 526.13,382.075C526.135,382.068 526.138,382.059 526.138,382.049L526.138,381.057C526.138,380.983 526.137,380.911 526.135,380.841C526.133,380.771 526.13,380.701 526.126,380.631L526.129,380.631C526.151,380.689 526.177,380.748 526.205,380.809C526.233,380.87 526.261,380.927 526.288,380.98L526.76,381.866C526.785,381.915 526.807,381.955 526.826,381.985C526.846,382.016 526.866,382.04 526.887,382.059C526.908,382.077 526.931,382.089 526.956,382.096C526.981,382.103 527.01,382.106 527.044,382.106L527.208,382.106C527.227,382.106 527.245,382.103 527.263,382.098C527.281,382.093 527.297,382.084 527.31,382.072C527.323,382.061 527.334,382.046 527.342,382.028C527.349,382.011 527.353,381.991 527.353,381.968ZM543.682,381.816C543.682,381.781 543.681,381.753 543.679,381.732C543.677,381.711 543.674,381.694 543.67,381.683C543.667,381.671 543.662,381.663 543.656,381.659C543.65,381.655 543.642,381.653 543.632,381.653C543.62,381.653 543.602,381.661 543.579,381.677C543.556,381.693 543.527,381.71 543.491,381.73C543.455,381.749 543.413,381.767 543.363,381.783C543.313,381.799 543.254,381.807 543.186,381.807C543.11,381.807 543.043,381.794 542.983,381.768C542.923,381.743 542.871,381.703 542.829,381.651C542.786,381.598 542.754,381.531 542.731,381.449C542.708,381.368 542.696,381.271 542.696,381.16C542.696,381.058 542.707,380.967 542.729,380.886C542.75,380.805 542.782,380.736 542.823,380.679C542.865,380.621 542.915,380.578 542.974,380.547C543.033,380.516 543.1,380.501 543.175,380.501C543.244,380.501 543.303,380.509 543.352,380.526C543.401,380.543 543.444,380.562 543.479,380.583C543.515,380.604 543.544,380.623 543.566,380.641C543.589,380.658 543.608,380.666 543.622,380.666C543.631,380.666 543.639,380.663 543.646,380.657C543.652,380.652 543.658,380.642 543.663,380.63C543.668,380.617 543.671,380.6 543.673,380.58C543.675,380.559 543.676,380.534 543.676,380.505C543.676,380.478 543.676,380.455 543.674,380.436C543.673,380.418 543.67,380.402 543.668,380.388C543.665,380.374 543.661,380.363 543.656,380.354C543.651,380.345 543.642,380.334 543.629,380.321C543.616,380.308 543.592,380.292 543.559,380.274C543.526,380.255 543.489,380.239 543.447,380.225C543.406,380.21 543.36,380.199 543.312,380.19C543.263,380.181 543.212,380.177 543.159,380.177C543.029,380.177 542.91,380.199 542.803,380.243C542.695,380.287 542.602,380.351 542.525,380.436C542.448,380.521 542.388,380.626 542.345,380.751C542.302,380.876 542.28,381.019 542.28,381.18C542.28,381.339 542.3,381.477 542.339,381.596C542.378,381.715 542.434,381.815 542.507,381.894C542.581,381.974 542.67,382.034 542.774,382.074C542.879,382.114 542.996,382.134 543.126,382.134C543.192,382.134 543.254,382.129 543.311,382.118C543.368,382.107 543.419,382.094 543.463,382.078C543.508,382.061 543.545,382.045 543.576,382.027C543.607,382.009 543.628,381.995 543.638,381.984C543.649,381.973 543.657,381.963 543.662,381.954C543.667,381.945 543.67,381.934 543.673,381.922C543.676,381.91 543.679,381.895 543.68,381.878C543.681,381.861 543.682,381.84 543.682,381.816Z"/>
    </g>
</svg>
