<?xml version="1.0" encoding="UTF-8" standalone="no"?>
<!DOCTYPE svg PUBLIC "-//W3C//DTD SVG 1.1//EN" "http://www.w3.org/Graphics/SVG/1.1/DTD/svg11.dtd">
<svg width="100%" height="100%" viewBox="0 0 30 7" version="1.1" xmlns="http://www.w3.org/2000/svg" xmlns:xlink="http://www.w3.org/1999/xlink" xml:space="preserve" xmlns:serif="http://www.serif.com/" style="fill-rule:evenodd;clip-rule:evenodd;stroke-linejoin:round;stroke-miterlimit:2;">
    <g transform="matrix(1,0,0,1,-487.079,-377.995)">
        <path d="M516.559,384.172L487.079,384.172L487.079,377.995L516.559,377.995L516.559,384.172ZM508.729,381.952C508.729,381.924 508.728,381.9 508.726,381.881C508.723,381.862 508.72,381.847 508.715,381.835C508.71,381.823 508.704,381.815 508.696,381.809C508.689,381.804 508.681,381.801 508.672,381.801L507.99,381.801L507.99,381.267L508.562,381.267C508.571,381.267 508.579,381.264 508.587,381.259C508.594,381.255 508.6,381.246 508.605,381.235C508.61,381.224 508.613,381.209 508.616,381.191C508.618,381.172 508.619,381.149 508.619,381.12C508.619,381.093 508.618,381.07 508.616,381.051C508.613,381.032 508.61,381.017 508.605,381.005C508.6,380.994 508.594,380.986 508.587,380.98C508.579,380.975 508.571,380.972 508.562,380.972L507.99,380.972L507.99,380.509L508.666,380.509C508.675,380.509 508.683,380.507 508.69,380.501C508.697,380.496 508.702,380.487 508.707,380.476C508.712,380.464 508.716,380.449 508.718,380.43C508.721,380.411 508.722,380.387 508.722,380.36C508.722,380.331 508.721,380.307 508.718,380.288C508.716,380.268 508.712,380.253 508.707,380.241C508.702,380.228 508.697,380.22 508.69,380.215C508.683,380.21 508.675,380.208 508.666,380.208L507.72,380.208C507.688,380.208 507.661,380.217 507.639,380.236C507.617,380.255 507.606,380.286 507.606,380.329L507.606,381.982C507.606,382.025 507.617,382.056 507.639,382.075C507.661,382.094 507.688,382.103 507.72,382.103L508.672,382.103C508.681,382.103 508.689,382.1 508.696,382.095C508.704,382.09 508.71,382.081 508.715,382.069C508.72,382.058 508.723,382.042 508.726,382.023C508.728,382.004 508.729,381.981 508.729,381.952ZM510.644,381.128C510.644,380.977 510.623,380.845 510.581,380.731C510.539,380.616 510.478,380.52 510.397,380.443C510.316,380.365 510.217,380.307 510.1,380.267C509.982,380.227 509.839,380.208 509.67,380.208L509.183,380.208C509.151,380.208 509.124,380.217 509.102,380.236C509.08,380.255 509.069,380.286 509.069,380.329L509.069,381.982C509.069,382.025 509.08,382.056 509.102,382.075C509.124,382.094 509.151,382.103 509.183,382.103L509.636,382.103C509.804,382.103 509.949,382.085 510.07,382.048C510.192,382.012 510.295,381.954 510.38,381.876C510.465,381.798 510.53,381.697 510.576,381.574C510.621,381.45 510.644,381.301 510.644,381.128ZM510.245,381.141C510.245,381.25 510.233,381.346 510.21,381.428C510.186,381.51 510.15,381.579 510.101,381.634C510.053,381.689 509.993,381.73 509.92,381.757C509.848,381.785 509.759,381.798 509.654,381.798L509.453,381.798L509.453,380.509L509.648,380.509C509.766,380.509 509.861,380.525 509.934,380.557C510.007,380.589 510.066,380.633 510.113,380.69C510.159,380.746 510.193,380.813 510.214,380.89C510.235,380.967 510.245,381.051 510.245,381.141ZM507.379,381.942C507.379,381.913 507.378,381.888 507.375,381.868C507.373,381.848 507.369,381.832 507.364,381.82C507.359,381.808 507.353,381.799 507.346,381.793C507.338,381.788 507.33,381.785 507.32,381.785L506.724,381.785L506.724,380.26C506.724,380.251 506.721,380.242 506.714,380.234C506.708,380.226 506.698,380.22 506.683,380.215C506.668,380.21 506.649,380.206 506.624,380.203C506.6,380.2 506.569,380.199 506.531,380.199C506.493,380.199 506.462,380.2 506.438,380.203C506.413,380.206 506.393,380.21 506.378,380.215C506.364,380.22 506.353,380.226 506.347,380.234C506.34,380.242 506.337,380.251 506.337,380.26L506.337,381.982C506.337,382.025 506.348,382.056 506.37,382.075C506.392,382.094 506.419,382.103 506.452,382.103L507.32,382.103C507.33,382.103 507.338,382.1 507.346,382.094C507.353,382.089 507.359,382.079 507.364,382.066C507.369,382.053 507.373,382.036 507.375,382.016C507.378,381.996 507.379,381.971 507.379,381.942ZM512.172,381.261C512.172,381.235 512.17,381.212 512.167,381.193C512.164,381.174 512.16,381.159 512.155,381.147C512.15,381.136 512.143,381.128 512.136,381.123C512.129,381.118 512.121,381.116 512.113,381.116L511.653,381.116L511.653,380.621C511.653,380.611 511.651,380.602 511.646,380.594C511.641,380.585 511.633,380.579 511.621,380.573C511.609,380.568 511.594,380.564 511.574,380.561C511.555,380.558 511.53,380.556 511.501,380.556C511.472,380.556 511.447,380.558 511.428,380.561C511.408,380.564 511.392,380.568 511.381,380.573C511.369,380.579 511.36,380.585 511.355,380.594C511.35,380.602 511.347,380.611 511.347,380.621L511.347,381.116L510.889,381.116C510.88,381.116 510.872,381.118 510.865,381.123C510.858,381.128 510.852,381.136 510.847,381.147C510.841,381.159 510.837,381.174 510.834,381.193C510.831,381.212 510.83,381.235 510.83,381.261C510.83,381.288 510.832,381.311 510.835,381.33C510.838,381.348 510.843,381.363 510.849,381.374C510.855,381.386 510.861,381.394 510.869,381.399C510.876,381.403 510.884,381.406 510.893,381.406L511.347,381.406L511.347,381.903C511.347,381.912 511.35,381.921 511.355,381.928C511.36,381.935 511.369,381.942 511.381,381.947C511.392,381.953 511.408,381.957 511.428,381.96C511.447,381.963 511.472,381.964 511.501,381.964C511.53,381.964 511.555,381.963 511.574,381.96C511.594,381.957 511.609,381.953 511.621,381.947C511.633,381.942 511.641,381.935 511.646,381.928C511.651,381.921 511.653,381.912 511.653,381.903L511.653,381.406L512.109,381.406C512.118,381.406 512.126,381.403 512.134,381.399C512.141,381.394 512.148,381.386 512.154,381.374C512.16,381.363 512.164,381.348 512.167,381.33C512.17,381.311 512.172,381.288 512.172,381.261ZM492.926,381.942C492.926,381.913 492.925,381.888 492.923,381.868C492.92,381.848 492.917,381.832 492.912,381.82C492.907,381.808 492.901,381.799 492.893,381.793C492.886,381.788 492.878,381.785 492.868,381.785L492.272,381.785L492.272,380.26C492.272,380.251 492.268,380.242 492.262,380.234C492.256,380.226 492.245,380.22 492.231,380.215C492.216,380.21 492.196,380.206 492.172,380.203C492.148,380.2 492.116,380.199 492.078,380.199C492.041,380.199 492.01,380.2 491.985,380.203C491.96,380.206 491.941,380.21 491.926,380.215C491.911,380.22 491.901,380.226 491.894,380.234C491.888,380.242 491.885,380.251 491.885,380.26L491.885,381.982C491.885,382.025 491.896,382.056 491.918,382.075C491.94,382.094 491.967,382.103 491.999,382.103L492.868,382.103C492.878,382.103 492.886,382.1 492.893,382.094C492.901,382.089 492.907,382.079 492.912,382.066C492.917,382.053 492.92,382.036 492.923,382.016C492.925,381.996 492.926,381.971 492.926,381.942ZM497.133,381.366C497.133,381.339 497.132,381.316 497.13,381.296C497.127,381.277 497.123,381.261 497.117,381.249C497.111,381.237 497.104,381.229 497.096,381.224C497.088,381.219 497.078,381.217 497.066,381.217L496.457,381.217C496.432,381.217 496.415,381.228 496.404,381.251C496.393,381.273 496.388,381.312 496.388,381.366C496.388,381.422 496.393,381.461 496.404,381.484C496.415,381.507 496.432,381.519 496.457,381.519L497.066,381.519C497.089,381.519 497.107,381.507 497.117,381.485C497.128,381.463 497.133,381.423 497.133,381.366ZM501.986,383.41L501.986,378.757C501.986,378.665 501.911,378.59 501.819,378.59C501.727,378.59 501.653,378.665 501.653,378.757L501.653,383.41C501.653,383.502 501.727,383.577 501.819,383.577C501.911,383.577 501.986,383.502 501.986,383.41ZM496.192,381.128C496.192,380.977 496.171,380.845 496.129,380.731C496.087,380.616 496.025,380.52 495.945,380.443C495.864,380.365 495.765,380.307 495.647,380.267C495.53,380.227 495.386,380.208 495.217,380.208L494.731,380.208C494.699,380.208 494.672,380.217 494.65,380.236C494.628,380.255 494.617,380.286 494.617,380.329L494.617,381.982C494.617,382.025 494.628,382.056 494.65,382.075C494.672,382.094 494.699,382.103 494.731,382.103L495.184,382.103C495.352,382.103 495.496,382.085 495.618,382.048C495.74,382.012 495.843,381.954 495.928,381.876C496.013,381.798 496.078,381.697 496.123,381.574C496.169,381.45 496.192,381.301 496.192,381.128ZM495.793,381.141C495.793,381.25 495.781,381.346 495.757,381.428C495.733,381.51 495.697,381.579 495.649,381.634C495.6,381.689 495.54,381.73 495.468,381.757C495.396,381.785 495.307,381.798 495.201,381.798L495.001,381.798L495.001,380.509L495.195,380.509C495.314,380.509 495.409,380.525 495.482,380.557C495.555,380.589 495.614,380.633 495.661,380.69C495.707,380.746 495.741,380.813 495.762,380.89C495.783,380.967 495.793,381.051 495.793,381.141ZM494.277,381.952C494.277,381.924 494.276,381.9 494.273,381.881C494.271,381.862 494.267,381.847 494.262,381.835C494.257,381.823 494.251,381.815 494.244,381.809C494.237,381.804 494.229,381.801 494.22,381.801L493.537,381.801L493.537,381.267L494.11,381.267C494.119,381.267 494.127,381.264 494.134,381.259C494.141,381.255 494.148,381.246 494.152,381.235C494.157,381.224 494.161,381.209 494.163,381.191C494.166,381.172 494.167,381.149 494.167,381.12C494.167,381.093 494.166,381.07 494.163,381.051C494.161,381.032 494.157,381.017 494.152,381.005C494.148,380.994 494.141,380.986 494.134,380.98C494.127,380.975 494.119,380.972 494.11,380.972L493.537,380.972L493.537,380.509L494.214,380.509C494.223,380.509 494.231,380.507 494.237,380.501C494.244,380.496 494.25,380.487 494.255,380.476C494.26,380.464 494.264,380.449 494.266,380.43C494.268,380.411 494.27,380.387 494.27,380.36C494.27,380.331 494.268,380.307 494.266,380.288C494.264,380.268 494.26,380.253 494.255,380.241C494.25,380.228 494.244,380.22 494.237,380.215C494.231,380.21 494.223,380.208 494.214,380.208L493.268,380.208C493.235,380.208 493.208,380.217 493.186,380.236C493.164,380.255 493.153,380.286 493.153,380.329L493.153,381.982C493.153,382.025 493.164,382.056 493.186,382.075C493.208,382.094 493.235,382.103 493.268,382.103L494.22,382.103C494.229,382.103 494.237,382.1 494.244,382.095C494.251,382.09 494.257,382.081 494.262,382.069C494.267,382.058 494.271,382.042 494.273,382.023C494.276,382.004 494.277,381.981 494.277,381.952Z"/>
    </g>
</svg>
