<?xml version="1.0" encoding="UTF-8" standalone="no"?>
<!DOCTYPE svg PUBLIC "-//W3C//DTD SVG 1.1//EN" "http://www.w3.org/Graphics/SVG/1.1/DTD/svg11.dtd">
<svg width="100%" height="100%" viewBox="0 0 51 18" version="1.1" xmlns="http://www.w3.org/2000/svg" xmlns:xlink="http://www.w3.org/1999/xlink" xml:space="preserve" xmlns:serif="http://www.serif.com/" style="fill-rule:evenodd;clip-rule:evenodd;stroke-linejoin:round;stroke-miterlimit:2;">
    <g transform="matrix(1,0,0,1,-599.657,-385.038)">
        <path d="M616.554,387.933L616.554,393.972L608.47,395.977L602.295,391.467L616.554,387.933ZM601.313,391.718L607.487,396.226L599.657,398.175L599.657,392.109L601.313,391.718ZM611.782,395.949L616.554,399.344L616.554,401.793L616.385,401.793L609.283,396.561L611.782,395.949ZM608.301,396.812L615.094,401.793L599.657,401.793L599.657,398.955L608.301,396.812ZM616.554,394.78L616.554,398.398L612.764,395.698L616.554,394.78ZM599.657,385.038L616.553,385.038L616.553,387.154L601.481,390.884L599.657,391.33L599.657,385.038ZM650.522,392.213L617.212,392.213L617.212,385.038L650.522,385.038L650.522,392.213ZM630.538,390.212C630.538,390.161 630.536,390.117 630.532,390.082C630.527,390.047 630.52,390.019 630.511,389.998C630.502,389.976 630.491,389.96 630.478,389.951C630.464,389.941 630.45,389.936 630.434,389.936L629.182,389.936L629.182,388.956L630.232,388.956C630.248,388.956 630.263,388.951 630.276,388.942C630.29,388.933 630.301,388.918 630.31,388.898C630.319,388.877 630.326,388.85 630.33,388.816C630.335,388.782 630.337,388.739 630.337,388.687C630.337,388.637 630.335,388.594 630.33,388.56C630.326,388.525 630.319,388.497 630.31,388.476C630.301,388.456 630.29,388.44 630.276,388.431C630.263,388.421 630.248,388.416 630.232,388.416L629.182,388.416L629.182,387.567L630.423,387.567C630.439,387.567 630.453,387.562 630.466,387.552C630.478,387.543 630.489,387.527 630.498,387.505C630.507,387.484 630.514,387.456 630.518,387.421C630.523,387.386 630.525,387.343 630.525,387.293C630.525,387.24 630.523,387.195 630.518,387.16C630.514,387.125 630.507,387.097 630.498,387.074C630.489,387.052 630.478,387.036 630.466,387.027C630.453,387.018 630.439,387.014 630.423,387.014L628.688,387.014C628.629,387.014 628.579,387.031 628.539,387.066C628.499,387.101 628.478,387.158 628.478,387.237L628.478,390.266C628.478,390.345 628.499,390.402 628.539,390.437C628.579,390.472 628.629,390.489 628.688,390.489L630.434,390.489C630.45,390.489 630.464,390.484 630.478,390.474C630.491,390.464 630.502,390.449 630.511,390.427C630.52,390.406 630.527,390.378 630.532,390.343C630.536,390.308 630.538,390.264 630.538,390.212ZM648.948,388.225C648.948,388.161 648.947,388.11 648.945,388.072C648.943,388.034 648.941,388.006 648.937,387.987C648.933,387.969 648.929,387.954 648.925,387.943C648.92,387.932 648.913,387.923 648.903,387.914C648.894,387.905 648.878,387.896 648.856,387.888C648.835,387.88 648.81,387.873 648.781,387.867C648.753,387.86 648.725,387.856 648.698,387.853C648.671,387.851 648.646,387.849 648.623,387.849C648.573,387.849 648.522,387.856 648.472,387.869C648.422,387.883 648.372,387.906 648.322,387.94C648.272,387.975 648.219,388.021 648.164,388.079C648.108,388.137 648.049,388.211 647.986,388.3L647.986,388.002C647.986,387.984 647.982,387.969 647.973,387.955C647.964,387.942 647.949,387.931 647.929,387.922C647.908,387.913 647.879,387.906 647.841,387.902C647.804,387.897 647.756,387.895 647.699,387.895C647.643,387.895 647.597,387.897 647.561,387.902C647.524,387.906 647.494,387.913 647.471,387.922C647.447,387.931 647.431,387.942 647.422,387.955C647.413,387.969 647.409,387.984 647.409,388.002L647.409,390.398C647.409,390.416 647.414,390.431 647.425,390.445C647.436,390.458 647.454,390.469 647.48,390.478C647.506,390.487 647.54,390.494 647.583,390.498C647.626,390.503 647.681,390.505 647.747,390.505C647.814,390.505 647.868,390.503 647.911,390.498C647.954,390.494 647.989,390.487 648.014,390.478C648.04,390.469 648.059,390.458 648.07,390.445C648.08,390.431 648.086,390.416 648.086,390.398L648.086,388.905C648.136,388.826 648.183,388.76 648.227,388.706C648.271,388.652 648.313,388.609 648.353,388.577C648.393,388.545 648.432,388.521 648.47,388.506C648.507,388.491 648.545,388.483 648.582,388.483C648.615,388.483 648.644,388.486 648.671,388.492C648.698,388.499 648.723,388.505 648.745,388.513C648.767,388.52 648.787,388.526 648.805,388.533C648.823,388.539 648.839,388.542 648.854,388.542C648.872,388.542 648.886,388.538 648.898,388.529C648.91,388.52 648.919,388.504 648.926,388.48C648.933,388.457 648.939,388.425 648.942,388.384C648.946,388.342 648.948,388.29 648.948,388.225ZM641.415,390.398L641.415,388.008C641.415,387.99 641.409,387.974 641.399,387.961C641.388,387.947 641.37,387.936 641.344,387.926C641.318,387.916 641.283,387.908 641.24,387.903C641.197,387.898 641.143,387.895 641.076,387.895C641.01,387.895 640.956,387.898 640.913,387.903C640.87,387.908 640.835,387.916 640.809,387.926C640.783,387.936 640.765,387.947 640.754,387.961C640.743,387.974 640.738,387.99 640.738,388.008L640.738,390.398C640.738,390.416 640.743,390.431 640.754,390.445C640.765,390.458 640.783,390.469 640.809,390.478C640.835,390.487 640.87,390.494 640.913,390.498C640.956,390.503 641.01,390.505 641.076,390.505C641.143,390.505 641.197,390.503 641.24,390.498C641.283,390.494 641.318,390.487 641.344,390.478C641.37,390.469 641.388,390.458 641.399,390.445C641.409,390.431 641.415,390.416 641.415,390.398ZM628.062,390.194C628.062,390.14 628.06,390.095 628.055,390.058C628.051,390.021 628.044,389.992 628.035,389.969C628.026,389.947 628.015,389.931 628.002,389.921C627.988,389.911 627.973,389.906 627.955,389.906L626.862,389.906L626.862,387.111C626.862,387.093 626.856,387.077 626.844,387.062C626.833,387.048 626.813,387.036 626.787,387.027C626.76,387.018 626.724,387.011 626.679,387.006C626.634,387.001 626.577,386.998 626.507,386.998C626.439,386.998 626.382,387.001 626.337,387.006C626.291,387.011 626.255,387.018 626.228,387.027C626.201,387.036 626.182,387.048 626.17,387.062C626.159,387.077 626.153,387.093 626.153,387.111L626.153,390.266C626.153,390.345 626.173,390.402 626.213,390.437C626.253,390.472 626.303,390.489 626.362,390.489L627.955,390.489C627.973,390.489 627.988,390.484 628.002,390.473C628.015,390.462 628.026,390.445 628.035,390.421C628.044,390.396 628.051,390.366 628.055,390.329C628.06,390.293 628.062,390.247 628.062,390.194ZM644.294,388C644.294,387.982 644.289,387.966 644.28,387.953C644.271,387.939 644.255,387.928 644.232,387.919C644.209,387.91 644.176,387.904 644.134,387.9C644.092,387.897 644.038,387.895 643.971,387.895C643.903,387.895 643.848,387.897 643.806,387.902C643.764,387.906 643.731,387.912 643.706,387.92C643.68,387.928 643.662,387.94 643.65,387.955C643.639,387.97 643.63,387.989 643.625,388.01L643.088,389.769L643.072,389.836L643.056,389.769L642.51,388.01C642.503,387.989 642.494,387.97 642.484,387.955C642.473,387.94 642.455,387.928 642.429,387.92C642.403,387.912 642.367,387.906 642.322,387.902C642.278,387.897 642.219,387.895 642.145,387.895C642.079,387.895 642.024,387.897 641.98,387.9C641.936,387.904 641.902,387.91 641.877,387.919C641.852,387.928 641.834,387.939 641.824,387.953C641.814,387.966 641.81,387.982 641.81,388C641.81,388.01 641.81,388.022 641.811,388.034C641.812,388.047 641.815,388.068 641.822,388.096C641.828,388.125 641.836,388.157 641.847,388.193L642.567,390.36C642.576,390.389 642.588,390.413 642.603,390.431C642.618,390.45 642.643,390.465 642.677,390.476C642.711,390.486 642.758,390.494 642.818,390.498C642.878,390.503 642.955,390.505 643.05,390.505C643.147,390.505 643.225,390.503 643.285,390.5C643.345,390.496 643.393,390.489 643.428,390.478C643.462,390.468 643.488,390.453 643.503,390.434C643.518,390.415 643.53,390.391 643.539,390.36L644.259,388.193C644.266,388.168 644.272,388.145 644.276,388.126C644.281,388.106 644.284,388.089 644.287,388.073C644.29,388.058 644.291,388.044 644.292,388.032C644.293,388.019 644.294,388.009 644.294,388ZM646.853,389.13L646.853,389.023C646.853,388.854 646.831,388.699 646.789,388.555C646.746,388.412 646.678,388.288 646.587,388.184C646.496,388.079 646.379,387.997 646.237,387.938C646.094,387.879 645.923,387.849 645.722,387.849C645.533,387.849 645.362,387.881 645.211,387.943C645.059,388.006 644.931,388.097 644.825,388.216C644.72,388.335 644.639,388.48 644.584,388.651C644.528,388.822 644.5,389.014 644.5,389.227C644.5,389.451 644.527,389.646 644.58,389.812C644.632,389.979 644.713,390.117 644.82,390.226C644.927,390.335 645.061,390.417 645.222,390.47C645.382,390.524 645.568,390.551 645.781,390.551C645.9,390.551 646.011,390.543 646.114,390.528C646.218,390.513 646.311,390.495 646.391,390.474C646.472,390.454 646.538,390.433 646.59,390.411C646.642,390.39 646.673,390.373 646.685,390.36C646.697,390.348 646.706,390.335 646.713,390.321C646.72,390.308 646.726,390.291 646.729,390.272C646.733,390.252 646.736,390.228 646.738,390.2C646.739,390.173 646.74,390.139 646.74,390.1C646.74,390.055 646.739,390.018 646.736,389.988C646.733,389.959 646.729,389.936 646.721,389.92C646.714,389.904 646.705,389.892 646.695,389.886C646.684,389.88 646.67,389.877 646.654,389.877C646.627,389.877 646.592,389.885 646.55,389.902C646.507,389.919 646.452,389.938 646.387,389.959C646.322,389.979 646.244,389.998 646.155,390.015C646.065,390.032 645.961,390.041 645.843,390.041C645.727,390.041 645.627,390.025 645.544,389.995C645.461,389.964 645.392,389.92 645.34,389.862C645.287,389.804 645.248,389.733 645.224,389.65C645.2,389.567 645.188,389.474 645.188,389.372L646.646,389.372C646.711,389.372 646.761,389.352 646.798,389.313C646.835,389.273 646.853,389.213 646.853,389.13ZM646.198,388.937L645.188,388.937C645.192,388.853 645.205,388.773 645.227,388.699C645.249,388.625 645.281,388.56 645.324,388.506C645.366,388.451 645.418,388.408 645.482,388.376C645.546,388.343 645.62,388.327 645.706,388.327C645.876,388.327 646.002,388.381 646.084,388.49C646.165,388.598 646.203,388.747 646.198,388.937ZM641.466,387.191C641.466,387.061 641.439,386.97 641.385,386.919C641.331,386.868 641.229,386.842 641.079,386.842C640.927,386.842 640.823,386.869 640.769,386.921C640.714,386.974 640.687,387.069 640.687,387.205C640.687,387.335 640.713,387.426 640.766,387.476C640.819,387.526 640.922,387.551 641.074,387.551C641.224,387.551 641.327,387.525 641.383,387.473C641.438,387.421 641.466,387.327 641.466,387.191ZM621.491,389.963C621.491,389.898 621.489,389.847 621.485,389.808C621.482,389.77 621.476,389.74 621.469,389.718C621.462,389.697 621.453,389.683 621.442,389.675C621.432,389.668 621.417,389.665 621.399,389.665C621.376,389.665 621.343,389.679 621.301,389.708C621.259,389.736 621.206,389.768 621.14,389.804C621.075,389.84 620.997,389.873 620.905,389.902C620.814,389.932 620.706,389.947 620.58,389.947C620.442,389.947 620.318,389.923 620.208,389.875C620.098,389.828 620.004,389.756 619.926,389.659C619.848,389.563 619.788,389.439 619.746,389.29C619.704,389.14 619.683,388.964 619.683,388.76C619.683,388.573 619.703,388.406 619.742,388.257C619.782,388.109 619.84,387.982 619.916,387.877C619.992,387.773 620.084,387.692 620.192,387.636C620.301,387.579 620.424,387.551 620.561,387.551C620.687,387.551 620.795,387.567 620.885,387.598C620.975,387.629 621.053,387.664 621.119,387.703C621.184,387.741 621.237,387.776 621.279,387.808C621.32,387.839 621.354,387.855 621.381,387.855C621.397,387.855 621.411,387.849 621.424,387.838C621.436,387.828 621.447,387.811 621.456,387.787C621.465,387.764 621.471,387.734 621.475,387.696C621.478,387.659 621.48,387.613 621.48,387.559C621.48,387.509 621.479,387.467 621.476,387.433C621.473,387.399 621.469,387.369 621.464,387.344C621.458,387.319 621.451,387.299 621.442,387.283C621.433,387.266 621.417,387.246 621.393,387.222C621.368,387.198 621.326,387.169 621.265,387.135C621.204,387.101 621.136,387.071 621.06,387.045C620.984,387.019 620.901,386.998 620.811,386.982C620.722,386.966 620.629,386.958 620.532,386.958C620.294,386.958 620.076,386.998 619.878,387.078C619.68,387.159 619.511,387.277 619.369,387.433C619.228,387.589 619.118,387.781 619.039,388.01C618.96,388.239 618.921,388.502 618.921,388.797C618.921,389.087 618.956,389.341 619.028,389.56C619.1,389.778 619.203,389.96 619.337,390.106C619.471,390.252 619.634,390.362 619.826,390.435C620.017,390.509 620.232,390.545 620.47,390.545C620.592,390.545 620.705,390.536 620.81,390.516C620.915,390.496 621.008,390.472 621.089,390.442C621.171,390.413 621.24,390.382 621.296,390.349C621.352,390.317 621.39,390.291 621.41,390.27C621.43,390.25 621.444,390.231 621.453,390.215C621.462,390.199 621.469,390.18 621.475,390.157C621.48,390.135 621.484,390.108 621.487,390.077C621.489,390.046 621.491,390.007 621.491,389.963ZM638.103,390.398L638.103,386.874C638.103,386.856 638.098,386.84 638.087,386.826C638.077,386.812 638.059,386.8 638.034,386.79C638.009,386.78 637.975,386.772 637.932,386.767C637.889,386.762 637.834,386.759 637.768,386.759C637.702,386.759 637.647,386.762 637.604,386.767C637.561,386.772 637.527,386.78 637.501,386.79C637.475,386.8 637.457,386.812 637.447,386.826C637.437,386.84 637.432,386.856 637.432,386.874L637.432,388.171C637.325,388.066 637.216,387.986 637.107,387.931C636.998,387.876 636.876,387.849 636.742,387.849C636.572,387.849 636.421,387.881 636.291,387.946C636.16,388.01 636.051,388.103 635.963,388.222C635.875,388.342 635.809,388.487 635.763,388.658C635.717,388.828 635.695,389.019 635.695,389.232C635.695,389.409 635.712,389.578 635.748,389.738C635.784,389.899 635.842,390.039 635.921,390.159C636.001,390.279 636.104,390.374 636.23,390.445C636.357,390.515 636.511,390.551 636.694,390.551C636.858,390.551 637.008,390.514 637.143,390.441C637.279,390.367 637.408,390.264 637.531,390.132L637.531,390.398C637.531,390.417 637.536,390.434 637.546,390.447C637.556,390.461 637.572,390.472 637.595,390.481C637.617,390.49 637.646,390.496 637.682,390.5C637.718,390.503 637.764,390.505 637.821,390.505C637.875,390.505 637.92,390.503 637.957,390.5C637.994,390.496 638.023,390.49 638.044,390.481C638.066,390.472 638.081,390.461 638.09,390.447C638.099,390.434 638.103,390.417 638.103,390.398ZM637.432,388.797L637.432,389.592C637.375,389.664 637.322,389.724 637.274,389.773C637.225,389.823 637.178,389.862 637.133,389.893C637.087,389.923 637.042,389.945 636.998,389.959C636.955,389.972 636.909,389.979 636.863,389.979C636.77,389.979 636.693,389.956 636.632,389.912C636.571,389.867 636.522,389.807 636.485,389.733C636.449,389.659 636.422,389.574 636.406,389.479C636.39,389.384 636.382,389.287 636.382,389.187C636.382,389.092 636.391,388.999 636.41,388.909C636.429,388.818 636.458,388.736 636.496,388.663C636.535,388.589 636.586,388.531 636.649,388.487C636.713,388.443 636.788,388.421 636.876,388.421C636.973,388.421 637.066,388.453 637.154,388.518C637.243,388.582 637.335,388.675 637.432,388.797ZM624.402,389.963C624.402,389.898 624.4,389.847 624.396,389.808C624.393,389.77 624.387,389.74 624.38,389.718C624.373,389.697 624.364,389.683 624.353,389.675C624.343,389.668 624.328,389.665 624.311,389.665C624.287,389.665 624.255,389.679 624.212,389.708C624.17,389.736 624.117,389.768 624.051,389.804C623.986,389.84 623.908,389.873 623.816,389.902C623.725,389.932 623.617,389.947 623.491,389.947C623.354,389.947 623.23,389.923 623.119,389.875C623.009,389.828 622.915,389.756 622.837,389.659C622.76,389.563 622.7,389.439 622.658,389.29C622.615,389.14 622.594,388.964 622.594,388.76C622.594,388.573 622.614,388.406 622.654,388.257C622.693,388.109 622.751,387.982 622.827,387.877C622.903,387.773 622.995,387.692 623.103,387.636C623.212,387.579 623.335,387.551 623.473,387.551C623.598,387.551 623.706,387.567 623.796,387.598C623.887,387.629 623.965,387.664 624.03,387.703C624.095,387.741 624.148,387.776 624.19,387.808C624.231,387.839 624.265,387.855 624.292,387.855C624.308,387.855 624.322,387.849 624.335,387.838C624.347,387.828 624.358,387.811 624.367,387.787C624.376,387.764 624.382,387.734 624.386,387.696C624.389,387.659 624.391,387.613 624.391,387.559C624.391,387.509 624.39,387.467 624.387,387.433C624.384,387.399 624.38,387.369 624.375,387.344C624.37,387.319 624.362,387.299 624.353,387.283C624.345,387.266 624.328,387.246 624.304,387.222C624.28,387.198 624.237,387.169 624.176,387.135C624.115,387.101 624.047,387.071 623.971,387.045C623.895,387.019 623.812,386.998 623.722,386.982C623.633,386.966 623.54,386.958 623.443,386.958C623.205,386.958 622.987,386.998 622.789,387.078C622.591,387.159 622.422,387.277 622.28,387.433C622.139,387.589 622.029,387.781 621.95,388.01C621.871,388.239 621.832,388.502 621.832,388.797C621.832,389.087 621.868,389.341 621.939,389.56C622.011,389.778 622.114,389.96 622.248,390.106C622.382,390.252 622.545,390.362 622.737,390.435C622.928,390.509 623.143,390.545 623.381,390.545C623.503,390.545 623.616,390.536 623.721,390.516C623.826,390.496 623.919,390.472 624,390.442C624.082,390.413 624.151,390.382 624.207,390.349C624.264,390.317 624.302,390.291 624.321,390.27C624.341,390.25 624.355,390.231 624.364,390.215C624.373,390.199 624.38,390.18 624.386,390.157C624.391,390.135 624.395,390.108 624.398,390.077C624.4,390.046 624.402,390.007 624.402,389.963ZM634.048,388.7C634.048,388.425 634.01,388.182 633.933,387.973C633.856,387.763 633.743,387.587 633.596,387.445C633.448,387.303 633.266,387.195 633.051,387.123C632.835,387.05 632.572,387.014 632.262,387.014L631.371,387.014C631.312,387.014 631.262,387.031 631.222,387.066C631.181,387.101 631.161,387.158 631.161,387.237L631.161,390.266C631.161,390.345 631.181,390.402 631.222,390.437C631.262,390.472 631.312,390.489 631.371,390.489L632.201,390.489C632.509,390.489 632.774,390.456 632.997,390.388C633.22,390.321 633.409,390.216 633.565,390.073C633.721,389.93 633.84,389.745 633.923,389.518C634.007,389.292 634.048,389.019 634.048,388.7ZM633.318,388.725C633.318,388.925 633.296,389.101 633.252,389.251C633.208,389.401 633.142,389.527 633.053,389.628C632.965,389.73 632.854,389.805 632.722,389.855C632.589,389.905 632.426,389.93 632.233,389.93L631.865,389.93L631.865,387.567L632.222,387.567C632.439,387.567 632.614,387.596 632.747,387.654C632.881,387.713 632.99,387.794 633.075,387.898C633.16,388.001 633.222,388.124 633.26,388.265C633.299,388.407 633.318,388.56 633.318,388.725ZM640.322,388.225C640.322,388.161 640.321,388.11 640.319,388.072C640.317,388.034 640.315,388.006 640.311,387.987C640.307,387.969 640.303,387.954 640.299,387.943C640.294,387.932 640.287,387.923 640.277,387.914C640.268,387.905 640.252,387.896 640.23,387.888C640.209,387.88 640.184,387.873 640.155,387.867C640.127,387.86 640.099,387.856 640.072,387.853C640.045,387.851 640.02,387.849 639.997,387.849C639.947,387.849 639.897,387.856 639.846,387.869C639.796,387.883 639.746,387.906 639.696,387.94C639.646,387.975 639.593,388.021 639.538,388.079C639.482,388.137 639.423,388.211 639.36,388.3L639.36,388.002C639.36,387.984 639.356,387.969 639.347,387.955C639.338,387.942 639.323,387.931 639.303,387.922C639.282,387.913 639.253,387.906 639.215,387.902C639.178,387.897 639.13,387.895 639.073,387.895C639.017,387.895 638.971,387.897 638.935,387.902C638.898,387.906 638.868,387.913 638.845,387.922C638.821,387.931 638.805,387.942 638.796,387.955C638.787,387.969 638.783,387.984 638.783,388.002L638.783,390.398C638.783,390.416 638.788,390.431 638.799,390.445C638.81,390.458 638.828,390.469 638.854,390.478C638.88,390.487 638.915,390.494 638.957,390.498C639,390.503 639.055,390.505 639.121,390.505C639.188,390.505 639.242,390.503 639.285,390.498C639.328,390.494 639.363,390.487 639.389,390.478C639.414,390.469 639.433,390.458 639.444,390.445C639.454,390.431 639.46,390.416 639.46,390.398L639.46,388.905C639.51,388.826 639.557,388.76 639.601,388.706C639.645,388.652 639.687,388.609 639.727,388.577C639.767,388.545 639.806,388.521 639.844,388.506C639.881,388.491 639.919,388.483 639.956,388.483C639.989,388.483 640.018,388.486 640.045,388.492C640.072,388.499 640.097,388.505 640.119,388.513C640.141,388.52 640.161,388.526 640.179,388.533C640.197,388.539 640.213,388.542 640.228,388.542C640.246,388.542 640.26,388.538 640.272,388.529C640.284,388.52 640.293,388.504 640.3,388.48C640.307,388.457 640.313,388.425 640.316,388.384C640.32,388.342 640.322,388.29 640.322,388.225ZM618.714,396.685C618.714,396.692 618.713,396.702 618.711,396.717C618.709,396.731 618.706,396.747 618.703,396.763C618.7,396.78 618.696,396.797 618.691,396.814C618.687,396.831 618.681,396.847 618.673,396.861C618.665,396.875 618.656,396.887 618.645,396.896C618.635,396.905 618.623,396.91 618.61,396.91L617.491,396.91C617.475,396.91 617.461,396.908 617.447,396.903C617.433,396.899 617.421,396.891 617.411,396.88C617.401,396.869 617.393,396.854 617.39,396.837C617.386,396.819 617.387,396.798 617.393,396.773L617.86,394.431C617.862,394.422 617.866,394.414 617.874,394.406C617.882,394.398 617.893,394.392 617.907,394.387C617.921,394.383 617.94,394.379 617.962,394.376C617.984,394.373 618.011,394.371 618.042,394.371C618.073,394.371 618.099,394.373 618.121,394.376C618.142,394.379 618.159,394.383 618.171,394.387C618.182,394.392 618.19,394.398 618.194,394.406C618.198,394.414 618.199,394.422 618.196,394.431L617.761,396.619L618.667,396.619C618.684,396.619 618.696,396.625 618.703,396.637C618.71,396.648 618.714,396.665 618.714,396.685ZM619.849,394.512C619.842,394.548 619.833,394.579 619.822,394.603C619.811,394.628 619.796,394.648 619.778,394.663C619.76,394.678 619.737,394.689 619.71,394.695C619.682,394.702 619.649,394.705 619.61,394.705C619.572,394.705 619.541,394.702 619.516,394.695C619.492,394.689 619.474,394.678 619.462,394.663C619.45,394.648 619.444,394.628 619.442,394.603C619.441,394.579 619.444,394.548 619.45,394.512C619.458,394.475 619.468,394.445 619.479,394.421C619.491,394.397 619.506,394.376 619.523,394.36C619.541,394.344 619.563,394.333 619.591,394.327C619.618,394.321 619.651,394.318 619.69,394.318C619.728,394.318 619.759,394.321 619.783,394.327C619.807,394.333 619.825,394.344 619.838,394.36C619.85,394.376 619.857,394.397 619.858,394.421C619.86,394.445 619.856,394.475 619.849,394.512ZM619.343,396.861C619.34,396.872 619.335,396.88 619.329,396.887C619.322,396.895 619.313,396.901 619.3,396.906C619.287,396.911 619.269,396.915 619.248,396.918C619.226,396.92 619.2,396.922 619.169,396.922C619.136,396.922 619.11,396.92 619.09,396.918C619.07,396.915 619.054,396.911 619.043,396.906C619.032,396.901 619.025,396.895 619.021,396.887C619.018,396.88 619.018,396.872 619.02,396.861L619.37,395.103C619.371,395.094 619.375,395.086 619.382,395.078C619.388,395.07 619.398,395.064 619.411,395.058C619.424,395.053 619.441,395.049 619.463,395.047C619.484,395.044 619.511,395.043 619.544,395.043C619.575,395.043 619.601,395.044 619.621,395.047C619.641,395.049 619.657,395.053 619.668,395.058C619.679,395.064 619.686,395.07 619.689,395.078C619.693,395.086 619.694,395.094 619.692,395.103L619.343,396.861ZM621.718,395.652C621.718,395.73 621.71,395.817 621.696,395.911C621.682,396.005 621.659,396.1 621.627,396.196C621.595,396.292 621.555,396.385 621.507,396.475C621.459,396.566 621.4,396.646 621.33,396.716C621.26,396.785 621.18,396.841 621.09,396.884C620.999,396.926 620.897,396.947 620.784,396.947C620.667,396.947 620.567,396.925 620.483,396.881C620.4,396.836 620.326,396.773 620.261,396.689L620.225,396.861C620.223,396.883 620.209,396.899 620.183,396.908C620.158,396.917 620.119,396.922 620.067,396.922C620.013,396.922 619.976,396.916 619.958,396.906C619.94,396.896 619.933,396.881 619.938,396.861L620.458,394.252C620.46,394.241 620.465,394.232 620.471,394.224C620.476,394.217 620.486,394.21 620.5,394.205C620.514,394.2 620.531,394.196 620.553,394.193C620.574,394.191 620.601,394.189 620.634,394.189C620.665,394.189 620.69,394.191 620.71,394.193C620.729,394.196 620.745,394.2 620.757,394.205C620.768,394.21 620.776,394.217 620.778,394.224C620.781,394.232 620.781,394.241 620.78,394.252L620.624,395.037C620.617,395.071 620.61,395.106 620.6,395.142C620.591,395.179 620.582,395.215 620.572,395.251C620.562,395.287 620.553,395.32 620.543,395.352C620.533,395.384 620.524,395.412 620.516,395.435C620.537,395.39 620.57,395.343 620.615,395.294C620.66,395.245 620.713,395.2 620.773,395.159C620.834,395.118 620.9,395.084 620.972,395.056C621.043,395.029 621.115,395.015 621.188,395.015C621.266,395.015 621.334,395.026 621.39,395.047C621.446,395.068 621.493,395.095 621.532,395.13C621.571,395.164 621.603,395.204 621.627,395.248C621.651,395.292 621.669,395.338 621.682,395.385C621.696,395.431 621.705,395.478 621.71,395.524C621.715,395.57 621.718,395.613 621.718,395.652ZM621.38,395.679C621.38,395.644 621.377,395.604 621.37,395.558C621.363,395.513 621.351,395.47 621.332,395.431C621.313,395.392 621.286,395.359 621.25,395.333C621.214,395.306 621.166,395.293 621.106,395.293C621.036,395.293 620.964,395.313 620.891,395.353C620.819,395.394 620.751,395.449 620.688,395.52C620.626,395.591 620.57,395.675 620.521,395.77C620.473,395.866 620.437,395.97 620.415,396.084L620.35,396.408C620.412,396.498 620.477,396.564 620.548,396.607C620.618,396.65 620.697,396.672 620.786,396.672C620.854,396.672 620.915,396.656 620.97,396.625C621.024,396.594 621.074,396.552 621.118,396.5C621.162,396.448 621.201,396.388 621.233,396.321C621.266,396.254 621.293,396.184 621.314,396.11C621.336,396.037 621.352,395.963 621.363,395.888C621.374,395.814 621.38,395.745 621.38,395.679ZM623.341,395.105C623.341,395.11 623.34,395.121 623.338,395.136C623.336,395.151 623.334,395.168 623.331,395.187C623.328,395.207 623.324,395.227 623.319,395.248C623.314,395.269 623.307,395.288 623.3,395.305C623.292,395.323 623.284,395.338 623.275,395.349C623.267,395.361 623.257,395.367 623.247,395.367C623.237,395.367 623.225,395.365 623.213,395.36C623.2,395.356 623.187,395.35 623.172,395.344C623.157,395.337 623.14,395.331 623.12,395.327C623.1,395.322 623.078,395.32 623.052,395.32C623.007,395.32 622.956,395.339 622.898,395.378C622.84,395.416 622.783,395.469 622.727,395.537C622.671,395.605 622.62,395.685 622.574,395.777C622.528,395.87 622.494,395.97 622.472,396.078L622.317,396.861C622.315,396.872 622.31,396.88 622.304,396.887C622.297,396.895 622.287,396.901 622.274,396.906C622.261,396.911 622.244,396.915 622.223,396.918C622.201,396.92 622.175,396.922 622.143,396.922C622.111,396.922 622.085,396.92 622.064,396.918C622.044,396.915 622.029,396.911 622.017,396.906C622.006,396.901 621.999,396.895 621.996,396.887C621.993,396.88 621.992,396.872 621.995,396.861L622.345,395.101C622.346,395.092 622.35,395.084 622.356,395.076C622.363,395.068 622.373,395.062 622.386,395.056C622.399,395.051 622.415,395.048 622.433,395.046C622.452,395.044 622.475,395.043 622.501,395.043C622.528,395.043 622.551,395.044 622.568,395.046C622.586,395.048 622.599,395.051 622.609,395.056C622.619,395.062 622.625,395.068 622.628,395.076C622.63,395.084 622.631,395.092 622.63,395.101L622.565,395.422C622.595,395.368 622.631,395.317 622.672,395.267C622.713,395.218 622.757,395.175 622.806,395.137C622.854,395.1 622.904,395.071 622.957,395.049C623.01,395.026 623.061,395.015 623.112,395.015C623.134,395.015 623.157,395.017 623.18,395.02C623.202,395.024 623.224,395.027 623.243,395.032C623.263,395.037 623.28,395.042 623.295,395.048C623.31,395.054 623.321,395.06 623.329,395.068C623.337,395.076 623.341,395.088 623.341,395.105ZM625.147,395.685C625.147,395.782 625.138,395.88 625.12,395.98C625.102,396.081 625.074,396.177 625.037,396.27C625,396.363 624.953,396.451 624.895,396.533C624.838,396.615 624.771,396.687 624.693,396.748C624.616,396.809 624.528,396.858 624.43,396.893C624.331,396.929 624.222,396.947 624.1,396.947C623.975,396.947 623.868,396.932 623.779,396.902C623.69,396.872 623.617,396.829 623.559,396.771C623.502,396.714 623.46,396.644 623.432,396.56C623.405,396.477 623.391,396.383 623.391,396.277C623.391,396.181 623.4,396.082 623.418,395.982C623.435,395.882 623.463,395.786 623.501,395.693C623.539,395.601 623.586,395.513 623.642,395.43C623.699,395.348 623.766,395.276 623.844,395.215C623.921,395.153 624.009,395.105 624.107,395.069C624.206,395.033 624.315,395.015 624.436,395.015C624.561,395.015 624.669,395.031 624.758,395.061C624.847,395.092 624.92,395.136 624.978,395.193C625.036,395.25 625.079,395.321 625.106,395.404C625.134,395.487 625.147,395.581 625.147,395.685ZM624.807,395.705C624.807,395.64 624.801,395.581 624.787,395.529C624.773,395.477 624.751,395.433 624.719,395.397C624.687,395.361 624.645,395.334 624.594,395.314C624.542,395.295 624.48,395.285 624.407,395.285C624.329,395.285 624.258,395.299 624.194,395.327C624.13,395.355 624.073,395.393 624.023,395.44C623.973,395.488 623.93,395.543 623.892,395.607C623.855,395.671 623.825,395.739 623.801,395.811C623.777,395.884 623.759,395.958 623.747,396.034C623.735,396.11 623.729,396.185 623.729,396.258C623.729,396.323 623.737,396.381 623.751,396.433C623.765,396.485 623.788,396.53 623.82,396.566C623.852,396.603 623.893,396.631 623.944,396.65C623.995,396.67 624.057,396.679 624.13,396.679C624.209,396.679 624.28,396.665 624.344,396.637C624.407,396.609 624.463,396.571 624.514,396.523C624.564,396.475 624.607,396.419 624.644,396.355C624.682,396.291 624.712,396.223 624.736,396.15C624.76,396.077 624.778,396.003 624.79,395.928C624.802,395.852 624.807,395.778 624.807,395.705ZM627.677,395.293C627.677,395.377 627.671,395.466 627.659,395.557C627.647,395.649 627.629,395.741 627.603,395.833C627.578,395.925 627.545,396.015 627.505,396.103C627.464,396.192 627.415,396.276 627.357,396.356C627.299,396.436 627.232,396.51 627.156,396.578C627.08,396.646 626.993,396.704 626.895,396.754C626.798,396.803 626.689,396.842 626.569,396.869C626.449,396.896 626.306,396.91 626.138,396.91L625.577,396.91C625.56,396.91 625.544,396.908 625.529,396.903C625.514,396.899 625.502,396.891 625.491,396.881C625.481,396.87 625.474,396.856 625.47,396.839C625.466,396.821 625.467,396.799 625.474,396.773L625.923,394.519C625.932,394.469 625.952,394.433 625.982,394.413C626.013,394.393 626.048,394.383 626.087,394.383L626.62,394.383C626.814,394.383 626.975,394.403 627.102,394.444C627.23,394.485 627.336,394.545 627.422,394.623C627.507,394.701 627.571,394.796 627.613,394.909C627.655,395.022 627.677,395.15 627.677,395.293ZM627.321,395.322C627.321,395.226 627.308,395.137 627.281,395.056C627.254,394.976 627.212,394.906 627.155,394.848C627.098,394.79 627.025,394.745 626.935,394.712C626.846,394.679 626.728,394.662 626.581,394.662L626.229,394.662L625.837,396.629L626.184,396.629C626.343,396.629 626.476,396.609 626.583,396.571C626.69,396.533 626.784,396.481 626.866,396.415C626.948,396.349 627.018,396.273 627.075,396.185C627.132,396.098 627.179,396.006 627.216,395.91C627.252,395.814 627.279,395.715 627.296,395.614C627.313,395.513 627.321,395.416 627.321,395.322ZM629.339,396.861C629.337,396.872 629.334,396.881 629.327,396.888C629.321,396.896 629.311,396.902 629.3,396.907C629.288,396.912 629.273,396.915 629.254,396.918C629.235,396.92 629.212,396.922 629.184,396.922C629.158,396.922 629.137,396.92 629.119,396.918C629.101,396.915 629.088,396.912 629.078,396.907C629.068,396.902 629.062,396.896 629.058,396.888C629.055,396.881 629.055,396.872 629.057,396.861L629.122,396.531C629.101,396.575 629.068,396.622 629.023,396.671C628.978,396.72 628.926,396.765 628.865,396.806C628.805,396.848 628.738,396.882 628.666,396.908C628.594,396.934 628.52,396.947 628.446,396.947C628.358,396.947 628.283,396.935 628.223,396.911C628.162,396.887 628.113,396.854 628.076,396.811C628.039,396.769 628.012,396.719 627.996,396.661C627.98,396.603 627.972,396.54 627.972,396.47C627.972,396.428 627.974,396.384 627.98,396.339C627.986,396.294 627.994,396.248 628.003,396.203L628.22,395.101C628.222,395.092 628.227,395.084 628.233,395.076C628.24,395.068 628.25,395.062 628.264,395.056C628.277,395.051 628.295,395.048 628.316,395.046C628.338,395.044 628.364,395.043 628.395,395.043C628.427,395.043 628.452,395.044 628.473,395.046C628.493,395.048 628.508,395.051 628.519,395.056C628.53,395.062 628.538,395.068 628.541,395.076C628.544,395.084 628.545,395.092 628.544,395.101L628.329,396.191C628.321,396.225 628.315,396.26 628.311,396.297C628.307,396.333 628.306,396.37 628.306,396.408C628.306,396.447 628.309,396.483 628.316,396.514C628.323,396.546 628.336,396.574 628.353,396.597C628.371,396.621 628.394,396.639 628.422,396.652C628.45,396.665 628.484,396.672 628.524,396.672C628.593,396.672 628.664,396.652 628.736,396.612C628.808,396.572 628.876,396.517 628.938,396.447C629.001,396.377 629.057,396.293 629.105,396.196C629.154,396.099 629.19,395.993 629.214,395.879L629.368,395.101C629.369,395.092 629.374,395.084 629.381,395.076C629.388,395.068 629.398,395.062 629.412,395.056C629.426,395.051 629.443,395.048 629.465,395.046C629.486,395.044 629.513,395.043 629.544,395.043C629.575,395.043 629.601,395.044 629.621,395.046C629.641,395.048 629.657,395.051 629.668,395.056C629.679,395.062 629.686,395.068 629.689,395.076C629.693,395.084 629.694,395.092 629.692,395.101L629.339,396.861ZM631.477,395.258C631.477,395.281 631.475,395.305 631.471,395.33C631.466,395.355 631.459,395.378 631.45,395.399C631.441,395.421 631.43,395.439 631.418,395.453C631.405,395.467 631.391,395.474 631.376,395.474C631.358,395.474 631.339,395.465 631.319,395.446C631.3,395.427 631.274,395.406 631.242,395.383C631.21,395.359 631.17,395.338 631.121,395.318C631.072,395.299 631.01,395.289 630.934,395.289C630.851,395.289 630.777,395.306 630.713,395.341C630.648,395.375 630.592,395.42 630.545,395.475C630.497,395.531 630.458,395.594 630.427,395.664C630.395,395.734 630.37,395.805 630.35,395.877C630.331,395.948 630.317,396.018 630.308,396.085C630.3,396.152 630.296,396.21 630.296,396.26C630.296,396.394 630.325,396.495 630.384,396.564C630.442,396.633 630.53,396.668 630.645,396.668C630.73,396.668 630.803,396.657 630.863,396.637C630.924,396.616 630.975,396.592 631.017,396.565C631.06,396.539 631.095,396.515 631.122,396.494C631.149,396.473 631.173,396.463 631.194,396.463C631.205,396.463 631.213,396.468 631.219,396.477C631.224,396.487 631.227,396.501 631.227,396.519C631.227,396.535 631.226,396.554 631.224,396.575C631.221,396.596 631.217,396.619 631.211,396.641C631.205,396.664 631.198,396.685 631.189,396.705C631.181,396.724 631.169,396.742 631.153,396.759C631.138,396.775 631.11,396.795 631.071,396.818C631.032,396.842 630.987,396.863 630.935,396.882C630.884,396.901 630.828,396.916 630.768,396.929C630.709,396.941 630.647,396.947 630.583,396.947C630.373,396.947 630.217,396.894 630.113,396.787C630.01,396.68 629.958,396.521 629.958,396.31C629.958,396.231 629.965,396.144 629.978,396.05C629.992,395.955 630.015,395.86 630.048,395.764C630.08,395.669 630.122,395.576 630.173,395.486C630.224,395.396 630.286,395.317 630.36,395.247C630.434,395.177 630.52,395.122 630.618,395.08C630.716,395.038 630.828,395.017 630.954,395.017C631.006,395.017 631.056,395.022 631.104,395.03C631.153,395.039 631.198,395.05 631.24,395.064C631.282,395.079 631.321,395.096 631.355,395.118C631.39,395.139 631.417,395.159 631.435,395.176C631.454,395.193 631.466,395.207 631.471,395.219C631.475,395.23 631.477,395.243 631.477,395.258ZM632.858,395.123C632.858,395.135 632.858,395.147 632.856,395.161C632.855,395.175 632.852,395.189 632.849,395.203C632.845,395.217 632.839,395.232 632.833,395.246C632.826,395.26 632.82,395.273 632.812,395.284C632.805,395.295 632.797,395.304 632.788,395.31C632.779,395.317 632.768,395.32 632.757,395.32L632.307,395.32L632.11,396.301C632.105,396.328 632.1,396.359 632.097,396.392C632.093,396.426 632.091,396.454 632.091,396.476C632.091,396.543 632.105,396.591 632.133,396.622C632.161,396.652 632.206,396.668 632.268,396.668C632.304,396.668 632.334,396.665 632.36,396.659C632.386,396.653 632.409,396.647 632.428,396.64C632.446,396.634 632.463,396.628 632.477,396.622C632.492,396.616 632.504,396.613 632.515,396.613C632.525,396.613 632.533,396.617 632.539,396.624C632.545,396.631 632.548,396.644 632.548,396.664C632.548,396.681 632.546,396.699 632.543,396.72C632.54,396.74 632.535,396.76 632.53,396.779C632.525,396.799 632.518,396.816 632.511,396.832C632.503,396.847 632.494,396.86 632.485,396.869C632.475,396.878 632.459,396.887 632.438,396.896C632.418,396.905 632.393,396.914 632.366,396.921C632.339,396.928 632.31,396.933 632.279,396.937C632.249,396.941 632.218,396.943 632.188,396.943C632.115,396.943 632.052,396.935 631.999,396.92C631.946,396.904 631.901,396.88 631.864,396.846C631.828,396.813 631.801,396.772 631.783,396.721C631.766,396.671 631.757,396.611 631.757,396.541C631.757,396.525 631.757,396.508 631.759,396.489C631.76,396.47 631.762,396.45 631.766,396.429L631.775,396.367C631.779,396.346 631.782,396.327 631.786,396.308L631.983,395.32L631.739,395.32C631.725,395.32 631.714,395.316 631.706,395.307C631.698,395.299 631.694,395.282 631.694,395.258C631.694,395.239 631.696,395.218 631.7,395.194C631.704,395.17 631.71,395.148 631.718,395.127C631.725,395.106 631.736,395.088 631.748,395.074C631.76,395.06 631.775,395.053 631.792,395.053L632.038,395.053L632.122,394.635C632.123,394.625 632.127,394.617 632.135,394.609C632.142,394.601 632.152,394.595 632.165,394.589C632.178,394.583 632.195,394.579 632.217,394.576C632.238,394.573 632.265,394.572 632.296,394.572C632.327,394.572 632.353,394.573 632.373,394.576C632.393,394.579 632.409,394.583 632.42,394.589C632.431,394.595 632.438,394.601 632.441,394.609C632.445,394.617 632.446,394.625 632.444,394.635L632.36,395.053L632.809,395.053C632.829,395.053 632.842,395.06 632.849,395.074C632.855,395.088 632.858,395.105 632.858,395.123ZM619.436,399.334C619.436,399.342 619.436,399.352 619.435,399.366C619.435,399.38 619.433,399.394 619.43,399.41C619.426,399.426 619.422,399.442 619.417,399.46C619.412,399.477 619.405,399.493 619.397,399.506C619.39,399.519 619.38,399.529 619.369,399.538C619.358,399.546 619.346,399.551 619.333,399.551L618.622,399.551L618.182,401.742C618.18,401.752 618.175,401.762 618.168,401.769C618.161,401.777 618.15,401.783 618.137,401.788C618.123,401.792 618.105,401.796 618.083,401.8C618.061,401.803 618.033,401.804 618.001,401.804C617.968,401.804 617.942,401.803 617.921,401.8C617.9,401.796 617.884,401.792 617.872,401.788C617.86,401.783 617.852,401.777 617.849,401.769C617.845,401.762 617.844,401.752 617.847,401.742L618.284,399.551L617.577,399.551C617.559,399.551 617.546,399.545 617.54,399.533C617.533,399.521 617.53,399.505 617.53,399.484C617.53,399.475 617.531,399.464 617.533,399.45C617.535,399.436 617.538,399.421 617.541,399.404C617.544,399.387 617.548,399.371 617.554,399.355C617.559,399.34 617.565,399.325 617.573,399.311C617.581,399.298 617.59,399.287 617.599,399.278C617.609,399.27 617.621,399.265 617.634,399.265L619.391,399.265C619.408,399.265 619.42,399.272 619.427,399.284C619.433,399.296 619.436,399.313 619.436,399.334ZM620.116,399.394C620.11,399.431 620.101,399.461 620.09,399.486C620.079,399.511 620.064,399.531 620.046,399.546C620.028,399.561 620.005,399.571 619.977,399.578C619.95,399.584 619.917,399.588 619.878,399.588C619.84,399.588 619.809,399.584 619.784,399.578C619.759,399.571 619.741,399.561 619.729,399.546C619.718,399.531 619.711,399.511 619.71,399.486C619.709,399.461 619.711,399.431 619.718,399.394C619.725,399.358 619.735,399.328 619.747,399.304C619.759,399.279 619.773,399.259 619.791,399.243C619.808,399.227 619.831,399.216 619.858,399.21C619.886,399.204 619.919,399.201 619.958,399.201C619.996,399.201 620.027,399.204 620.051,399.21C620.075,399.216 620.093,399.227 620.105,399.243C620.118,399.259 620.125,399.279 620.126,399.304C620.127,399.328 620.124,399.358 620.116,399.394ZM619.61,401.744C619.608,401.754 619.603,401.763 619.597,401.77C619.59,401.777 619.58,401.784 619.567,401.789C619.554,401.794 619.537,401.798 619.516,401.801C619.494,401.803 619.468,401.804 619.436,401.804C619.404,401.804 619.377,401.803 619.357,401.801C619.337,401.798 619.321,401.794 619.31,401.789C619.299,401.784 619.292,401.777 619.289,401.77C619.286,401.763 619.285,401.754 619.288,401.744L619.638,399.986C619.639,399.977 619.643,399.969 619.649,399.961C619.656,399.953 619.666,399.946 619.679,399.941C619.692,399.936 619.709,399.932 619.73,399.929C619.752,399.927 619.779,399.926 619.811,399.926C619.843,399.926 619.868,399.927 619.889,399.929C619.909,399.932 619.924,399.936 619.935,399.941C619.946,399.946 619.954,399.953 619.957,399.961C619.96,399.969 619.961,399.977 619.96,399.986L619.61,401.744ZM622.78,401.744C622.779,401.754 622.775,401.763 622.768,401.77C622.762,401.777 622.752,401.784 622.738,401.789C622.724,401.794 622.707,401.798 622.685,401.801C622.664,401.803 622.638,401.804 622.606,401.804C622.575,401.804 622.549,401.803 622.529,401.801C622.509,401.798 622.493,401.794 622.482,401.789C622.471,401.784 622.464,401.777 622.46,401.77C622.456,401.763 622.455,401.754 622.458,401.744L622.675,400.658C622.681,400.62 622.687,400.584 622.691,400.551C622.696,400.517 622.698,400.483 622.698,400.449C622.698,400.366 622.682,400.299 622.65,400.25C622.618,400.2 622.563,400.176 622.483,400.176C622.418,400.176 622.351,400.195 622.281,400.235C622.211,400.275 622.145,400.33 622.083,400.399C622.02,400.469 621.965,400.552 621.917,400.647C621.869,400.743 621.834,400.847 621.811,400.959L621.655,401.744C621.653,401.754 621.648,401.763 621.641,401.77C621.635,401.777 621.625,401.784 621.611,401.789C621.598,401.794 621.58,401.798 621.558,401.801C621.537,401.803 621.511,401.804 621.479,401.804C621.448,401.804 621.422,401.803 621.402,401.801C621.382,401.798 621.367,401.794 621.356,401.789C621.346,401.784 621.339,401.777 621.335,401.77C621.331,401.763 621.33,401.754 621.331,401.744L621.548,400.658C621.557,400.619 621.563,400.581 621.566,400.543C621.57,400.505 621.571,400.47 621.571,400.437C621.571,400.358 621.555,400.294 621.522,400.247C621.49,400.199 621.434,400.176 621.356,400.176C621.29,400.176 621.222,400.195 621.153,400.235C621.084,400.275 621.018,400.33 620.956,400.399C620.893,400.469 620.838,400.552 620.79,400.647C620.742,400.743 620.707,400.847 620.684,400.959L620.528,401.744C620.526,401.754 620.521,401.763 620.515,401.77C620.508,401.777 620.498,401.784 620.485,401.789C620.472,401.794 620.455,401.798 620.433,401.801C620.412,401.803 620.386,401.804 620.354,401.804C620.322,401.804 620.295,401.803 620.275,401.801C620.255,401.798 620.239,401.794 620.228,401.789C620.217,401.784 620.21,401.777 620.207,401.77C620.204,401.763 620.203,401.754 620.206,401.744L620.559,399.984C620.561,399.975 620.564,399.967 620.57,399.959C620.576,399.951 620.585,399.944 620.598,399.939C620.61,399.934 620.626,399.93 620.644,399.929C620.663,399.927 620.686,399.926 620.712,399.926C620.739,399.926 620.762,399.927 620.779,399.929C620.797,399.93 620.81,399.934 620.82,399.939C620.83,399.944 620.836,399.951 620.839,399.959C620.841,399.967 620.842,399.975 620.841,399.984L620.774,400.32C620.794,400.276 620.826,400.229 620.871,400.179C620.916,400.13 620.968,400.084 621.028,400.043C621.088,400.001 621.154,399.967 621.224,399.939C621.295,399.912 621.368,399.898 621.442,399.898C621.52,399.898 621.587,399.909 621.643,399.93C621.699,399.952 621.745,399.981 621.781,400.018C621.817,400.055 621.843,400.1 621.86,400.151C621.877,400.203 621.888,400.259 621.891,400.32C621.918,400.275 621.953,400.227 621.999,400.178C622.044,400.128 622.097,400.083 622.157,400.042C622.217,400.001 622.282,399.967 622.352,399.939C622.423,399.912 622.494,399.898 622.567,399.898C622.655,399.898 622.727,399.911 622.786,399.935C622.845,399.96 622.892,399.994 622.929,400.037C622.965,400.08 622.991,400.13 623.007,400.187C623.022,400.245 623.03,400.307 623.03,400.375C623.03,400.42 623.028,400.465 623.022,400.51C623.017,400.554 623.01,400.599 623.001,400.646L622.78,401.744ZM626.645,399.541C626.645,399.55 626.644,399.561 626.642,399.575C626.641,399.589 626.638,399.603 626.635,399.618C626.631,399.633 626.627,399.649 626.622,399.665C626.617,399.681 626.611,399.695 626.604,399.708C626.598,399.72 626.591,399.73 626.583,399.737C626.575,399.744 626.567,399.748 626.557,399.748C626.538,399.748 626.512,399.736 626.478,399.713C626.445,399.689 626.401,399.663 626.346,399.634C626.29,399.604 626.223,399.578 626.143,399.554C626.064,399.529 625.969,399.517 625.858,399.517C625.742,399.517 625.634,399.535 625.533,399.569C625.432,399.604 625.339,399.651 625.255,399.712C625.17,399.772 625.095,399.844 625.028,399.927C624.962,400.009 624.905,400.099 624.859,400.196C624.813,400.293 624.778,400.395 624.754,400.502C624.73,400.609 624.718,400.717 624.718,400.826C624.718,400.941 624.734,401.042 624.767,401.13C624.801,401.218 624.849,401.291 624.911,401.351C624.974,401.411 625.049,401.456 625.138,401.487C625.226,401.518 625.325,401.533 625.434,401.533C625.515,401.533 625.599,401.524 625.687,401.505C625.775,401.486 625.857,401.457 625.932,401.418L626.079,400.685L625.495,400.685C625.479,400.685 625.467,400.68 625.459,400.669C625.45,400.658 625.446,400.642 625.446,400.621C625.446,400.612 625.447,400.6 625.449,400.585C625.451,400.57 625.454,400.554 625.457,400.539C625.46,400.523 625.465,400.508 625.471,400.492C625.476,400.476 625.483,400.462 625.491,400.45C625.499,400.438 625.508,400.428 625.517,400.421C625.527,400.414 625.538,400.41 625.55,400.41L626.352,400.41C626.389,400.41 626.415,400.422 626.432,400.447C626.448,400.472 626.451,400.505 626.442,400.547L626.247,401.519C626.242,401.544 626.235,401.564 626.226,401.579C626.218,401.594 626.209,401.607 626.198,401.619C626.186,401.631 626.157,401.648 626.109,401.671C626.062,401.693 626.002,401.717 625.93,401.74C625.857,401.763 625.776,401.784 625.685,401.802C625.595,401.819 625.5,401.828 625.401,401.828C625.232,401.828 625.083,401.806 624.954,401.762C624.825,401.719 624.717,401.655 624.63,401.572C624.543,401.489 624.476,401.388 624.431,401.269C624.385,401.151 624.362,401.017 624.362,400.867C624.362,400.728 624.378,400.591 624.41,400.456C624.442,400.321 624.488,400.193 624.548,400.072C624.608,399.951 624.682,399.839 624.769,399.736C624.857,399.633 624.958,399.545 625.072,399.47C625.186,399.396 625.311,399.338 625.448,399.295C625.585,399.252 625.733,399.23 625.891,399.23C625.983,399.23 626.068,399.238 626.147,399.255C626.227,399.271 626.298,399.29 626.36,399.313C626.423,399.336 626.475,399.361 626.518,399.388C626.561,399.416 626.591,399.437 626.606,399.451C626.622,399.465 626.632,399.479 626.638,399.492C626.643,399.505 626.645,399.521 626.645,399.541ZM628.579,400.568C628.579,400.665 628.57,400.763 628.552,400.863C628.533,400.963 628.506,401.06 628.469,401.153C628.432,401.246 628.384,401.334 628.327,401.416C628.27,401.498 628.202,401.569 628.125,401.631C628.047,401.692 627.96,401.74 627.861,401.776C627.763,401.812 627.653,401.83 627.532,401.83C627.407,401.83 627.3,401.815 627.211,401.785C627.122,401.755 627.048,401.711 626.991,401.654C626.934,401.597 626.891,401.526 626.864,401.443C626.837,401.36 626.823,401.265 626.823,401.16C626.823,401.064 626.832,400.965 626.849,400.865C626.867,400.765 626.895,400.668 626.932,400.576C626.97,400.484 627.017,400.396 627.074,400.313C627.131,400.231 627.198,400.159 627.275,400.097C627.353,400.036 627.441,399.988 627.539,399.952C627.637,399.916 627.747,399.898 627.868,399.898C627.993,399.898 628.1,399.914 628.189,399.944C628.279,399.975 628.352,400.019 628.41,400.076C628.468,400.133 628.511,400.204 628.538,400.287C628.565,400.37 628.579,400.464 628.579,400.568ZM628.239,400.588C628.239,400.523 628.232,400.464 628.219,400.412C628.205,400.36 628.182,400.316 628.15,400.28C628.118,400.244 628.077,400.217 628.025,400.197C627.974,400.178 627.912,400.168 627.839,400.168C627.761,400.168 627.69,400.182 627.626,400.21C627.562,400.238 627.505,400.276 627.455,400.323C627.405,400.371 627.361,400.426 627.324,400.49C627.287,400.554 627.256,400.622 627.232,400.694C627.208,400.766 627.19,400.841 627.179,400.917C627.167,400.993 627.161,401.068 627.161,401.14C627.161,401.206 627.168,401.264 627.182,401.316C627.197,401.368 627.22,401.413 627.252,401.449C627.284,401.485 627.325,401.513 627.376,401.533C627.427,401.553 627.488,401.562 627.561,401.562C627.641,401.562 627.712,401.548 627.775,401.52C627.838,401.492 627.895,401.454 627.945,401.406C627.995,401.358 628.039,401.302 628.076,401.238C628.113,401.174 628.144,401.106 628.168,401.033C628.192,400.96 628.21,400.886 628.222,400.81C628.233,400.735 628.239,400.661 628.239,400.588ZM629.173,401.744C629.17,401.754 629.166,401.763 629.159,401.77C629.153,401.777 629.143,401.784 629.13,401.789C629.117,401.794 629.099,401.798 629.078,401.801C629.057,401.803 629.03,401.804 628.999,401.804C628.966,401.804 628.94,401.803 628.92,401.801C628.9,401.798 628.884,401.794 628.873,401.789C628.862,401.784 628.855,401.777 628.851,401.77C628.848,401.763 628.848,401.754 628.85,401.744L629.37,399.135C629.373,399.124 629.377,399.115 629.383,399.107C629.389,399.099 629.398,399.093 629.412,399.088C629.426,399.082 629.443,399.079 629.465,399.076C629.486,399.073 629.513,399.072 629.546,399.072C629.577,399.072 629.603,399.073 629.623,399.076C629.643,399.079 629.659,399.082 629.67,399.088C629.681,399.093 629.688,399.099 629.69,399.107C629.693,399.115 629.694,399.124 629.692,399.135L629.173,401.744ZM630.091,401.744C630.088,401.754 630.084,401.763 630.077,401.77C630.071,401.777 630.061,401.784 630.048,401.789C630.035,401.794 630.017,401.798 629.996,401.801C629.974,401.803 629.948,401.804 629.917,401.804C629.884,401.804 629.858,401.803 629.838,401.801C629.818,401.798 629.802,401.794 629.791,401.789C629.78,401.784 629.773,401.777 629.769,401.77C629.766,401.763 629.766,401.754 629.768,401.744L630.288,399.135C630.291,399.124 630.295,399.115 630.301,399.107C630.307,399.099 630.316,399.093 630.33,399.088C630.344,399.082 630.361,399.079 630.383,399.076C630.404,399.073 630.431,399.072 630.464,399.072C630.495,399.072 630.521,399.073 630.541,399.076C630.561,399.079 630.577,399.082 630.588,399.088C630.599,399.093 630.606,399.099 630.608,399.107C630.611,399.115 630.612,399.124 630.61,399.135L630.091,401.744ZM631.165,401.457C631.165,401.531 631.148,401.606 631.115,401.68C631.082,401.755 631.035,401.829 630.974,401.902L630.624,402.304C630.607,402.324 630.585,402.338 630.557,402.346C630.53,402.355 630.492,402.359 630.444,402.359C630.421,402.359 630.402,402.358 630.388,402.354C630.373,402.351 630.363,402.347 630.358,402.342C630.353,402.336 630.351,402.329 630.353,402.318C630.355,402.308 630.361,402.295 630.37,402.281L630.737,401.744L630.782,401.513C630.789,401.478 630.797,401.45 630.807,401.429C630.818,401.409 630.831,401.393 630.848,401.383C630.864,401.372 630.884,401.365 630.908,401.361C630.932,401.357 630.962,401.355 630.999,401.355C631.031,401.355 631.058,401.357 631.08,401.36C631.101,401.363 631.118,401.369 631.131,401.378C631.143,401.386 631.152,401.397 631.157,401.409C631.162,401.421 631.165,401.437 631.165,401.457ZM634.479,399.986C634.479,400.043 634.476,400.113 634.469,400.196C634.461,400.279 634.45,400.368 634.433,400.464C634.417,400.559 634.396,400.659 634.37,400.762C634.344,400.864 634.312,400.965 634.274,401.062C634.237,401.16 634.192,401.253 634.141,401.342C634.089,401.43 634.03,401.507 633.964,401.572C633.887,401.65 633.794,401.713 633.685,401.76C633.577,401.806 633.449,401.83 633.304,401.83C633.181,401.83 633.076,401.813 632.989,401.78C632.902,401.747 632.83,401.698 632.774,401.634C632.718,401.569 632.677,401.49 632.651,401.395C632.625,401.301 632.612,401.193 632.612,401.072C632.612,401.015 632.616,400.945 632.623,400.862C632.63,400.779 632.642,400.69 632.658,400.595C632.674,400.499 632.696,400.4 632.722,400.298C632.748,400.195 632.78,400.095 632.818,399.997C632.857,399.899 632.901,399.805 632.952,399.718C633.003,399.63 633.061,399.553 633.128,399.486C633.168,399.446 633.212,399.409 633.26,399.377C633.307,399.344 633.359,399.317 633.414,399.296C633.469,399.274 633.528,399.258 633.591,399.246C633.653,399.234 633.72,399.228 633.79,399.228C633.914,399.228 634.019,399.245 634.106,399.279C634.194,399.313 634.265,399.362 634.32,399.427C634.376,399.491 634.416,399.57 634.441,399.665C634.467,399.759 634.479,399.866 634.479,399.986ZM634.138,399.99C634.138,399.825 634.107,399.702 634.045,399.623C633.983,399.543 633.884,399.504 633.749,399.504C633.672,399.504 633.603,399.517 633.541,399.544C633.479,399.57 633.422,399.609 633.37,399.66C633.318,399.712 633.272,399.776 633.231,399.853C633.191,399.93 633.155,400.013 633.124,400.102C633.093,400.192 633.067,400.283 633.046,400.378C633.025,400.472 633.008,400.563 632.994,400.651C632.98,400.739 632.97,400.819 632.964,400.891C632.957,400.964 632.954,401.023 632.954,401.068C632.954,401.234 632.985,401.356 633.048,401.435C633.11,401.515 633.209,401.554 633.343,401.554C633.421,401.554 633.491,401.541 633.553,401.514C633.614,401.488 633.671,401.449 633.722,401.398C633.772,401.347 633.818,401.283 633.859,401.206C633.9,401.128 633.936,401.045 633.968,400.956C633.999,400.867 634.025,400.775 634.047,400.68C634.068,400.586 634.086,400.495 634.099,400.408C634.113,400.321 634.123,400.241 634.129,400.168C634.135,400.095 634.138,400.036 634.138,399.99ZM636.632,399.338C636.632,399.353 636.63,399.373 636.627,399.395C636.624,399.418 636.619,399.443 636.613,399.469C636.607,399.495 636.599,399.522 636.587,399.55C636.575,399.578 636.561,399.605 636.544,399.631L635.214,401.726C635.203,401.743 635.192,401.757 635.18,401.766C635.167,401.776 635.152,401.784 635.135,401.79C635.117,401.796 635.096,401.8 635.072,401.802C635.048,401.804 635.019,401.804 634.985,401.804C634.941,401.804 634.906,401.803 634.882,401.799C634.857,401.795 634.839,401.788 634.829,401.779C634.819,401.77 634.815,401.76 634.817,401.748C634.82,401.736 634.826,401.722 634.837,401.705L636.222,399.56L635.018,399.56C635,399.56 634.987,399.554 634.978,399.541C634.97,399.528 634.966,399.51 634.966,399.488C634.966,399.48 634.966,399.469 634.968,399.454C634.969,399.439 634.972,399.423 634.975,399.407C634.979,399.391 634.984,399.374 634.99,399.357C634.996,399.34 635.003,399.325 635.012,399.311C635.02,399.298 635.03,399.287 635.041,399.278C635.052,399.27 635.065,399.265 635.079,399.265L636.552,399.265C636.587,399.265 636.609,399.272 636.618,399.286C636.627,399.3 636.632,399.317 636.632,399.338ZM636.581,402.263C636.572,402.28 636.562,402.294 636.551,402.304C636.54,402.313 636.526,402.321 636.511,402.326C636.495,402.331 636.477,402.335 636.457,402.338C636.437,402.34 636.413,402.342 636.386,402.342C636.35,402.342 636.322,402.339 636.3,402.335C636.278,402.33 636.262,402.324 636.252,402.315C636.242,402.307 636.238,402.296 636.238,402.284C636.239,402.272 636.244,402.257 636.255,402.24L638.085,399C638.094,398.983 638.104,398.97 638.115,398.96C638.126,398.95 638.139,398.942 638.154,398.936C638.169,398.93 638.187,398.927 638.208,398.925C638.229,398.923 638.253,398.922 638.28,398.922C638.314,398.922 638.342,398.924 638.364,398.929C638.386,398.933 638.402,398.939 638.412,398.947C638.422,398.955 638.427,398.965 638.427,398.978C638.427,398.991 638.422,399.006 638.413,399.023L636.581,402.263ZM639.727,401.588C639.727,401.595 639.726,401.607 639.724,401.621C639.723,401.635 639.72,401.65 639.716,401.665C639.712,401.68 639.707,401.695 639.701,401.711C639.695,401.726 639.688,401.74 639.68,401.752C639.671,401.763 639.662,401.773 639.651,401.781C639.641,401.789 639.629,401.793 639.616,401.793L638.22,401.793C638.203,401.793 638.188,401.791 638.177,401.787C638.165,401.783 638.156,401.777 638.149,401.77C638.143,401.763 638.138,401.755 638.135,401.745C638.131,401.735 638.13,401.724 638.13,401.711C638.13,401.698 638.131,401.681 638.133,401.66C638.135,401.639 638.14,401.616 638.147,401.592C638.155,401.567 638.167,401.542 638.182,401.516C638.198,401.491 638.22,401.467 638.247,401.443L638.897,400.873C638.999,400.784 639.086,400.701 639.16,400.624C639.234,400.546 639.295,400.474 639.346,400.407C639.396,400.34 639.436,400.278 639.466,400.221C639.496,400.165 639.519,400.113 639.536,400.066C639.553,400.019 639.564,399.977 639.569,399.938C639.574,399.9 639.577,399.866 639.577,399.836C639.577,399.804 639.572,399.771 639.562,399.735C639.553,399.699 639.536,399.666 639.512,399.635C639.488,399.603 639.453,399.577 639.409,399.556C639.365,399.536 639.309,399.525 639.241,399.525C639.167,399.525 639.096,399.536 639.028,399.558C638.96,399.581 638.899,399.605 638.845,399.632C638.79,399.658 638.744,399.683 638.707,399.706C638.67,399.729 638.644,399.74 638.63,399.74C638.617,399.74 638.606,399.734 638.599,399.72C638.591,399.707 638.587,399.689 638.587,399.664C638.587,399.653 638.588,399.642 638.59,399.63C638.592,399.617 638.594,399.604 638.596,399.59C638.598,399.575 638.601,399.561 638.605,399.547C638.61,399.532 638.615,399.519 638.621,399.506C638.627,399.493 638.633,399.48 638.641,399.468C638.648,399.455 638.656,399.444 638.665,399.435C638.679,399.421 638.708,399.402 638.75,399.379C638.792,399.355 638.843,399.332 638.903,399.31C638.963,399.288 639.03,399.269 639.102,399.253C639.175,399.236 639.251,399.228 639.329,399.228C639.454,399.228 639.557,399.246 639.64,399.281C639.722,399.316 639.786,399.36 639.834,399.414C639.881,399.467 639.915,399.525 639.933,399.588C639.952,399.65 639.962,399.709 639.962,399.765C639.962,399.819 639.958,399.873 639.95,399.929C639.942,399.985 639.927,400.044 639.904,400.106C639.881,400.168 639.849,400.234 639.808,400.303C639.767,400.372 639.714,400.446 639.648,400.526C639.583,400.606 639.503,400.693 639.41,400.786C639.317,400.879 639.206,400.98 639.077,401.09L638.589,401.508L639.667,401.508C639.689,401.508 639.705,401.516 639.714,401.532C639.723,401.548 639.727,401.567 639.727,401.588ZM642.112,399.986C642.112,400.043 642.109,400.113 642.101,400.196C642.094,400.279 642.083,400.368 642.066,400.464C642.05,400.559 642.029,400.659 642.003,400.762C641.977,400.864 641.945,400.965 641.907,401.062C641.869,401.16 641.825,401.253 641.773,401.342C641.722,401.43 641.663,401.507 641.597,401.572C641.52,401.65 641.427,401.713 641.318,401.76C641.21,401.806 641.082,401.83 640.936,401.83C640.814,401.83 640.709,401.813 640.622,401.78C640.535,401.747 640.463,401.698 640.407,401.634C640.351,401.569 640.31,401.49 640.284,401.395C640.258,401.301 640.245,401.193 640.245,401.072C640.245,401.015 640.249,400.945 640.256,400.862C640.263,400.779 640.275,400.69 640.291,400.595C640.307,400.499 640.328,400.4 640.354,400.298C640.38,400.195 640.413,400.095 640.451,399.997C640.489,399.899 640.534,399.805 640.585,399.718C640.636,399.63 640.694,399.553 640.761,399.486C640.801,399.446 640.845,399.409 640.892,399.377C640.94,399.344 640.991,399.317 641.047,399.296C641.102,399.274 641.161,399.258 641.224,399.246C641.286,399.234 641.352,399.228 641.423,399.228C641.546,399.228 641.652,399.245 641.739,399.279C641.826,399.313 641.898,399.362 641.953,399.427C642.008,399.491 642.049,399.57 642.074,399.665C642.099,399.759 642.112,399.866 642.112,399.986ZM641.77,399.99C641.77,399.825 641.739,399.702 641.678,399.623C641.616,399.543 641.517,399.504 641.382,399.504C641.305,399.504 641.236,399.517 641.174,399.544C641.112,399.57 641.055,399.609 641.003,399.66C640.951,399.712 640.905,399.776 640.864,399.853C640.824,399.93 640.788,400.013 640.757,400.102C640.725,400.192 640.699,400.283 640.679,400.378C640.658,400.472 640.641,400.563 640.627,400.651C640.613,400.739 640.603,400.819 640.597,400.891C640.59,400.964 640.587,401.023 640.587,401.068C640.587,401.234 640.618,401.356 640.681,401.435C640.743,401.515 640.841,401.554 640.975,401.554C641.054,401.554 641.124,401.541 641.185,401.514C641.247,401.488 641.304,401.449 641.354,401.398C641.405,401.347 641.451,401.283 641.492,401.206C641.533,401.128 641.569,401.045 641.6,400.956C641.632,400.867 641.658,400.775 641.68,400.68C641.701,400.586 641.719,400.495 641.732,400.408C641.746,400.321 641.756,400.241 641.762,400.168C641.767,400.095 641.77,400.036 641.77,399.99ZM643.782,401.588C643.782,401.595 643.781,401.607 643.779,401.621C643.777,401.635 643.774,401.65 643.77,401.665C643.766,401.68 643.762,401.695 643.756,401.711C643.75,401.726 643.743,401.74 643.734,401.752C643.726,401.763 643.716,401.773 643.706,401.781C643.696,401.789 643.684,401.793 643.671,401.793L642.274,401.793C642.257,401.793 642.243,401.791 642.231,401.787C642.22,401.783 642.21,401.777 642.204,401.77C642.197,401.763 642.193,401.755 642.189,401.745C642.186,401.735 642.184,401.724 642.184,401.711C642.184,401.698 642.185,401.681 642.187,401.66C642.189,401.639 642.194,401.616 642.202,401.592C642.21,401.567 642.222,401.542 642.237,401.516C642.253,401.491 642.274,401.467 642.302,401.443L642.952,400.873C643.054,400.784 643.141,400.701 643.215,400.624C643.288,400.546 643.35,400.474 643.4,400.407C643.45,400.34 643.49,400.278 643.52,400.221C643.55,400.165 643.574,400.113 643.591,400.066C643.608,400.019 643.619,399.977 643.624,399.938C643.629,399.9 643.632,399.866 643.632,399.836C643.632,399.804 643.627,399.771 643.617,399.735C643.607,399.699 643.59,399.666 643.566,399.635C643.542,399.603 643.508,399.577 643.464,399.556C643.419,399.536 643.363,399.525 643.296,399.525C643.222,399.525 643.151,399.536 643.083,399.558C643.015,399.581 642.954,399.605 642.899,399.632C642.845,399.658 642.799,399.683 642.762,399.706C642.724,399.729 642.699,399.74 642.684,399.74C642.671,399.74 642.661,399.734 642.653,399.72C642.645,399.707 642.641,399.689 642.641,399.664C642.641,399.653 642.642,399.642 642.644,399.63C642.646,399.617 642.648,399.604 642.65,399.59C642.652,399.575 642.655,399.561 642.66,399.547C642.665,399.532 642.67,399.519 642.676,399.506C642.682,399.493 642.688,399.48 642.695,399.468C642.702,399.455 642.71,399.444 642.72,399.435C642.734,399.421 642.762,399.402 642.805,399.379C642.847,399.355 642.898,399.332 642.958,399.31C643.018,399.288 643.084,399.269 643.157,399.253C643.23,399.236 643.306,399.228 643.384,399.228C643.509,399.228 643.612,399.246 643.694,399.281C643.776,399.316 643.841,399.36 643.889,399.414C643.936,399.467 643.969,399.525 643.988,399.588C644.007,399.65 644.016,399.709 644.016,399.765C644.016,399.819 644.013,399.873 644.005,399.929C643.997,399.985 643.982,400.044 643.959,400.106C643.936,400.168 643.904,400.234 643.863,400.303C643.822,400.372 643.769,400.446 643.703,400.526C643.637,400.606 643.558,400.693 643.465,400.786C643.372,400.879 643.261,400.98 643.132,401.09L642.643,401.508L643.722,401.508C643.744,401.508 643.759,401.516 643.768,401.532C643.778,401.548 643.782,401.567 643.782,401.588ZM645.899,400.986C645.899,401.05 645.891,401.115 645.875,401.181C645.859,401.248 645.833,401.312 645.798,401.375C645.763,401.437 645.718,401.496 645.664,401.552C645.61,401.607 645.545,401.655 645.469,401.696C645.392,401.737 645.306,401.77 645.208,401.794C645.11,401.818 645,401.83 644.876,401.83C644.811,401.83 644.749,401.826 644.691,401.818C644.633,401.81 644.579,401.8 644.527,401.786C644.476,401.772 644.429,401.756 644.387,401.737C644.344,401.718 644.306,401.698 644.272,401.676C644.253,401.664 644.239,401.65 644.23,401.634C644.222,401.617 644.218,401.599 644.218,401.578C644.218,401.57 644.218,401.559 644.22,401.546C644.221,401.532 644.223,401.517 644.225,401.502C644.228,401.486 644.231,401.47 644.235,401.452C644.239,401.434 644.244,401.419 644.25,401.405C644.256,401.391 644.263,401.38 644.271,401.372C644.28,401.363 644.289,401.359 644.3,401.359C644.311,401.359 644.333,401.369 644.363,401.389C644.394,401.41 644.434,401.432 644.483,401.456C644.533,401.48 644.591,401.502 644.658,401.522C644.725,401.542 644.802,401.553 644.89,401.553C644.999,401.553 645.094,401.536 645.174,401.502C645.254,401.468 645.32,401.425 645.372,401.372C645.424,401.319 645.463,401.261 645.488,401.196C645.514,401.132 645.526,401.068 645.526,401.004C645.526,400.952 645.517,400.903 645.498,400.857C645.479,400.812 645.449,400.772 645.408,400.739C645.367,400.706 645.314,400.679 645.248,400.66C645.182,400.64 645.103,400.631 645.011,400.631L644.739,400.631C644.718,400.631 644.702,400.625 644.691,400.614C644.68,400.603 644.675,400.585 644.675,400.56C644.675,400.551 644.676,400.54 644.678,400.525C644.68,400.511 644.682,400.497 644.686,400.483C644.69,400.47 644.695,400.456 644.701,400.441C644.707,400.427 644.714,400.414 644.723,400.402C644.731,400.39 644.74,400.381 644.751,400.375C644.761,400.368 644.774,400.365 644.788,400.365L645.009,400.365C645.105,400.365 645.194,400.35 645.274,400.321C645.355,400.292 645.424,400.251 645.482,400.2C645.54,400.149 645.585,400.089 645.618,400.021C645.651,399.954 645.667,399.881 645.667,399.804C645.667,399.712 645.641,399.639 645.588,399.586C645.535,399.532 645.447,399.506 645.325,399.506C645.251,399.506 645.18,399.517 645.112,399.54C645.044,399.563 644.983,399.587 644.929,399.614C644.874,399.641 644.827,399.666 644.789,399.689C644.751,399.713 644.724,399.724 644.708,399.724C644.696,399.724 644.687,399.719 644.681,399.708C644.674,399.697 644.671,399.681 644.671,399.662C644.671,399.651 644.672,399.637 644.675,399.617C644.677,399.597 644.682,399.577 644.687,399.554C644.693,399.532 644.701,399.511 644.711,399.49C644.721,399.469 644.732,399.452 644.745,399.439C644.759,399.425 644.787,399.406 644.829,399.382C644.871,399.358 644.921,399.334 644.981,399.311C645.041,399.289 645.109,399.269 645.183,399.253C645.258,399.236 645.335,399.228 645.415,399.228C645.518,399.228 645.608,399.24 645.685,399.264C645.763,399.289 645.827,399.323 645.878,399.368C645.929,399.413 645.967,399.468 645.992,399.532C646.017,399.596 646.03,399.668 646.03,399.748C646.03,399.839 646.016,399.925 645.986,400.005C645.957,400.085 645.915,400.156 645.861,400.219C645.807,400.281 645.743,400.335 645.669,400.38C645.595,400.425 645.513,400.457 645.425,400.476L645.425,400.48C645.511,400.489 645.584,400.51 645.644,400.542C645.705,400.574 645.754,400.613 645.792,400.659C645.83,400.705 645.857,400.757 645.874,400.813C645.891,400.87 645.899,400.928 645.899,400.986ZM643.436,395.088C643.436,395.101 643.434,395.114 643.43,395.128C643.427,395.141 643.422,395.155 643.417,395.17C643.369,395.312 643.314,395.455 643.254,395.6C643.193,395.746 643.126,395.89 643.053,396.034C642.979,396.178 642.898,396.319 642.81,396.458C642.722,396.596 642.626,396.73 642.522,396.859C642.513,396.873 642.503,396.885 642.491,396.892C642.479,396.9 642.465,396.906 642.449,396.911C642.433,396.915 642.414,396.918 642.393,396.92C642.373,396.921 642.348,396.922 642.319,396.922C642.279,396.922 642.246,396.92 642.221,396.918C642.197,396.915 642.178,396.911 642.164,396.906C642.15,396.901 642.14,396.894 642.135,396.885C642.129,396.875 642.125,396.864 642.124,396.851L641.864,395.185C641.863,395.171 641.862,395.158 641.861,395.147C641.86,395.136 641.86,395.126 641.86,395.117C641.86,395.1 641.863,395.087 641.868,395.078C641.873,395.069 641.882,395.062 641.893,395.056C641.905,395.051 641.921,395.048 641.941,395.046C641.961,395.044 641.988,395.043 642.022,395.043C642.056,395.043 642.083,395.044 642.104,395.046C642.125,395.048 642.141,395.051 642.152,395.055C642.163,395.06 642.171,395.067 642.175,395.075C642.178,395.083 642.181,395.094 642.182,395.105L642.393,396.554L642.393,396.578L642.403,396.566C642.48,396.45 642.55,396.338 642.614,396.229C642.678,396.121 642.737,396.008 642.792,395.892C642.846,395.776 642.898,395.655 642.947,395.527C642.996,395.4 643.046,395.259 643.096,395.105C643.1,395.094 643.106,395.083 643.113,395.075C643.12,395.067 643.131,395.06 643.144,395.055C643.158,395.051 643.176,395.048 643.199,395.046C643.222,395.044 643.25,395.043 643.284,395.043C643.315,395.043 643.341,395.044 643.36,395.046C643.38,395.048 643.395,395.05 643.406,395.054C643.417,395.057 643.425,395.061 643.429,395.067C643.434,395.073 643.436,395.08 643.436,395.088ZM645.061,396.705C645.061,396.713 645.06,396.724 645.058,396.738C645.056,396.752 645.053,396.767 645.05,396.782C645.046,396.797 645.041,396.812 645.035,396.828C645.029,396.844 645.022,396.857 645.013,396.869C645.005,396.881 644.996,396.89 644.985,396.898C644.975,396.906 644.963,396.91 644.95,396.91L643.553,396.91C643.537,396.91 643.522,396.908 643.511,396.904C643.499,396.9 643.49,396.895 643.483,396.887C643.477,396.88 643.472,396.872 643.469,396.862C643.465,396.852 643.464,396.841 643.464,396.828C643.464,396.815 643.465,396.798 643.467,396.777C643.469,396.756 643.473,396.734 643.481,396.709C643.489,396.684 643.501,396.659 643.516,396.634C643.532,396.608 643.553,396.584 643.581,396.56L644.231,395.99C644.333,395.901 644.42,395.818 644.494,395.741C644.567,395.664 644.629,395.591 644.679,395.524C644.73,395.457 644.77,395.395 644.8,395.339C644.83,395.282 644.853,395.23 644.87,395.183C644.887,395.137 644.898,395.094 644.903,395.055C644.908,395.017 644.911,394.983 644.911,394.953C644.911,394.922 644.906,394.888 644.896,394.852C644.887,394.817 644.87,394.783 644.845,394.752C644.821,394.72 644.787,394.694 644.743,394.674C644.699,394.653 644.643,394.642 644.575,394.642C644.501,394.642 644.43,394.653 644.362,394.676C644.294,394.698 644.233,394.722 644.178,394.749C644.124,394.776 644.078,394.8 644.041,394.823C644.004,394.846 643.978,394.857 643.964,394.857C643.951,394.857 643.94,394.851 643.932,394.838C643.925,394.825 643.921,394.806 643.921,394.781C643.921,394.771 643.922,394.759 643.924,394.747C643.926,394.734 643.928,394.721 643.929,394.707C643.931,394.693 643.935,394.678 643.939,394.664C643.944,394.65 643.949,394.636 643.955,394.623C643.961,394.61 643.967,394.597 643.974,394.585C643.982,394.572 643.99,394.562 643.999,394.553C644.013,394.538 644.041,394.519 644.084,394.496C644.126,394.472 644.177,394.45 644.237,394.428C644.297,394.405 644.363,394.386 644.436,394.37C644.509,394.354 644.585,394.345 644.663,394.345C644.788,394.345 644.891,394.363 644.973,394.398C645.055,394.433 645.12,394.478 645.168,394.531C645.215,394.584 645.248,394.642 645.267,394.705C645.286,394.767 645.296,394.827 645.296,394.883C645.296,394.936 645.292,394.991 645.284,395.047C645.276,395.103 645.261,395.162 645.238,395.223C645.215,395.285 645.183,395.351 645.142,395.42C645.101,395.489 645.048,395.563 644.982,395.643C644.916,395.723 644.837,395.81 644.744,395.903C644.651,395.996 644.54,396.097 644.411,396.207L643.923,396.625L645.001,396.625C645.023,396.625 645.039,396.633 645.048,396.649C645.057,396.665 645.061,396.684 645.061,396.705ZM646.011,396.611C646.011,396.629 646.009,396.651 646.006,396.676C646.002,396.7 645.998,396.726 645.991,396.752C645.984,396.778 645.976,396.802 645.967,396.824C645.957,396.846 645.944,396.865 645.928,396.881C645.913,396.896 645.891,396.908 645.862,396.916C645.833,396.924 645.797,396.928 645.753,396.928C645.716,396.928 645.686,396.925 645.663,396.92C645.639,396.915 645.621,396.906 645.608,396.893C645.595,396.881 645.586,396.866 645.581,396.848C645.576,396.831 645.573,396.811 645.573,396.789C645.573,396.768 645.575,396.745 645.578,396.72C645.581,396.694 645.586,396.669 645.594,396.644C645.601,396.62 645.609,396.596 645.619,396.575C645.629,396.554 645.641,396.535 645.656,396.52C645.671,396.505 645.692,396.494 645.719,396.485C645.745,396.477 645.783,396.472 645.833,396.472C645.871,396.472 645.901,396.476 645.924,396.482C645.946,396.489 645.964,396.498 645.977,396.511C645.99,396.523 645.999,396.538 646.004,396.554C646.008,396.571 646.011,396.59 646.011,396.611ZM648.456,395.103C648.456,395.161 648.452,395.231 648.445,395.313C648.438,395.396 648.426,395.485 648.41,395.581C648.394,395.677 648.373,395.776 648.346,395.879C648.32,395.982 648.289,396.082 648.251,396.179C648.213,396.277 648.168,396.37 648.117,396.459C648.066,396.547 648.007,396.624 647.94,396.689C647.863,396.767 647.771,396.83 647.662,396.877C647.553,396.924 647.426,396.947 647.28,396.947C647.158,396.947 647.053,396.93 646.966,396.897C646.878,396.864 646.807,396.815 646.751,396.751C646.695,396.686 646.654,396.607 646.628,396.512C646.602,396.418 646.589,396.31 646.589,396.189C646.589,396.132 646.592,396.062 646.599,395.979C646.607,395.897 646.618,395.807 646.635,395.712C646.651,395.616 646.672,395.517 646.698,395.415C646.724,395.313 646.756,395.212 646.795,395.114C646.833,395.016 646.878,394.923 646.928,394.835C646.979,394.747 647.038,394.67 647.104,394.603C647.145,394.563 647.189,394.526 647.236,394.494C647.284,394.461 647.335,394.434 647.39,394.413C647.446,394.391 647.505,394.375 647.567,394.363C647.63,394.351 647.696,394.345 647.766,394.345C647.89,394.345 647.996,394.362 648.083,394.396C648.17,394.43 648.241,394.479 648.297,394.544C648.352,394.608 648.392,394.688 648.418,394.782C648.443,394.876 648.456,394.984 648.456,395.103ZM648.114,395.107C648.114,394.942 648.083,394.819 648.021,394.74C647.959,394.661 647.861,394.621 647.725,394.621C647.649,394.621 647.579,394.634 647.517,394.661C647.456,394.688 647.399,394.726 647.346,394.777C647.294,394.829 647.248,394.894 647.208,394.97C647.167,395.047 647.132,395.13 647.1,395.22C647.069,395.309 647.043,395.401 647.022,395.495C647.001,395.589 646.984,395.68 646.97,395.768C646.957,395.856 646.947,395.936 646.94,396.009C646.934,396.081 646.93,396.14 646.93,396.185C646.93,396.351 646.962,396.473 647.024,396.553C647.087,396.632 647.185,396.672 647.319,396.672C647.397,396.672 647.467,396.658 647.529,396.632C647.591,396.605 647.647,396.566 647.698,396.515C647.749,396.465 647.795,396.401 647.836,396.323C647.877,396.246 647.913,396.162 647.944,396.073C647.975,395.984 648.002,395.892 648.023,395.798C648.045,395.703 648.062,395.612 648.076,395.525C648.09,395.438 648.099,395.358 648.105,395.285C648.111,395.212 648.114,395.153 648.114,395.107ZM650.052,396.861C650.046,396.883 650.032,396.899 650.009,396.908C649.985,396.917 649.946,396.922 649.891,396.922C649.865,396.922 649.844,396.92 649.827,396.918C649.81,396.915 649.796,396.912 649.786,396.907C649.775,396.902 649.768,396.897 649.764,396.889C649.761,396.882 649.761,396.873 649.764,396.861L649.829,396.529C649.812,396.571 649.781,396.616 649.737,396.666C649.693,396.715 649.64,396.761 649.58,396.803C649.519,396.844 649.452,396.879 649.378,396.906C649.303,396.933 649.228,396.947 649.151,396.947C649.047,396.947 648.961,396.929 648.892,396.892C648.824,396.856 648.77,396.808 648.729,396.748C648.689,396.688 648.661,396.62 648.646,396.545C648.631,396.469 648.624,396.392 648.624,396.312C648.624,396.239 648.631,396.157 648.644,396.064C648.658,395.972 648.68,395.877 648.711,395.781C648.741,395.685 648.781,395.591 648.83,395.5C648.879,395.409 648.938,395.327 649.007,395.255C649.076,395.182 649.156,395.124 649.247,395.081C649.338,395.037 649.442,395.015 649.557,395.015C649.673,395.015 649.773,395.039 649.855,395.086C649.938,395.133 650.012,395.197 650.077,395.279L650.114,395.101C650.119,395.081 650.134,395.066 650.159,395.056C650.184,395.047 650.222,395.043 650.274,395.043C650.3,395.043 650.322,395.044 650.34,395.046C650.357,395.048 650.371,395.051 650.382,395.056C650.392,395.062 650.399,395.068 650.401,395.076C650.404,395.084 650.404,395.092 650.403,395.101L650.052,396.861ZM649.991,395.562C649.93,395.472 649.864,395.405 649.793,395.36C649.722,395.315 649.642,395.293 649.553,395.293C649.483,395.293 649.42,395.309 649.363,395.343C649.306,395.376 649.256,395.42 649.213,395.474C649.169,395.529 649.131,395.591 649.099,395.661C649.067,395.731 649.041,395.803 649.021,395.877C649.001,395.951 648.986,396.024 648.976,396.095C648.967,396.167 648.962,396.232 648.962,396.289C648.962,396.334 648.965,396.38 648.972,396.425C648.98,396.47 648.993,396.511 649.013,396.548C649.034,396.585 649.061,396.615 649.096,396.637C649.132,396.66 649.177,396.672 649.233,396.672C649.305,396.672 649.377,396.652 649.449,396.612C649.521,396.572 649.589,396.517 649.651,396.447C649.714,396.377 649.769,396.294 649.817,396.199C649.865,396.104 649.901,395.999 649.925,395.885L649.991,395.562Z"/>
    </g>
</svg>
