<?xml version="1.0" encoding="UTF-8" standalone="no"?>
<!DOCTYPE svg PUBLIC "-//W3C//DTD SVG 1.1//EN" "http://www.w3.org/Graphics/SVG/1.1/DTD/svg11.dtd">
<svg width="100%" height="100%" viewBox="0 0 51 18" version="1.1" xmlns="http://www.w3.org/2000/svg" xmlns:xlink="http://www.w3.org/1999/xlink" xml:space="preserve" xmlns:serif="http://www.serif.com/" style="fill-rule:evenodd;clip-rule:evenodd;stroke-linejoin:round;stroke-miterlimit:2;">
    <g transform="matrix(1,0,0,1,-599.657,-412.064)">
        <path d="M616.554,414.959L616.554,420.998L608.47,423.003L602.295,418.493L616.554,414.959ZM601.313,418.744L607.487,423.252L599.657,425.201L599.657,419.135L601.313,418.744ZM611.782,422.975L616.554,426.37L616.554,428.819L616.385,428.819L609.283,423.587L611.782,422.975ZM608.301,423.838L615.094,428.819L599.657,428.819L599.657,425.981L608.301,423.838ZM616.554,421.806L616.554,425.424L612.764,422.724L616.554,421.806ZM599.657,412.064L616.553,412.064L616.553,414.18L601.481,417.91L599.657,418.356L599.657,412.064ZM650.522,419.239L617.212,419.239L617.212,412.064L650.522,412.064L650.522,419.239ZM644.294,415.026C644.294,415.008 644.289,414.992 644.28,414.979C644.271,414.965 644.255,414.954 644.232,414.945C644.209,414.936 644.176,414.93 644.134,414.927C644.092,414.923 644.038,414.921 643.971,414.921C643.903,414.921 643.848,414.923 643.806,414.928C643.764,414.932 643.731,414.939 643.706,414.947C643.68,414.955 643.662,414.966 643.65,414.982C643.639,414.997 643.63,415.015 643.625,415.037L643.088,416.796L643.072,416.863L643.056,416.796L642.51,415.037C642.503,415.015 642.494,414.997 642.484,414.982C642.473,414.966 642.455,414.955 642.429,414.947C642.403,414.939 642.367,414.932 642.322,414.928C642.278,414.923 642.219,414.921 642.145,414.921C642.079,414.921 642.024,414.923 641.98,414.927C641.936,414.93 641.902,414.936 641.877,414.945C641.852,414.954 641.834,414.965 641.824,414.979C641.814,414.992 641.81,415.008 641.81,415.026C641.81,415.037 641.81,415.048 641.811,415.061C641.812,415.073 641.815,415.094 641.822,415.123C641.828,415.151 641.836,415.183 641.847,415.219L642.567,417.386C642.576,417.415 642.588,417.439 642.603,417.458C642.618,417.476 642.643,417.491 642.677,417.502C642.711,417.513 642.758,417.52 642.818,417.525C642.878,417.529 642.955,417.532 643.05,417.532C643.147,417.532 643.225,417.53 643.285,417.526C643.345,417.523 643.393,417.515 643.428,417.505C643.462,417.494 643.488,417.479 643.503,417.46C643.518,417.442 643.53,417.417 643.539,417.386L644.259,415.219C644.266,415.194 644.272,415.172 644.276,415.152C644.281,415.132 644.284,415.115 644.287,415.1C644.29,415.085 644.291,415.071 644.292,415.058C644.293,415.046 644.294,415.035 644.294,415.026ZM646.853,416.157L646.853,416.049C646.853,415.881 646.831,415.725 646.789,415.582C646.746,415.439 646.678,415.315 646.587,415.21C646.496,415.105 646.379,415.023 646.237,414.964C646.094,414.905 645.923,414.876 645.722,414.876C645.533,414.876 645.362,414.907 645.211,414.97C645.059,415.032 644.931,415.123 644.825,415.242C644.72,415.361 644.639,415.506 644.584,415.677C644.528,415.848 644.5,416.04 644.5,416.253C644.5,416.477 644.527,416.672 644.58,416.839C644.632,417.005 644.713,417.143 644.82,417.252C644.927,417.361 645.061,417.443 645.222,417.497C645.382,417.55 645.568,417.577 645.781,417.577C645.9,417.577 646.011,417.57 646.114,417.554C646.218,417.539 646.311,417.521 646.391,417.501C646.472,417.48 646.538,417.459 646.59,417.438C646.642,417.416 646.673,417.399 646.685,417.386C646.697,417.374 646.706,417.361 646.713,417.348C646.72,417.334 646.726,417.318 646.729,417.298C646.733,417.278 646.736,417.254 646.738,417.227C646.739,417.199 646.74,417.165 646.74,417.126C646.74,417.081 646.739,417.044 646.736,417.015C646.733,416.985 646.729,416.962 646.721,416.946C646.714,416.93 646.705,416.919 646.695,416.912C646.684,416.906 646.67,416.903 646.654,416.903C646.627,416.903 646.592,416.912 646.55,416.929C646.507,416.946 646.452,416.964 646.387,416.985C646.322,417.006 646.244,417.024 646.155,417.041C646.065,417.058 645.961,417.067 645.843,417.067C645.727,417.067 645.627,417.052 645.544,417.021C645.461,416.991 645.392,416.947 645.34,416.888C645.287,416.83 645.248,416.759 645.224,416.676C645.2,416.593 645.188,416.5 645.188,416.398L646.646,416.398C646.711,416.398 646.761,416.379 646.798,416.339C646.835,416.3 646.853,416.239 646.853,416.157ZM646.198,415.963L645.188,415.963C645.192,415.879 645.205,415.8 645.227,415.725C645.249,415.651 645.281,415.587 645.324,415.532C645.366,415.478 645.418,415.434 645.482,415.402C645.546,415.37 645.62,415.354 645.706,415.354C645.876,415.354 646.002,415.408 646.084,415.516C646.165,415.624 646.203,415.773 646.198,415.963ZM634.048,415.727C634.048,415.451 634.01,415.209 633.933,414.999C633.856,414.79 633.743,414.614 633.596,414.471C633.448,414.329 633.266,414.222 633.051,414.149C632.835,414.077 632.572,414.04 632.262,414.04L631.371,414.04C631.312,414.04 631.262,414.058 631.222,414.093C631.181,414.128 631.161,414.184 631.161,414.263L631.161,417.293C631.161,417.371 631.181,417.428 631.222,417.463C631.262,417.498 631.312,417.515 631.371,417.515L632.201,417.515C632.509,417.515 632.774,417.482 632.997,417.415C633.22,417.348 633.409,417.242 633.565,417.099C633.721,416.956 633.84,416.771 633.923,416.545C634.007,416.318 634.048,416.046 634.048,415.727ZM633.318,415.751C633.318,415.952 633.296,416.127 633.252,416.277C633.208,416.428 633.142,416.554 633.053,416.655C632.965,416.756 632.854,416.831 632.722,416.882C632.589,416.932 632.426,416.957 632.233,416.957L631.865,416.957L631.865,414.594L632.222,414.594C632.439,414.594 632.614,414.623 632.747,414.681C632.881,414.739 632.99,414.82 633.075,414.924C633.16,415.028 633.222,415.15 633.26,415.292C633.299,415.433 633.318,415.586 633.318,415.751ZM641.415,417.424L641.415,415.034C641.415,415.016 641.409,415 641.399,414.987C641.388,414.974 641.37,414.962 641.344,414.952C641.318,414.942 641.283,414.935 641.24,414.929C641.197,414.924 641.143,414.921 641.076,414.921C641.01,414.921 640.956,414.924 640.913,414.929C640.87,414.935 640.835,414.942 640.809,414.952C640.783,414.962 640.765,414.974 640.754,414.987C640.743,415 640.738,415.016 640.738,415.034L640.738,417.424C640.738,417.442 640.743,417.458 640.754,417.471C640.765,417.485 640.783,417.496 640.809,417.505C640.835,417.514 640.87,417.52 640.913,417.525C640.956,417.529 641.01,417.532 641.076,417.532C641.143,417.532 641.197,417.529 641.24,417.525C641.283,417.52 641.318,417.514 641.344,417.505C641.37,417.496 641.388,417.485 641.399,417.471C641.409,417.458 641.415,417.442 641.415,417.424ZM648.948,415.251C648.948,415.187 648.947,415.136 648.945,415.098C648.943,415.061 648.941,415.033 648.937,415.014C648.933,414.995 648.929,414.98 648.925,414.97C648.92,414.959 648.913,414.949 648.903,414.94C648.894,414.931 648.878,414.923 648.856,414.914C648.835,414.906 648.81,414.899 648.781,414.893C648.753,414.887 648.725,414.882 648.698,414.88C648.671,414.877 648.646,414.876 648.623,414.876C648.573,414.876 648.522,414.882 648.472,414.896C648.422,414.909 648.372,414.933 648.322,414.967C648.272,415.001 648.219,415.047 648.164,415.105C648.108,415.163 648.049,415.237 647.986,415.327L647.986,415.029C647.986,415.011 647.982,414.995 647.973,414.982C647.964,414.968 647.949,414.957 647.929,414.948C647.908,414.939 647.879,414.932 647.841,414.928C647.804,414.923 647.756,414.921 647.699,414.921C647.643,414.921 647.597,414.923 647.561,414.928C647.524,414.932 647.494,414.939 647.471,414.948C647.447,414.957 647.431,414.968 647.422,414.982C647.413,414.995 647.409,415.011 647.409,415.029L647.409,417.424C647.409,417.442 647.414,417.458 647.425,417.471C647.436,417.485 647.454,417.496 647.48,417.505C647.506,417.514 647.54,417.52 647.583,417.525C647.626,417.529 647.681,417.532 647.747,417.532C647.814,417.532 647.868,417.529 647.911,417.525C647.954,417.52 647.989,417.514 648.014,417.505C648.04,417.496 648.059,417.485 648.07,417.471C648.08,417.458 648.086,417.442 648.086,417.424L648.086,415.931C648.136,415.852 648.183,415.786 648.227,415.732C648.271,415.678 648.313,415.636 648.353,415.603C648.393,415.571 648.432,415.547 648.47,415.532C648.507,415.517 648.545,415.509 648.582,415.509C648.615,415.509 648.644,415.512 648.671,415.519C648.698,415.525 648.723,415.532 648.745,415.539C648.767,415.546 648.787,415.553 648.805,415.559C648.823,415.565 648.839,415.568 648.854,415.568C648.872,415.568 648.886,415.564 648.898,415.555C648.91,415.546 648.919,415.53 648.926,415.507C648.933,415.483 648.939,415.451 648.942,415.41C648.946,415.369 648.948,415.316 648.948,415.251ZM641.466,414.218C641.466,414.087 641.439,413.996 641.385,413.945C641.331,413.894 641.229,413.868 641.079,413.868C640.927,413.868 640.823,413.895 640.769,413.948C640.714,414 640.687,414.095 640.687,414.231C640.687,414.362 640.713,414.452 640.766,414.502C640.819,414.552 640.922,414.577 641.074,414.577C641.224,414.577 641.327,414.551 641.383,414.5C641.438,414.448 641.466,414.354 641.466,414.218ZM621.491,416.989C621.491,416.925 621.489,416.873 621.485,416.835C621.482,416.796 621.476,416.766 621.469,416.745C621.462,416.723 621.453,416.709 621.442,416.702C621.432,416.695 621.417,416.691 621.399,416.691C621.376,416.691 621.343,416.705 621.301,416.734C621.259,416.763 621.206,416.795 621.14,416.831C621.075,416.866 620.997,416.899 620.905,416.929C620.814,416.958 620.706,416.973 620.58,416.973C620.442,416.973 620.318,416.949 620.208,416.902C620.098,416.854 620.004,416.782 619.926,416.686C619.848,416.589 619.788,416.466 619.746,416.316C619.704,416.167 619.683,415.99 619.683,415.786C619.683,415.6 619.703,415.432 619.742,415.284C619.782,415.135 619.84,415.008 619.916,414.904C619.992,414.799 620.084,414.718 620.192,414.662C620.301,414.606 620.424,414.577 620.561,414.577C620.687,414.577 620.795,414.593 620.885,414.624C620.975,414.656 621.053,414.691 621.119,414.729C621.184,414.768 621.237,414.803 621.279,414.834C621.32,414.865 621.354,414.881 621.381,414.881C621.397,414.881 621.411,414.876 621.424,414.865C621.436,414.854 621.447,414.837 621.456,414.814C621.465,414.79 621.471,414.76 621.475,414.722C621.478,414.685 621.48,414.639 621.48,414.585C621.48,414.535 621.479,414.493 621.476,414.459C621.473,414.425 621.469,414.396 621.464,414.371C621.458,414.346 621.451,414.325 621.442,414.309C621.433,414.293 621.417,414.273 621.393,414.248C621.368,414.224 621.326,414.195 621.265,414.161C621.204,414.127 621.136,414.097 621.06,414.071C620.984,414.045 620.901,414.024 620.811,414.008C620.722,413.992 620.629,413.984 620.532,413.984C620.294,413.984 620.076,414.024 619.878,414.105C619.68,414.185 619.511,414.303 619.369,414.459C619.228,414.615 619.118,414.807 619.039,415.037C618.96,415.266 618.921,415.528 618.921,415.824C618.921,416.114 618.956,416.368 619.028,416.586C619.1,416.805 619.203,416.987 619.337,417.133C619.471,417.279 619.634,417.388 619.826,417.462C620.017,417.535 620.232,417.572 620.47,417.572C620.592,417.572 620.705,417.562 620.81,417.542C620.915,417.523 621.008,417.498 621.089,417.468C621.171,417.439 621.24,417.408 621.296,417.376C621.352,417.344 621.39,417.317 621.41,417.297C621.43,417.276 621.444,417.258 621.453,417.241C621.462,417.225 621.469,417.206 621.475,417.184C621.48,417.161 621.484,417.135 621.487,417.103C621.489,417.072 621.491,417.034 621.491,416.989ZM624.402,416.989C624.402,416.925 624.4,416.873 624.396,416.835C624.393,416.796 624.387,416.766 624.38,416.745C624.373,416.723 624.364,416.709 624.353,416.702C624.343,416.695 624.328,416.691 624.311,416.691C624.287,416.691 624.255,416.705 624.212,416.734C624.17,416.763 624.117,416.795 624.051,416.831C623.986,416.866 623.908,416.899 623.816,416.929C623.725,416.958 623.617,416.973 623.491,416.973C623.354,416.973 623.23,416.949 623.119,416.902C623.009,416.854 622.915,416.782 622.837,416.686C622.76,416.589 622.7,416.466 622.658,416.316C622.615,416.167 622.594,415.99 622.594,415.786C622.594,415.6 622.614,415.432 622.654,415.284C622.693,415.135 622.751,415.008 622.827,414.904C622.903,414.799 622.995,414.718 623.103,414.662C623.212,414.606 623.335,414.577 623.473,414.577C623.598,414.577 623.706,414.593 623.796,414.624C623.887,414.656 623.965,414.691 624.03,414.729C624.095,414.768 624.148,414.803 624.19,414.834C624.231,414.865 624.265,414.881 624.292,414.881C624.308,414.881 624.322,414.876 624.335,414.865C624.347,414.854 624.358,414.837 624.367,414.814C624.376,414.79 624.382,414.76 624.386,414.722C624.389,414.685 624.391,414.639 624.391,414.585C624.391,414.535 624.39,414.493 624.387,414.459C624.384,414.425 624.38,414.396 624.375,414.371C624.37,414.346 624.362,414.325 624.353,414.309C624.345,414.293 624.328,414.273 624.304,414.248C624.28,414.224 624.237,414.195 624.176,414.161C624.115,414.127 624.047,414.097 623.971,414.071C623.895,414.045 623.812,414.024 623.722,414.008C623.633,413.992 623.54,413.984 623.443,413.984C623.205,413.984 622.987,414.024 622.789,414.105C622.591,414.185 622.422,414.303 622.28,414.459C622.139,414.615 622.029,414.807 621.95,415.037C621.871,415.266 621.832,415.528 621.832,415.824C621.832,416.114 621.868,416.368 621.939,416.586C622.011,416.805 622.114,416.987 622.248,417.133C622.382,417.279 622.545,417.388 622.737,417.462C622.928,417.535 623.143,417.572 623.381,417.572C623.503,417.572 623.616,417.562 623.721,417.542C623.826,417.523 623.919,417.498 624,417.468C624.082,417.439 624.151,417.408 624.207,417.376C624.264,417.344 624.302,417.317 624.321,417.297C624.341,417.276 624.355,417.258 624.364,417.241C624.373,417.225 624.38,417.206 624.386,417.184C624.391,417.161 624.395,417.135 624.398,417.103C624.4,417.072 624.402,417.034 624.402,416.989ZM628.062,417.22C628.062,417.166 628.06,417.121 628.055,417.084C628.051,417.048 628.044,417.018 628.035,416.996C628.026,416.973 628.015,416.957 628.002,416.947C627.988,416.938 627.973,416.933 627.955,416.933L626.862,416.933L626.862,414.137C626.862,414.119 626.856,414.103 626.844,414.089C626.833,414.074 626.813,414.063 626.787,414.054C626.76,414.045 626.724,414.038 626.679,414.032C626.634,414.027 626.577,414.024 626.507,414.024C626.439,414.024 626.382,414.027 626.337,414.032C626.291,414.038 626.255,414.045 626.228,414.054C626.201,414.063 626.182,414.074 626.17,414.089C626.159,414.103 626.153,414.119 626.153,414.137L626.153,417.293C626.153,417.371 626.173,417.428 626.213,417.463C626.253,417.498 626.303,417.515 626.362,417.515L627.955,417.515C627.973,417.515 627.988,417.51 628.002,417.499C628.015,417.489 628.026,417.471 628.035,417.447C628.044,417.423 628.051,417.392 628.055,417.356C628.06,417.319 628.062,417.274 628.062,417.22ZM640.322,415.251C640.322,415.187 640.321,415.136 640.319,415.098C640.317,415.061 640.315,415.033 640.311,415.014C640.307,414.995 640.303,414.98 640.299,414.97C640.294,414.959 640.287,414.949 640.277,414.94C640.268,414.931 640.252,414.923 640.23,414.914C640.209,414.906 640.184,414.899 640.155,414.893C640.127,414.887 640.099,414.882 640.072,414.88C640.045,414.877 640.02,414.876 639.997,414.876C639.947,414.876 639.897,414.882 639.846,414.896C639.796,414.909 639.746,414.933 639.696,414.967C639.646,415.001 639.593,415.047 639.538,415.105C639.482,415.163 639.423,415.237 639.36,415.327L639.36,415.029C639.36,415.011 639.356,414.995 639.347,414.982C639.338,414.968 639.323,414.957 639.303,414.948C639.282,414.939 639.253,414.932 639.215,414.928C639.178,414.923 639.13,414.921 639.073,414.921C639.017,414.921 638.971,414.923 638.935,414.928C638.898,414.932 638.868,414.939 638.845,414.948C638.821,414.957 638.805,414.968 638.796,414.982C638.787,414.995 638.783,415.011 638.783,415.029L638.783,417.424C638.783,417.442 638.788,417.458 638.799,417.471C638.81,417.485 638.828,417.496 638.854,417.505C638.88,417.514 638.915,417.52 638.957,417.525C639,417.529 639.055,417.532 639.121,417.532C639.188,417.532 639.242,417.529 639.285,417.525C639.328,417.52 639.363,417.514 639.389,417.505C639.414,417.496 639.433,417.485 639.444,417.471C639.454,417.458 639.46,417.442 639.46,417.424L639.46,415.931C639.51,415.852 639.557,415.786 639.601,415.732C639.645,415.678 639.687,415.636 639.727,415.603C639.767,415.571 639.806,415.547 639.844,415.532C639.881,415.517 639.919,415.509 639.956,415.509C639.989,415.509 640.018,415.512 640.045,415.519C640.072,415.525 640.097,415.532 640.119,415.539C640.141,415.546 640.161,415.553 640.179,415.559C640.197,415.565 640.213,415.568 640.228,415.568C640.246,415.568 640.26,415.564 640.272,415.555C640.284,415.546 640.293,415.53 640.3,415.507C640.307,415.483 640.313,415.451 640.316,415.41C640.32,415.369 640.322,415.316 640.322,415.251ZM630.538,417.239C630.538,417.187 630.536,417.143 630.532,417.109C630.527,417.074 630.52,417.045 630.511,417.024C630.502,417.002 630.491,416.987 630.478,416.977C630.464,416.967 630.45,416.962 630.434,416.962L629.182,416.962L629.182,415.982L630.232,415.982C630.248,415.982 630.263,415.977 630.276,415.969C630.29,415.96 630.301,415.945 630.31,415.924C630.319,415.904 630.326,415.876 630.33,415.842C630.335,415.808 630.337,415.765 630.337,415.713C630.337,415.663 630.335,415.621 630.33,415.586C630.326,415.551 630.319,415.523 630.31,415.503C630.301,415.482 630.29,415.467 630.276,415.457C630.263,415.447 630.248,415.442 630.232,415.442L629.182,415.442L629.182,414.594L630.423,414.594C630.439,414.594 630.453,414.589 630.466,414.579C630.478,414.569 630.489,414.553 630.498,414.532C630.507,414.51 630.514,414.482 630.518,414.447C630.523,414.412 630.525,414.37 630.525,414.32C630.525,414.266 630.523,414.222 630.518,414.187C630.514,414.152 630.507,414.123 630.498,414.101C630.489,414.078 630.478,414.063 630.466,414.054C630.453,414.045 630.439,414.04 630.423,414.04L628.688,414.04C628.629,414.04 628.579,414.058 628.539,414.093C628.499,414.128 628.478,414.184 628.478,414.263L628.478,417.293C628.478,417.371 628.499,417.428 628.539,417.463C628.579,417.498 628.629,417.515 628.688,417.515L630.434,417.515C630.45,417.515 630.464,417.51 630.478,417.501C630.491,417.491 630.502,417.475 630.511,417.454C630.52,417.432 630.527,417.404 630.532,417.369C630.536,417.334 630.538,417.291 630.538,417.239ZM638.103,417.424L638.103,413.901C638.103,413.883 638.098,413.867 638.087,413.852C638.077,413.838 638.059,413.826 638.034,413.816C638.009,413.806 637.975,413.799 637.932,413.793C637.889,413.788 637.834,413.785 637.768,413.785C637.702,413.785 637.647,413.788 637.604,413.793C637.561,413.799 637.527,413.806 637.501,413.816C637.475,413.826 637.457,413.838 637.447,413.852C637.437,413.867 637.432,413.883 637.432,413.901L637.432,415.198C637.325,415.092 637.216,415.012 637.107,414.957C636.998,414.903 636.876,414.876 636.742,414.876C636.572,414.876 636.421,414.908 636.291,414.972C636.16,415.037 636.051,415.129 635.963,415.249C635.875,415.369 635.809,415.514 635.763,415.684C635.717,415.854 635.695,416.046 635.695,416.259C635.695,416.436 635.712,416.605 635.748,416.765C635.784,416.925 635.842,417.065 635.921,417.185C636.001,417.305 636.104,417.4 636.23,417.471C636.357,417.542 636.511,417.577 636.694,417.577C636.858,417.577 637.008,417.54 637.143,417.467C637.279,417.394 637.408,417.291 637.531,417.158L637.531,417.424C637.531,417.444 637.536,417.46 637.546,417.474C637.556,417.487 637.572,417.498 637.595,417.507C637.617,417.516 637.646,417.523 637.682,417.526C637.718,417.53 637.764,417.532 637.821,417.532C637.875,417.532 637.92,417.53 637.957,417.526C637.994,417.523 638.023,417.516 638.044,417.507C638.066,417.498 638.081,417.487 638.09,417.474C638.099,417.46 638.103,417.444 638.103,417.424ZM637.432,415.824L637.432,416.618C637.375,416.69 637.322,416.75 637.274,416.8C637.225,416.849 637.178,416.889 637.133,416.919C637.087,416.95 637.042,416.972 636.998,416.985C636.955,416.998 636.909,417.005 636.863,417.005C636.77,417.005 636.693,416.983 636.632,416.938C636.571,416.893 636.522,416.834 636.485,416.759C636.449,416.685 636.422,416.601 636.406,416.506C636.39,416.411 636.382,416.313 636.382,416.213C636.382,416.118 636.391,416.025 636.41,415.935C636.429,415.845 636.458,415.763 636.496,415.689C636.535,415.616 636.586,415.557 636.649,415.513C636.713,415.469 636.788,415.448 636.876,415.448C636.973,415.448 637.066,415.48 637.154,415.544C637.243,415.609 637.335,415.702 637.432,415.824ZM618.714,423.712C618.714,423.718 618.713,423.729 618.711,423.743C618.709,423.757 618.706,423.773 618.703,423.79C618.7,423.807 618.696,423.824 618.691,423.841C618.687,423.858 618.681,423.873 618.673,423.887C618.665,423.902 618.656,423.913 618.645,423.923C618.635,423.932 618.623,423.936 618.61,423.936L617.491,423.936C617.475,423.936 617.461,423.934 617.447,423.929C617.433,423.925 617.421,423.917 617.411,423.906C617.401,423.895 617.393,423.881 617.39,423.863C617.386,423.845 617.387,423.824 617.393,423.8L617.86,421.458C617.862,421.449 617.866,421.44 617.874,421.432C617.882,421.425 617.893,421.418 617.907,421.414C617.921,421.409 617.94,421.405 617.962,421.402C617.984,421.399 618.011,421.397 618.042,421.397C618.073,421.397 618.099,421.399 618.121,421.402C618.142,421.405 618.159,421.409 618.171,421.414C618.182,421.418 618.19,421.425 618.194,421.432C618.198,421.44 618.199,421.449 618.196,421.458L617.761,423.645L618.667,423.645C618.684,423.645 618.696,423.651 618.703,423.663C618.71,423.675 618.714,423.691 618.714,423.712ZM619.849,421.538C619.842,421.574 619.833,421.605 619.822,421.63C619.811,421.654 619.796,421.674 619.778,421.689C619.76,421.704 619.737,421.715 619.71,421.721C619.682,421.728 619.649,421.731 619.61,421.731C619.572,421.731 619.541,421.728 619.516,421.721C619.492,421.715 619.474,421.704 619.462,421.689C619.45,421.674 619.444,421.654 619.442,421.63C619.441,421.605 619.444,421.574 619.45,421.538C619.458,421.501 619.468,421.471 619.479,421.447C619.491,421.423 619.506,421.403 619.523,421.386C619.541,421.37 619.563,421.359 619.591,421.353C619.618,421.347 619.651,421.344 619.69,421.344C619.728,421.344 619.759,421.347 619.783,421.353C619.807,421.359 619.825,421.37 619.838,421.386C619.85,421.403 619.857,421.423 619.858,421.447C619.86,421.471 619.856,421.501 619.849,421.538ZM619.343,423.887C619.34,423.898 619.335,423.907 619.329,423.914C619.322,423.921 619.313,423.927 619.3,423.932C619.287,423.938 619.269,423.941 619.248,423.944C619.226,423.947 619.2,423.948 619.169,423.948C619.136,423.948 619.11,423.947 619.09,423.944C619.07,423.941 619.054,423.938 619.043,423.932C619.032,423.927 619.025,423.921 619.021,423.914C619.018,423.907 619.018,423.898 619.02,423.887L619.37,422.13C619.371,422.121 619.375,422.112 619.382,422.104C619.388,422.096 619.398,422.09 619.411,422.085C619.424,422.08 619.441,422.076 619.463,422.073C619.484,422.07 619.511,422.069 619.544,422.069C619.575,422.069 619.601,422.07 619.621,422.073C619.641,422.076 619.657,422.08 619.668,422.085C619.679,422.09 619.686,422.096 619.689,422.104C619.693,422.112 619.694,422.121 619.692,422.13L619.343,423.887ZM621.718,422.678C621.718,422.757 621.71,422.843 621.696,422.937C621.682,423.032 621.659,423.127 621.627,423.222C621.595,423.318 621.555,423.411 621.507,423.502C621.459,423.592 621.4,423.672 621.33,423.742C621.26,423.812 621.18,423.868 621.09,423.91C620.999,423.952 620.897,423.973 620.784,423.973C620.667,423.973 620.567,423.951 620.483,423.907C620.4,423.863 620.326,423.799 620.261,423.716L620.225,423.887C620.223,423.91 620.209,423.925 620.183,423.934C620.158,423.943 620.119,423.948 620.067,423.948C620.013,423.948 619.976,423.943 619.958,423.932C619.94,423.922 619.933,423.907 619.938,423.887L620.458,421.278C620.46,421.268 620.465,421.259 620.471,421.251C620.476,421.243 620.486,421.236 620.5,421.231C620.514,421.226 620.531,421.222 620.553,421.219C620.574,421.217 620.601,421.216 620.634,421.216C620.665,421.216 620.69,421.217 620.71,421.219C620.729,421.222 620.745,421.226 620.757,421.231C620.768,421.236 620.776,421.243 620.778,421.251C620.781,421.259 620.781,421.268 620.78,421.278L620.624,422.063C620.617,422.097 620.61,422.132 620.6,422.169C620.591,422.205 620.582,422.241 620.572,422.277C620.562,422.313 620.553,422.347 620.543,422.379C620.533,422.411 620.524,422.438 620.516,422.462C620.537,422.416 620.57,422.369 620.615,422.32C620.66,422.271 620.713,422.226 620.773,422.185C620.834,422.144 620.9,422.11 620.972,422.083C621.043,422.055 621.115,422.042 621.188,422.042C621.266,422.042 621.334,422.052 621.39,422.073C621.446,422.094 621.493,422.122 621.532,422.156C621.571,422.191 621.603,422.23 621.627,422.274C621.651,422.318 621.669,422.364 621.682,422.411C621.696,422.458 621.705,422.504 621.71,422.551C621.715,422.597 621.718,422.639 621.718,422.678ZM621.38,422.706C621.38,422.671 621.377,422.63 621.37,422.585C621.363,422.539 621.351,422.497 621.332,422.458C621.313,422.419 621.286,422.386 621.25,422.359C621.214,422.332 621.166,422.319 621.106,422.319C621.036,422.319 620.964,422.339 620.891,422.38C620.819,422.42 620.751,422.476 620.688,422.547C620.626,422.618 620.57,422.701 620.521,422.797C620.473,422.892 620.437,422.997 620.415,423.11L620.35,423.434C620.412,423.524 620.477,423.591 620.548,423.634C620.618,423.677 620.697,423.698 620.786,423.698C620.854,423.698 620.915,423.682 620.97,423.651C621.024,423.62 621.074,423.578 621.118,423.526C621.162,423.474 621.201,423.414 621.233,423.347C621.266,423.28 621.293,423.21 621.314,423.136C621.336,423.063 621.352,422.989 621.363,422.915C621.374,422.841 621.38,422.771 621.38,422.706ZM623.341,422.132C623.341,422.137 623.34,422.147 623.338,422.162C623.336,422.177 623.334,422.194 623.331,422.214C623.328,422.233 623.324,422.253 623.319,422.274C623.314,422.295 623.307,422.314 623.3,422.332C623.292,422.349 623.284,422.364 623.275,422.376C623.267,422.387 623.257,422.393 623.247,422.393C623.237,422.393 623.225,422.391 623.213,422.386C623.2,422.382 623.187,422.376 623.172,422.37C623.157,422.363 623.14,422.358 623.12,422.353C623.1,422.349 623.078,422.346 623.052,422.346C623.007,422.346 622.956,422.366 622.898,422.404C622.84,422.442 622.783,422.496 622.727,422.563C622.671,422.631 622.62,422.711 622.574,422.803C622.528,422.896 622.494,422.996 622.472,423.104L622.317,423.887C622.315,423.898 622.31,423.907 622.304,423.914C622.297,423.921 622.287,423.927 622.274,423.932C622.261,423.938 622.244,423.941 622.223,423.944C622.201,423.947 622.175,423.948 622.143,423.948C622.111,423.948 622.085,423.947 622.064,423.944C622.044,423.941 622.029,423.938 622.017,423.932C622.006,423.927 621.999,423.921 621.996,423.914C621.993,423.907 621.992,423.898 621.995,423.887L622.345,422.128C622.346,422.119 622.35,422.11 622.356,422.102C622.363,422.094 622.373,422.088 622.386,422.083C622.399,422.078 622.415,422.074 622.433,422.072C622.452,422.07 622.475,422.069 622.501,422.069C622.528,422.069 622.551,422.07 622.568,422.072C622.586,422.074 622.599,422.078 622.609,422.083C622.619,422.088 622.625,422.094 622.628,422.102C622.63,422.11 622.631,422.119 622.63,422.128L622.565,422.448C622.595,422.395 622.631,422.343 622.672,422.294C622.713,422.244 622.757,422.201 622.806,422.164C622.854,422.127 622.904,422.097 622.957,422.075C623.01,422.053 623.061,422.042 623.112,422.042C623.134,422.042 623.157,422.043 623.18,422.047C623.202,422.05 623.224,422.054 623.243,422.058C623.263,422.063 623.28,422.068 623.295,422.074C623.31,422.08 623.321,422.087 623.329,422.094C623.337,422.102 623.341,422.115 623.341,422.132ZM625.147,422.712C625.147,422.808 625.138,422.906 625.12,423.007C625.102,423.107 625.074,423.204 625.037,423.297C625,423.39 624.953,423.477 624.895,423.559C624.838,423.641 624.771,423.713 624.693,423.774C624.616,423.835 624.528,423.884 624.43,423.92C624.331,423.955 624.222,423.973 624.1,423.973C623.975,423.973 623.868,423.958 623.779,423.928C623.69,423.899 623.617,423.855 623.559,423.798C623.502,423.74 623.46,423.67 623.432,423.587C623.405,423.503 623.391,423.409 623.391,423.303C623.391,423.207 623.4,423.109 623.418,423.009C623.435,422.908 623.463,422.812 623.501,422.719C623.539,422.627 623.586,422.539 623.642,422.457C623.699,422.374 623.766,422.302 623.844,422.241C623.921,422.18 624.009,422.131 624.107,422.095C624.206,422.06 624.315,422.042 624.436,422.042C624.561,422.042 624.669,422.057 624.758,422.088C624.847,422.118 624.92,422.162 624.978,422.219C625.036,422.277 625.079,422.347 625.106,422.43C625.134,422.514 625.147,422.608 625.147,422.712ZM624.807,422.731C624.807,422.666 624.801,422.608 624.787,422.555C624.773,422.503 624.751,422.459 624.719,422.424C624.687,422.388 624.645,422.36 624.594,422.341C624.542,422.321 624.48,422.311 624.407,422.311C624.329,422.311 624.258,422.325 624.194,422.353C624.13,422.381 624.073,422.419 624.023,422.467C623.973,422.514 623.93,422.57 623.892,422.634C623.855,422.697 623.825,422.765 623.801,422.838C623.777,422.91 623.759,422.984 623.747,423.06C623.735,423.136 623.729,423.211 623.729,423.284C623.729,423.349 623.737,423.408 623.751,423.46C623.765,423.512 623.788,423.556 623.82,423.593C623.852,423.629 623.893,423.657 623.944,423.677C623.995,423.696 624.057,423.706 624.13,423.706C624.209,423.706 624.28,423.692 624.344,423.664C624.407,423.636 624.463,423.598 624.514,423.55C624.564,423.501 624.607,423.445 624.644,423.382C624.682,423.318 624.712,423.249 624.736,423.177C624.76,423.104 624.778,423.029 624.79,422.954C624.802,422.878 624.807,422.804 624.807,422.731ZM627.677,422.319C627.677,422.404 627.671,422.492 627.659,422.584C627.647,422.676 627.629,422.767 627.603,422.859C627.578,422.951 627.545,423.041 627.505,423.13C627.464,423.218 627.415,423.302 627.357,423.383C627.299,423.463 627.232,423.537 627.156,423.604C627.08,423.672 626.993,423.731 626.895,423.78C626.798,423.83 626.689,423.868 626.569,423.895C626.449,423.923 626.306,423.936 626.138,423.936L625.577,423.936C625.56,423.936 625.544,423.934 625.529,423.929C625.514,423.925 625.502,423.917 625.491,423.907C625.481,423.897 625.474,423.883 625.47,423.865C625.466,423.847 625.467,423.826 625.474,423.8L625.923,421.546C625.932,421.495 625.952,421.459 625.982,421.439C626.013,421.419 626.048,421.409 626.087,421.409L626.62,421.409C626.814,421.409 626.975,421.429 627.102,421.47C627.23,421.511 627.336,421.571 627.422,421.649C627.507,421.727 627.571,421.823 627.613,421.935C627.655,422.048 627.677,422.176 627.677,422.319ZM627.321,422.348C627.321,422.252 627.308,422.163 627.281,422.083C627.254,422.002 627.212,421.933 627.155,421.875C627.098,421.817 627.025,421.771 626.935,421.738C626.846,421.705 626.728,421.688 626.581,421.688L626.229,421.688L625.837,423.655L626.184,423.655C626.343,423.655 626.476,423.636 626.583,423.597C626.69,423.559 626.784,423.507 626.866,423.441C626.948,423.375 627.018,423.299 627.075,423.212C627.132,423.124 627.179,423.033 627.216,422.936C627.252,422.84 627.279,422.741 627.296,422.64C627.313,422.539 627.321,422.442 627.321,422.348ZM629.339,423.887C629.337,423.898 629.334,423.907 629.327,423.915C629.321,423.923 629.311,423.929 629.3,423.933C629.288,423.938 629.273,423.941 629.254,423.944C629.235,423.947 629.212,423.948 629.184,423.948C629.158,423.948 629.137,423.947 629.119,423.944C629.101,423.941 629.088,423.938 629.078,423.933C629.068,423.929 629.062,423.923 629.058,423.915C629.055,423.907 629.055,423.898 629.057,423.887L629.122,423.557C629.101,423.602 629.068,423.648 629.023,423.697C628.978,423.746 628.926,423.791 628.865,423.833C628.805,423.874 628.738,423.908 628.666,423.934C628.594,423.96 628.52,423.973 628.446,423.973C628.358,423.973 628.283,423.961 628.223,423.937C628.162,423.913 628.113,423.88 628.076,423.838C628.039,423.795 628.012,423.745 627.996,423.687C627.98,423.629 627.972,423.566 627.972,423.497C627.972,423.454 627.974,423.41 627.98,423.365C627.986,423.32 627.994,423.275 628.003,423.229L628.22,422.128C628.222,422.119 628.227,422.11 628.233,422.102C628.24,422.094 628.25,422.088 628.264,422.083C628.277,422.078 628.295,422.074 628.316,422.072C628.338,422.07 628.364,422.069 628.395,422.069C628.427,422.069 628.452,422.07 628.473,422.072C628.493,422.074 628.508,422.078 628.519,422.083C628.53,422.088 628.538,422.094 628.541,422.102C628.544,422.11 628.545,422.119 628.544,422.128L628.329,423.218C628.321,423.251 628.315,423.287 628.311,423.323C628.307,423.359 628.306,423.397 628.306,423.434C628.306,423.473 628.309,423.509 628.316,423.541C628.323,423.573 628.336,423.6 628.353,423.624C628.371,423.647 628.394,423.665 628.422,423.678C628.45,423.691 628.484,423.698 628.524,423.698C628.593,423.698 628.664,423.678 628.736,423.638C628.808,423.599 628.876,423.544 628.938,423.473C629.001,423.403 629.057,423.319 629.105,423.222C629.154,423.125 629.19,423.02 629.214,422.905L629.368,422.128C629.369,422.119 629.374,422.11 629.381,422.102C629.388,422.094 629.398,422.088 629.412,422.083C629.426,422.078 629.443,422.074 629.465,422.072C629.486,422.07 629.513,422.069 629.544,422.069C629.575,422.069 629.601,422.07 629.621,422.072C629.641,422.074 629.657,422.078 629.668,422.083C629.679,422.088 629.686,422.094 629.689,422.102C629.693,422.11 629.694,422.119 629.692,422.128L629.339,423.887ZM631.477,422.284C631.477,422.307 631.475,422.331 631.471,422.356C631.466,422.381 631.459,422.404 631.45,422.426C631.441,422.447 631.43,422.465 631.418,422.479C631.405,422.494 631.391,422.501 631.376,422.501C631.358,422.501 631.339,422.491 631.319,422.472C631.3,422.454 631.274,422.432 631.242,422.409C631.21,422.385 631.17,422.364 631.121,422.344C631.072,422.325 631.01,422.315 630.934,422.315C630.851,422.315 630.777,422.332 630.713,422.367C630.648,422.401 630.592,422.446 630.545,422.502C630.497,422.557 630.458,422.62 630.427,422.69C630.395,422.76 630.37,422.831 630.35,422.903C630.331,422.975 630.317,423.044 630.308,423.111C630.3,423.178 630.296,423.236 630.296,423.286C630.296,423.42 630.325,423.522 630.384,423.591C630.442,423.66 630.53,423.694 630.645,423.694C630.73,423.694 630.803,423.684 630.863,423.663C630.924,423.642 630.975,423.618 631.017,423.592C631.06,423.565 631.095,423.541 631.122,423.52C631.149,423.499 631.173,423.489 631.194,423.489C631.205,423.489 631.213,423.494 631.219,423.504C631.224,423.513 631.227,423.527 631.227,423.546C631.227,423.561 631.226,423.58 631.224,423.601C631.221,423.623 631.217,423.645 631.211,423.668C631.205,423.691 631.198,423.712 631.189,423.731C631.181,423.751 631.169,423.769 631.153,423.785C631.138,423.801 631.11,423.821 631.071,423.844C631.032,423.868 630.987,423.889 630.935,423.908C630.884,423.927 630.828,423.942 630.768,423.955C630.709,423.967 630.647,423.973 630.583,423.973C630.373,423.973 630.217,423.92 630.113,423.813C630.01,423.706 629.958,423.548 629.958,423.337C629.958,423.257 629.965,423.17 629.978,423.076C629.992,422.982 630.015,422.886 630.048,422.791C630.08,422.695 630.122,422.602 630.173,422.512C630.224,422.423 630.286,422.343 630.36,422.273C630.434,422.204 630.52,422.148 630.618,422.106C630.716,422.065 630.828,422.044 630.954,422.044C631.006,422.044 631.056,422.048 631.104,422.056C631.153,422.065 631.198,422.076 631.24,422.091C631.282,422.105 631.321,422.123 631.355,422.144C631.39,422.166 631.417,422.185 631.435,422.202C631.454,422.219 631.466,422.233 631.471,422.245C631.475,422.257 631.477,422.27 631.477,422.284ZM632.858,422.149C632.858,422.161 632.858,422.174 632.856,422.187C632.855,422.201 632.852,422.215 632.849,422.229C632.845,422.244 632.839,422.258 632.833,422.272C632.826,422.287 632.82,422.299 632.812,422.31C632.805,422.321 632.797,422.33 632.788,422.337C632.779,422.343 632.768,422.346 632.757,422.346L632.307,422.346L632.11,423.327C632.105,423.354 632.1,423.385 632.097,423.419C632.093,423.453 632.091,423.481 632.091,423.503C632.091,423.569 632.105,423.618 632.133,423.648C632.161,423.679 632.206,423.694 632.268,423.694C632.304,423.694 632.334,423.691 632.36,423.685C632.386,423.679 632.409,423.673 632.428,423.667C632.446,423.66 632.463,423.654 632.477,423.648C632.492,423.642 632.504,423.639 632.515,423.639C632.525,423.639 632.533,423.643 632.539,423.65C632.545,423.657 632.548,423.671 632.548,423.69C632.548,423.707 632.546,423.726 632.543,423.746C632.54,423.766 632.535,423.786 632.53,423.805C632.525,423.825 632.518,423.843 632.511,423.858C632.503,423.874 632.494,423.886 632.485,423.895C632.475,423.904 632.459,423.913 632.438,423.923C632.418,423.932 632.393,423.94 632.366,423.947C632.339,423.954 632.31,423.96 632.279,423.964C632.249,423.968 632.218,423.969 632.188,423.969C632.115,423.969 632.052,423.962 631.999,423.946C631.946,423.93 631.901,423.906 631.864,423.873C631.828,423.84 631.801,423.798 631.783,423.748C631.766,423.698 631.757,423.637 631.757,423.567C631.757,423.552 631.757,423.534 631.759,423.515C631.76,423.497 631.762,423.477 631.766,423.456L631.775,423.393C631.779,423.372 631.782,423.353 631.786,423.335L631.983,422.346L631.739,422.346C631.725,422.346 631.714,422.342 631.706,422.334C631.698,422.325 631.694,422.309 631.694,422.284C631.694,422.266 631.696,422.245 631.7,422.22C631.704,422.196 631.71,422.174 631.718,422.153C631.725,422.132 631.736,422.115 631.748,422.1C631.76,422.086 631.775,422.079 631.792,422.079L632.038,422.079L632.122,421.661C632.123,421.652 632.127,421.643 632.135,421.635C632.142,421.628 632.152,421.621 632.165,421.615C632.178,421.609 632.195,421.605 632.217,421.602C632.238,421.6 632.265,421.598 632.296,421.598C632.327,421.598 632.353,421.6 632.373,421.602C632.393,421.605 632.409,421.609 632.42,421.615C632.431,421.621 632.438,421.628 632.441,421.635C632.445,421.643 632.446,421.652 632.444,421.661L632.36,422.079L632.809,422.079C632.829,422.079 632.842,422.086 632.849,422.1C632.855,422.115 632.858,422.131 632.858,422.149ZM619.436,426.36C619.436,426.368 619.436,426.379 619.435,426.392C619.435,426.406 619.433,426.421 619.43,426.436C619.426,426.452 619.422,426.469 619.417,426.486C619.412,426.504 619.405,426.519 619.397,426.532C619.39,426.545 619.38,426.556 619.369,426.564C619.358,426.573 619.346,426.577 619.333,426.577L618.622,426.577L618.182,428.768C618.18,428.779 618.175,428.788 618.168,428.796C618.161,428.803 618.15,428.81 618.137,428.814C618.123,428.819 618.105,428.823 618.083,428.826C618.061,428.829 618.033,428.831 618.001,428.831C617.968,428.831 617.942,428.829 617.921,428.826C617.9,428.823 617.884,428.819 617.872,428.814C617.86,428.81 617.852,428.803 617.849,428.796C617.845,428.788 617.844,428.779 617.847,428.768L618.284,426.577L617.577,426.577C617.559,426.577 617.546,426.571 617.54,426.559C617.533,426.548 617.53,426.531 617.53,426.51C617.53,426.501 617.531,426.49 617.533,426.476C617.535,426.463 617.538,426.447 617.541,426.43C617.544,426.413 617.548,426.397 617.554,426.382C617.559,426.366 617.565,426.351 617.573,426.338C617.581,426.324 617.59,426.313 617.599,426.304C617.609,426.296 617.621,426.292 617.634,426.292L619.391,426.292C619.408,426.292 619.42,426.298 619.427,426.31C619.433,426.323 619.436,426.339 619.436,426.36ZM620.116,426.421C620.11,426.457 620.101,426.488 620.09,426.512C620.079,426.537 620.064,426.557 620.046,426.572C620.028,426.587 620.005,426.598 619.977,426.604C619.95,426.611 619.917,426.614 619.878,426.614C619.84,426.614 619.809,426.611 619.784,426.604C619.759,426.598 619.741,426.587 619.729,426.572C619.718,426.557 619.711,426.537 619.71,426.512C619.709,426.488 619.711,426.457 619.718,426.421C619.725,426.384 619.735,426.354 619.747,426.33C619.759,426.306 619.773,426.286 619.791,426.269C619.808,426.253 619.831,426.242 619.858,426.236C619.886,426.23 619.919,426.227 619.958,426.227C619.996,426.227 620.027,426.23 620.051,426.236C620.075,426.242 620.093,426.253 620.105,426.269C620.118,426.286 620.125,426.306 620.126,426.33C620.127,426.354 620.124,426.384 620.116,426.421ZM619.61,428.77C619.608,428.781 619.603,428.789 619.597,428.797C619.59,428.804 619.58,428.81 619.567,428.815C619.554,428.82 619.537,428.824 619.516,428.827C619.494,428.83 619.468,428.831 619.436,428.831C619.404,428.831 619.377,428.83 619.357,428.827C619.337,428.824 619.321,428.82 619.31,428.815C619.299,428.81 619.292,428.804 619.289,428.797C619.286,428.789 619.285,428.781 619.288,428.77L619.638,427.012C619.639,427.003 619.643,426.995 619.649,426.987C619.656,426.979 619.666,426.973 619.679,426.968C619.692,426.962 619.709,426.958 619.73,426.956C619.752,426.953 619.779,426.952 619.811,426.952C619.843,426.952 619.868,426.953 619.889,426.956C619.909,426.958 619.924,426.962 619.935,426.968C619.946,426.973 619.954,426.979 619.957,426.987C619.96,426.995 619.961,427.003 619.96,427.012L619.61,428.77ZM622.78,428.77C622.779,428.781 622.775,428.789 622.768,428.797C622.762,428.804 622.752,428.81 622.738,428.815C622.724,428.82 622.707,428.824 622.685,428.827C622.664,428.83 622.638,428.831 622.606,428.831C622.575,428.831 622.549,428.83 622.529,428.827C622.509,428.824 622.493,428.82 622.482,428.815C622.471,428.81 622.464,428.804 622.46,428.797C622.456,428.789 622.455,428.781 622.458,428.77L622.675,427.684C622.681,427.647 622.687,427.611 622.691,427.577C622.696,427.543 622.698,427.509 622.698,427.475C622.698,427.392 622.682,427.326 622.65,427.276C622.618,427.227 622.563,427.202 622.483,427.202C622.418,427.202 622.351,427.222 622.281,427.261C622.211,427.301 622.145,427.356 622.083,427.426C622.02,427.495 621.965,427.578 621.917,427.674C621.869,427.769 621.834,427.873 621.811,427.985L621.655,428.77C621.653,428.781 621.648,428.789 621.641,428.797C621.635,428.804 621.625,428.81 621.611,428.815C621.598,428.82 621.58,428.824 621.558,428.827C621.537,428.83 621.511,428.831 621.479,428.831C621.448,428.831 621.422,428.83 621.402,428.827C621.382,428.824 621.367,428.82 621.356,428.815C621.346,428.81 621.339,428.804 621.335,428.797C621.331,428.789 621.33,428.781 621.331,428.77L621.548,427.684C621.557,427.645 621.563,427.607 621.566,427.569C621.57,427.531 621.571,427.496 621.571,427.464C621.571,427.384 621.555,427.321 621.522,427.273C621.49,427.226 621.434,427.202 621.356,427.202C621.29,427.202 621.222,427.222 621.153,427.261C621.084,427.301 621.018,427.356 620.956,427.426C620.893,427.495 620.838,427.578 620.79,427.674C620.742,427.769 620.707,427.873 620.684,427.985L620.528,428.77C620.526,428.781 620.521,428.789 620.515,428.797C620.508,428.804 620.498,428.81 620.485,428.815C620.472,428.82 620.455,428.824 620.433,428.827C620.412,428.83 620.386,428.831 620.354,428.831C620.322,428.831 620.295,428.83 620.275,428.827C620.255,428.824 620.239,428.82 620.228,428.815C620.217,428.81 620.21,428.804 620.207,428.797C620.204,428.789 620.203,428.781 620.206,428.77L620.559,427.01C620.561,427.001 620.564,426.993 620.57,426.985C620.576,426.977 620.585,426.971 620.598,426.966C620.61,426.96 620.626,426.957 620.644,426.955C620.663,426.953 620.686,426.952 620.712,426.952C620.739,426.952 620.762,426.953 620.779,426.955C620.797,426.957 620.81,426.96 620.82,426.966C620.83,426.971 620.836,426.977 620.839,426.985C620.841,426.993 620.842,427.001 620.841,427.01L620.774,427.346C620.794,427.302 620.826,427.255 620.871,427.206C620.916,427.156 620.968,427.111 621.028,427.069C621.088,427.027 621.154,426.993 621.224,426.966C621.295,426.938 621.368,426.925 621.442,426.925C621.52,426.925 621.587,426.935 621.643,426.957C621.699,426.978 621.745,427.008 621.781,427.045C621.817,427.082 621.843,427.126 621.86,427.177C621.877,427.229 621.888,427.285 621.891,427.346C621.918,427.301 621.953,427.253 621.999,427.204C622.044,427.154 622.097,427.109 622.157,427.068C622.217,427.027 622.282,426.993 622.352,426.966C622.423,426.938 622.494,426.925 622.567,426.925C622.655,426.925 622.727,426.937 622.786,426.962C622.845,426.986 622.892,427.02 622.929,427.063C622.965,427.106 622.991,427.156 623.007,427.214C623.022,427.271 623.03,427.333 623.03,427.401C623.03,427.447 623.028,427.492 623.022,427.536C623.017,427.58 623.01,427.626 623.001,427.673L622.78,428.77ZM626.645,426.567C626.645,426.576 626.644,426.588 626.642,426.601C626.641,426.615 626.638,426.629 626.635,426.644C626.631,426.659 626.627,426.675 626.622,426.691C626.617,426.707 626.611,426.722 626.604,426.734C626.598,426.747 626.591,426.756 626.583,426.763C626.575,426.771 626.567,426.774 626.557,426.774C626.538,426.774 626.512,426.762 626.478,426.739C626.445,426.716 626.401,426.689 626.346,426.66C626.29,426.631 626.223,426.604 626.143,426.58C626.064,426.556 625.969,426.544 625.858,426.544C625.742,426.544 625.634,426.561 625.533,426.595C625.432,426.63 625.339,426.677 625.255,426.738C625.17,426.799 625.095,426.87 625.028,426.953C624.962,427.036 624.905,427.125 624.859,427.222C624.813,427.319 624.778,427.421 624.754,427.528C624.73,427.635 624.718,427.743 624.718,427.852C624.718,427.967 624.734,428.068 624.767,428.156C624.801,428.244 624.849,428.318 624.911,428.378C624.974,428.438 625.049,428.483 625.138,428.513C625.226,428.544 625.325,428.559 625.434,428.559C625.515,428.559 625.599,428.55 625.687,428.531C625.775,428.512 625.857,428.483 625.932,428.444L626.079,427.712L625.495,427.712C625.479,427.712 625.467,427.706 625.459,427.695C625.45,427.684 625.446,427.668 625.446,427.647C625.446,427.638 625.447,427.626 625.449,427.611C625.451,427.596 625.454,427.581 625.457,427.565C625.46,427.55 625.465,427.534 625.471,427.518C625.476,427.503 625.483,427.489 625.491,427.476C625.499,427.464 625.508,427.454 625.517,427.447C625.527,427.44 625.538,427.436 625.55,427.436L626.352,427.436C626.389,427.436 626.415,427.449 626.432,427.473C626.448,427.498 626.451,427.531 626.442,427.573L626.247,428.546C626.242,428.57 626.235,428.59 626.226,428.605C626.218,428.62 626.209,428.634 626.198,428.645C626.186,428.657 626.157,428.674 626.109,428.697C626.062,428.72 626.002,428.743 625.93,428.766C625.857,428.79 625.776,428.81 625.685,428.828C625.595,428.845 625.5,428.854 625.401,428.854C625.232,428.854 625.083,428.832 624.954,428.789C624.825,428.745 624.717,428.682 624.63,428.598C624.543,428.515 624.476,428.414 624.431,428.296C624.385,428.177 624.362,428.043 624.362,427.893C624.362,427.754 624.378,427.617 624.41,427.482C624.442,427.347 624.488,427.219 624.548,427.098C624.608,426.977 624.682,426.865 624.769,426.762C624.857,426.66 624.958,426.571 625.072,426.497C625.186,426.423 625.311,426.364 625.448,426.321C625.585,426.278 625.733,426.257 625.891,426.257C625.983,426.257 626.068,426.265 626.147,426.281C626.227,426.297 626.298,426.317 626.36,426.34C626.423,426.362 626.475,426.387 626.518,426.415C626.561,426.442 626.591,426.463 626.606,426.477C626.622,426.492 626.632,426.505 626.638,426.518C626.643,426.531 626.645,426.548 626.645,426.567ZM628.579,427.594C628.579,427.691 628.57,427.789 628.552,427.889C628.533,427.99 628.506,428.086 628.469,428.179C628.432,428.273 628.384,428.36 628.327,428.442C628.27,428.524 628.202,428.596 628.125,428.657C628.047,428.718 627.96,428.767 627.861,428.802C627.763,428.838 627.653,428.856 627.532,428.856C627.407,428.856 627.3,428.841 627.211,428.811C627.122,428.781 627.048,428.738 626.991,428.68C626.934,428.623 626.891,428.553 626.864,428.469C626.837,428.386 626.823,428.292 626.823,428.186C626.823,428.09 626.832,427.992 626.849,427.891C626.867,427.791 626.895,427.695 626.932,427.602C626.97,427.51 627.017,427.422 627.074,427.34C627.131,427.257 627.198,427.185 627.275,427.124C627.353,427.063 627.441,427.014 627.539,426.978C627.637,426.942 627.747,426.925 627.868,426.925C627.993,426.925 628.1,426.94 628.189,426.97C628.279,427.001 628.352,427.045 628.41,427.102C628.468,427.16 628.511,427.23 628.538,427.313C628.565,427.397 628.579,427.49 628.579,427.594ZM628.239,427.614C628.239,427.549 628.232,427.49 628.219,427.438C628.205,427.386 628.182,427.342 628.15,427.306C628.118,427.271 628.077,427.243 628.025,427.223C627.974,427.204 627.912,427.194 627.839,427.194C627.761,427.194 627.69,427.208 627.626,427.236C627.562,427.264 627.505,427.302 627.455,427.349C627.405,427.397 627.361,427.453 627.324,427.516C627.287,427.58 627.256,427.648 627.232,427.72C627.208,427.793 627.19,427.867 627.179,427.943C627.167,428.019 627.161,428.094 627.161,428.167C627.161,428.232 627.168,428.29 627.182,428.343C627.197,428.395 627.22,428.439 627.252,428.475C627.284,428.512 627.325,428.54 627.376,428.559C627.427,428.579 627.488,428.589 627.561,428.589C627.641,428.589 627.712,428.575 627.775,428.547C627.838,428.519 627.895,428.481 627.945,428.432C627.995,428.384 628.039,428.328 628.076,428.264C628.113,428.201 628.144,428.132 628.168,428.059C628.192,427.986 628.21,427.912 628.222,427.837C628.233,427.761 628.239,427.687 628.239,427.614ZM629.173,428.77C629.17,428.781 629.166,428.789 629.159,428.797C629.153,428.804 629.143,428.81 629.13,428.815C629.117,428.82 629.099,428.824 629.078,428.827C629.057,428.83 629.03,428.831 628.999,428.831C628.966,428.831 628.94,428.83 628.92,428.827C628.9,428.824 628.884,428.82 628.873,428.815C628.862,428.81 628.855,428.804 628.851,428.797C628.848,428.789 628.848,428.781 628.85,428.77L629.37,426.161C629.373,426.15 629.377,426.141 629.383,426.134C629.389,426.126 629.398,426.119 629.412,426.114C629.426,426.109 629.443,426.105 629.465,426.102C629.486,426.1 629.513,426.098 629.546,426.098C629.577,426.098 629.603,426.1 629.623,426.102C629.643,426.105 629.659,426.109 629.67,426.114C629.681,426.119 629.688,426.126 629.69,426.134C629.693,426.141 629.694,426.15 629.692,426.161L629.173,428.77ZM630.091,428.77C630.088,428.781 630.084,428.789 630.077,428.797C630.071,428.804 630.061,428.81 630.048,428.815C630.035,428.82 630.017,428.824 629.996,428.827C629.974,428.83 629.948,428.831 629.917,428.831C629.884,428.831 629.858,428.83 629.838,428.827C629.818,428.824 629.802,428.82 629.791,428.815C629.78,428.81 629.773,428.804 629.769,428.797C629.766,428.789 629.766,428.781 629.768,428.77L630.288,426.161C630.291,426.15 630.295,426.141 630.301,426.134C630.307,426.126 630.316,426.119 630.33,426.114C630.344,426.109 630.361,426.105 630.383,426.102C630.404,426.1 630.431,426.098 630.464,426.098C630.495,426.098 630.521,426.1 630.541,426.102C630.561,426.105 630.577,426.109 630.588,426.114C630.599,426.119 630.606,426.126 630.608,426.134C630.611,426.141 630.612,426.15 630.61,426.161L630.091,428.77ZM631.165,428.483C631.165,428.557 631.148,428.632 631.115,428.707C631.082,428.782 631.035,428.856 630.974,428.928L630.624,429.331C630.607,429.35 630.585,429.364 630.557,429.373C630.53,429.381 630.492,429.385 630.444,429.385C630.421,429.385 630.402,429.384 630.388,429.381C630.373,429.377 630.363,429.373 630.358,429.368C630.353,429.363 630.351,429.355 630.353,429.344C630.355,429.334 630.361,429.322 630.37,429.307L630.737,428.77L630.782,428.54C630.789,428.505 630.797,428.477 630.807,428.456C630.818,428.435 630.831,428.419 630.848,428.409C630.864,428.399 630.884,428.391 630.908,428.387C630.932,428.384 630.962,428.382 630.999,428.382C631.031,428.382 631.058,428.383 631.08,428.386C631.101,428.39 631.118,428.396 631.131,428.404C631.143,428.413 631.152,428.423 631.157,428.435C631.162,428.448 631.165,428.464 631.165,428.483ZM634.479,427.012C634.479,427.07 634.476,427.14 634.469,427.222C634.461,427.305 634.45,427.394 634.433,427.49C634.417,427.586 634.396,427.685 634.37,427.788C634.344,427.891 634.312,427.991 634.274,428.089C634.237,428.186 634.192,428.279 634.141,428.368C634.089,428.456 634.03,428.533 633.964,428.598C633.887,428.677 633.794,428.739 633.685,428.786C633.577,428.833 633.449,428.856 633.304,428.856C633.181,428.856 633.076,428.84 632.989,428.806C632.902,428.773 632.83,428.724 632.774,428.66C632.718,428.595 632.677,428.516 632.651,428.422C632.625,428.327 632.612,428.219 632.612,428.098C632.612,428.041 632.616,427.971 632.623,427.888C632.63,427.806 632.642,427.717 632.658,427.621C632.674,427.525 632.696,427.426 632.722,427.324C632.748,427.222 632.78,427.122 632.818,427.023C632.857,426.925 632.901,426.832 632.952,426.744C633.003,426.656 633.061,426.579 633.128,426.512C633.168,426.472 633.212,426.436 633.26,426.403C633.307,426.371 633.359,426.344 633.414,426.322C633.469,426.301 633.528,426.284 633.591,426.272C633.653,426.26 633.72,426.255 633.79,426.255C633.914,426.255 634.019,426.272 634.106,426.305C634.194,426.339 634.265,426.388 634.32,426.453C634.376,426.517 634.416,426.597 634.441,426.691C634.467,426.786 634.479,426.893 634.479,427.012ZM634.138,427.016C634.138,426.851 634.107,426.729 634.045,426.649C633.983,426.57 633.884,426.53 633.749,426.53C633.672,426.53 633.603,426.543 633.541,426.57C633.479,426.597 633.422,426.635 633.37,426.686C633.318,426.738 633.272,426.803 633.231,426.88C633.191,426.956 633.155,427.039 633.124,427.129C633.093,427.218 633.067,427.31 633.046,427.404C633.025,427.498 633.008,427.59 632.994,427.677C632.98,427.765 632.97,427.845 632.964,427.918C632.957,427.99 632.954,428.049 632.954,428.094C632.954,428.26 632.985,428.382 633.048,428.462C633.11,428.541 633.209,428.581 633.343,428.581C633.421,428.581 633.491,428.567 633.553,428.541C633.614,428.514 633.671,428.475 633.722,428.425C633.772,428.374 633.818,428.31 633.859,428.232C633.9,428.155 633.936,428.071 633.968,427.982C633.999,427.893 634.025,427.801 634.047,427.707C634.068,427.612 634.086,427.522 634.099,427.434C634.113,427.347 634.123,427.267 634.129,427.194C634.135,427.121 634.138,427.062 634.138,427.016ZM636.632,426.364C636.632,426.38 636.63,426.399 636.627,426.422C636.624,426.444 636.619,426.469 636.613,426.495C636.607,426.521 636.599,426.548 636.587,426.576C636.575,426.604 636.561,426.631 636.544,426.657L635.214,428.753C635.203,428.77 635.192,428.783 635.18,428.793C635.167,428.802 635.152,428.81 635.135,428.816C635.117,428.822 635.096,428.826 635.072,428.828C635.048,428.83 635.019,428.831 634.985,428.831C634.941,428.831 634.906,428.829 634.882,428.825C634.857,428.821 634.839,428.815 634.829,428.805C634.819,428.796 634.815,428.786 634.817,428.774C634.82,428.762 634.826,428.748 634.837,428.731L636.222,426.587L635.018,426.587C635,426.587 634.987,426.58 634.978,426.567C634.97,426.554 634.966,426.537 634.966,426.514C634.966,426.507 634.966,426.495 634.968,426.48C634.969,426.465 634.972,426.45 634.975,426.433C634.979,426.417 634.984,426.4 634.99,426.384C634.996,426.367 635.003,426.351 635.012,426.338C635.02,426.324 635.03,426.313 635.041,426.304C635.052,426.296 635.065,426.292 635.079,426.292L636.552,426.292C636.587,426.292 636.609,426.299 636.618,426.312C636.627,426.326 636.632,426.343 636.632,426.364ZM636.581,429.29C636.572,429.307 636.562,429.32 636.551,429.33C636.54,429.34 636.526,429.347 636.511,429.352C636.495,429.358 636.477,429.361 636.457,429.364C636.437,429.367 636.413,429.368 636.386,429.368C636.35,429.368 636.322,429.366 636.3,429.361C636.278,429.357 636.262,429.35 636.252,429.342C636.242,429.333 636.238,429.323 636.238,429.31C636.239,429.298 636.244,429.283 636.255,429.266L638.085,426.026C638.094,426.009 638.104,425.996 638.115,425.986C638.126,425.976 638.139,425.969 638.154,425.963C638.169,425.957 638.187,425.953 638.208,425.951C638.229,425.949 638.253,425.948 638.28,425.948C638.314,425.948 638.342,425.95 638.364,425.955C638.386,425.959 638.402,425.966 638.412,425.973C638.422,425.981 638.427,425.992 638.427,426.005C638.427,426.018 638.422,426.033 638.413,426.05L636.581,429.29ZM639.727,428.614C639.727,428.622 639.726,428.633 639.724,428.647C639.723,428.662 639.72,428.676 639.716,428.691C639.712,428.706 639.707,428.721 639.701,428.737C639.695,428.753 639.688,428.766 639.68,428.778C639.671,428.79 639.662,428.8 639.651,428.807C639.641,428.815 639.629,428.819 639.616,428.819L638.22,428.819C638.203,428.819 638.188,428.817 638.177,428.813C638.165,428.809 638.156,428.804 638.149,428.797C638.143,428.789 638.138,428.781 638.135,428.771C638.131,428.761 638.13,428.75 638.13,428.737C638.13,428.724 638.131,428.707 638.133,428.686C638.135,428.665 638.14,428.643 638.147,428.618C638.155,428.593 638.167,428.568 638.182,428.543C638.198,428.517 638.22,428.493 638.247,428.469L638.897,427.899C638.999,427.811 639.086,427.728 639.16,427.65C639.234,427.573 639.295,427.5 639.346,427.433C639.396,427.366 639.436,427.304 639.466,427.248C639.496,427.191 639.519,427.139 639.536,427.093C639.553,427.046 639.564,427.003 639.569,426.965C639.574,426.926 639.577,426.892 639.577,426.862C639.577,426.831 639.572,426.797 639.562,426.761C639.553,426.726 639.536,426.692 639.512,426.661C639.488,426.63 639.453,426.604 639.409,426.583C639.365,426.562 639.309,426.552 639.241,426.552C639.167,426.552 639.096,426.563 639.028,426.585C638.96,426.607 638.899,426.631 638.845,426.658C638.79,426.685 638.744,426.709 638.707,426.732C638.67,426.755 638.644,426.766 638.63,426.766C638.617,426.766 638.606,426.76 638.599,426.747C638.591,426.734 638.587,426.715 638.587,426.69C638.587,426.68 638.588,426.668 638.59,426.656C638.592,426.644 638.594,426.63 638.596,426.616C638.598,426.602 638.601,426.587 638.605,426.573C638.61,426.559 638.615,426.545 638.621,426.532C638.627,426.519 638.633,426.506 638.641,426.494C638.648,426.482 638.656,426.471 638.665,426.462C638.679,426.447 638.708,426.428 638.75,426.405C638.792,426.382 638.843,426.359 638.903,426.337C638.963,426.315 639.03,426.295 639.102,426.279C639.175,426.263 639.251,426.255 639.329,426.255C639.454,426.255 639.557,426.272 639.64,426.307C639.722,426.343 639.786,426.387 639.834,426.44C639.881,426.494 639.915,426.552 639.933,426.614C639.952,426.677 639.962,426.736 639.962,426.792C639.962,426.845 639.958,426.9 639.95,426.956C639.942,427.012 639.927,427.071 639.904,427.133C639.881,427.194 639.849,427.26 639.808,427.329C639.767,427.398 639.714,427.472 639.648,427.552C639.583,427.633 639.503,427.719 639.41,427.812C639.317,427.905 639.206,428.007 639.077,428.116L638.589,428.534L639.667,428.534C639.689,428.534 639.705,428.542 639.714,428.558C639.723,428.575 639.727,428.593 639.727,428.614ZM642.112,427.012C642.112,427.07 642.109,427.14 642.101,427.222C642.094,427.305 642.083,427.394 642.066,427.49C642.05,427.586 642.029,427.685 642.003,427.788C641.977,427.891 641.945,427.991 641.907,428.089C641.869,428.186 641.825,428.279 641.773,428.368C641.722,428.456 641.663,428.533 641.597,428.598C641.52,428.677 641.427,428.739 641.318,428.786C641.21,428.833 641.082,428.856 640.936,428.856C640.814,428.856 640.709,428.84 640.622,428.806C640.535,428.773 640.463,428.724 640.407,428.66C640.351,428.595 640.31,428.516 640.284,428.422C640.258,428.327 640.245,428.219 640.245,428.098C640.245,428.041 640.249,427.971 640.256,427.888C640.263,427.806 640.275,427.717 640.291,427.621C640.307,427.525 640.328,427.426 640.354,427.324C640.38,427.222 640.413,427.122 640.451,427.023C640.489,426.925 640.534,426.832 640.585,426.744C640.636,426.656 640.694,426.579 640.761,426.512C640.801,426.472 640.845,426.436 640.892,426.403C640.94,426.371 640.991,426.344 641.047,426.322C641.102,426.301 641.161,426.284 641.224,426.272C641.286,426.26 641.352,426.255 641.423,426.255C641.546,426.255 641.652,426.272 641.739,426.305C641.826,426.339 641.898,426.388 641.953,426.453C642.008,426.517 642.049,426.597 642.074,426.691C642.099,426.786 642.112,426.893 642.112,427.012ZM641.77,427.016C641.77,426.851 641.739,426.729 641.678,426.649C641.616,426.57 641.517,426.53 641.382,426.53C641.305,426.53 641.236,426.543 641.174,426.57C641.112,426.597 641.055,426.635 641.003,426.686C640.951,426.738 640.905,426.803 640.864,426.88C640.824,426.956 640.788,427.039 640.757,427.129C640.725,427.218 640.699,427.31 640.679,427.404C640.658,427.498 640.641,427.59 640.627,427.677C640.613,427.765 640.603,427.845 640.597,427.918C640.59,427.99 640.587,428.049 640.587,428.094C640.587,428.26 640.618,428.382 640.681,428.462C640.743,428.541 640.841,428.581 640.975,428.581C641.054,428.581 641.124,428.567 641.185,428.541C641.247,428.514 641.304,428.475 641.354,428.425C641.405,428.374 641.451,428.31 641.492,428.232C641.533,428.155 641.569,428.071 641.6,427.982C641.632,427.893 641.658,427.801 641.68,427.707C641.701,427.612 641.719,427.522 641.732,427.434C641.746,427.347 641.756,427.267 641.762,427.194C641.767,427.121 641.77,427.062 641.77,427.016ZM643.782,428.614C643.782,428.622 643.781,428.633 643.779,428.647C643.777,428.662 643.774,428.676 643.77,428.691C643.766,428.706 643.762,428.721 643.756,428.737C643.75,428.753 643.743,428.766 643.734,428.778C643.726,428.79 643.716,428.8 643.706,428.807C643.696,428.815 643.684,428.819 643.671,428.819L642.274,428.819C642.257,428.819 642.243,428.817 642.231,428.813C642.22,428.809 642.21,428.804 642.204,428.797C642.197,428.789 642.193,428.781 642.189,428.771C642.186,428.761 642.184,428.75 642.184,428.737C642.184,428.724 642.185,428.707 642.187,428.686C642.189,428.665 642.194,428.643 642.202,428.618C642.21,428.593 642.222,428.568 642.237,428.543C642.253,428.517 642.274,428.493 642.302,428.469L642.952,427.899C643.054,427.811 643.141,427.728 643.215,427.65C643.288,427.573 643.35,427.5 643.4,427.433C643.45,427.366 643.49,427.304 643.52,427.248C643.55,427.191 643.574,427.139 643.591,427.093C643.608,427.046 643.619,427.003 643.624,426.965C643.629,426.926 643.632,426.892 643.632,426.862C643.632,426.831 643.627,426.797 643.617,426.761C643.607,426.726 643.59,426.692 643.566,426.661C643.542,426.63 643.508,426.604 643.464,426.583C643.419,426.562 643.363,426.552 643.296,426.552C643.222,426.552 643.151,426.563 643.083,426.585C643.015,426.607 642.954,426.631 642.899,426.658C642.845,426.685 642.799,426.709 642.762,426.732C642.724,426.755 642.699,426.766 642.684,426.766C642.671,426.766 642.661,426.76 642.653,426.747C642.645,426.734 642.641,426.715 642.641,426.69C642.641,426.68 642.642,426.668 642.644,426.656C642.646,426.644 642.648,426.63 642.65,426.616C642.652,426.602 642.655,426.587 642.66,426.573C642.665,426.559 642.67,426.545 642.676,426.532C642.682,426.519 642.688,426.506 642.695,426.494C642.702,426.482 642.71,426.471 642.72,426.462C642.734,426.447 642.762,426.428 642.805,426.405C642.847,426.382 642.898,426.359 642.958,426.337C643.018,426.315 643.084,426.295 643.157,426.279C643.23,426.263 643.306,426.255 643.384,426.255C643.509,426.255 643.612,426.272 643.694,426.307C643.776,426.343 643.841,426.387 643.889,426.44C643.936,426.494 643.969,426.552 643.988,426.614C644.007,426.677 644.016,426.736 644.016,426.792C644.016,426.845 644.013,426.9 644.005,426.956C643.997,427.012 643.982,427.071 643.959,427.133C643.936,427.194 643.904,427.26 643.863,427.329C643.822,427.398 643.769,427.472 643.703,427.552C643.637,427.633 643.558,427.719 643.465,427.812C643.372,427.905 643.261,428.007 643.132,428.116L642.643,428.534L643.722,428.534C643.744,428.534 643.759,428.542 643.768,428.558C643.778,428.575 643.782,428.593 643.782,428.614ZM645.899,428.012C645.899,428.076 645.891,428.141 645.875,428.208C645.859,428.274 645.833,428.339 645.798,428.401C645.763,428.464 645.718,428.523 645.664,428.578C645.61,428.633 645.545,428.681 645.469,428.722C645.392,428.763 645.306,428.796 645.208,428.82C645.11,428.844 645,428.856 644.876,428.856C644.811,428.856 644.749,428.852 644.691,428.844C644.633,428.837 644.579,428.826 644.527,428.812C644.476,428.799 644.429,428.782 644.387,428.763C644.344,428.745 644.306,428.724 644.272,428.702C644.253,428.69 644.239,428.676 644.23,428.66C644.222,428.644 644.218,428.625 644.218,428.604C644.218,428.596 644.218,428.586 644.22,428.572C644.221,428.558 644.223,428.544 644.225,428.528C644.228,428.512 644.231,428.496 644.235,428.478C644.239,428.461 644.244,428.445 644.25,428.431C644.256,428.418 644.263,428.407 644.271,428.398C644.28,428.39 644.289,428.385 644.3,428.385C644.311,428.385 644.333,428.396 644.363,428.416C644.394,428.436 644.434,428.458 644.483,428.482C644.533,428.506 644.591,428.528 644.658,428.549C644.725,428.569 644.802,428.579 644.89,428.579C644.999,428.579 645.094,428.562 645.174,428.528C645.254,428.494 645.32,428.451 645.372,428.398C645.424,428.345 645.463,428.287 645.488,428.222C645.514,428.158 645.526,428.094 645.526,428.03C645.526,427.978 645.517,427.929 645.498,427.884C645.479,427.838 645.449,427.799 645.408,427.765C645.367,427.732 645.314,427.706 645.248,427.686C645.182,427.667 645.103,427.657 645.011,427.657L644.739,427.657C644.718,427.657 644.702,427.651 644.691,427.64C644.68,427.629 644.675,427.611 644.675,427.587C644.675,427.578 644.676,427.566 644.678,427.552C644.68,427.537 644.682,427.523 644.686,427.51C644.69,427.496 644.695,427.482 644.701,427.468C644.707,427.453 644.714,427.44 644.723,427.428C644.731,427.417 644.74,427.408 644.751,427.401C644.761,427.395 644.774,427.391 644.788,427.391L645.009,427.391C645.105,427.391 645.194,427.377 645.274,427.347C645.355,427.318 645.424,427.278 645.482,427.226C645.54,427.175 645.585,427.115 645.618,427.048C645.651,426.98 645.667,426.908 645.667,426.831C645.667,426.738 645.641,426.665 645.588,426.612C645.535,426.559 645.447,426.532 645.325,426.532C645.251,426.532 645.18,426.543 645.112,426.566C645.044,426.589 644.983,426.614 644.929,426.64C644.874,426.667 644.827,426.692 644.789,426.716C644.751,426.739 644.724,426.751 644.708,426.751C644.696,426.751 644.687,426.745 644.681,426.734C644.674,426.723 644.671,426.708 644.671,426.688C644.671,426.678 644.672,426.663 644.675,426.643C644.677,426.624 644.682,426.603 644.687,426.581C644.693,426.559 644.701,426.537 644.711,426.516C644.721,426.496 644.732,426.479 644.745,426.466C644.759,426.451 644.787,426.432 644.829,426.408C644.871,426.384 644.921,426.36 644.981,426.338C645.041,426.315 645.109,426.295 645.183,426.279C645.258,426.263 645.335,426.255 645.415,426.255C645.518,426.255 645.608,426.267 645.685,426.291C645.763,426.315 645.827,426.349 645.878,426.394C645.929,426.439 645.967,426.494 645.992,426.558C646.017,426.623 646.03,426.695 646.03,426.774C646.03,426.865 646.016,426.951 645.986,427.031C645.957,427.111 645.915,427.182 645.861,427.245C645.807,427.307 645.743,427.361 645.669,427.406C645.595,427.451 645.513,427.483 645.425,427.503L645.425,427.507C645.511,427.516 645.584,427.536 645.644,427.568C645.705,427.6 645.754,427.639 645.792,427.685C645.83,427.732 645.857,427.783 645.874,427.84C645.891,427.896 645.899,427.954 645.899,428.012ZM643.436,422.114C643.436,422.127 643.434,422.14 643.43,422.154C643.427,422.168 643.422,422.182 643.417,422.196C643.369,422.338 643.314,422.482 643.254,422.627C643.193,422.772 643.126,422.916 643.053,423.06C642.979,423.204 642.898,423.345 642.81,423.484C642.722,423.623 642.626,423.757 642.522,423.885C642.513,423.9 642.503,423.911 642.491,423.919C642.479,423.927 642.465,423.933 642.449,423.937C642.433,423.942 642.414,423.945 642.393,423.946C642.373,423.947 642.348,423.948 642.319,423.948C642.279,423.948 642.246,423.947 642.221,423.944C642.197,423.941 642.178,423.938 642.164,423.932C642.15,423.927 642.14,423.92 642.135,423.911C642.129,423.902 642.125,423.891 642.124,423.878L641.864,422.212C641.863,422.197 641.862,422.185 641.861,422.174C641.86,422.163 641.86,422.152 641.86,422.143C641.86,422.126 641.863,422.113 641.868,422.104C641.873,422.095 641.882,422.088 641.893,422.083C641.905,422.078 641.921,422.074 641.941,422.072C641.961,422.07 641.988,422.069 642.022,422.069C642.056,422.069 642.083,422.07 642.104,422.072C642.125,422.074 642.141,422.077 642.152,422.082C642.163,422.086 642.171,422.093 642.175,422.101C642.178,422.11 642.181,422.12 642.182,422.132L642.393,423.581L642.393,423.604L642.403,423.593C642.48,423.477 642.55,423.364 642.614,423.256C642.678,423.147 642.737,423.035 642.792,422.919C642.846,422.803 642.898,422.681 642.947,422.553C642.996,422.426 643.046,422.285 643.096,422.132C643.1,422.12 643.106,422.11 643.113,422.101C643.12,422.093 643.131,422.086 643.144,422.082C643.158,422.077 643.176,422.074 643.199,422.072C643.222,422.07 643.25,422.069 643.284,422.069C643.315,422.069 643.341,422.07 643.36,422.072C643.38,422.074 643.395,422.077 643.406,422.08C643.417,422.083 643.425,422.088 643.429,422.094C643.434,422.099 643.436,422.106 643.436,422.114ZM645.061,423.731C645.061,423.739 645.06,423.75 645.058,423.764C645.056,423.779 645.053,423.793 645.05,423.808C645.046,423.823 645.041,423.839 645.035,423.854C645.029,423.87 645.022,423.884 645.013,423.895C645.005,423.907 644.996,423.917 644.985,423.925C644.975,423.932 644.963,423.936 644.95,423.936L643.553,423.936C643.537,423.936 643.522,423.934 643.511,423.93C643.499,423.927 643.49,423.921 643.483,423.914C643.477,423.907 643.472,423.898 643.469,423.888C643.465,423.879 643.464,423.867 643.464,423.854C643.464,423.841 643.465,423.824 643.467,423.803C643.469,423.783 643.473,423.76 643.481,423.735C643.489,423.71 643.501,423.685 643.516,423.66C643.532,423.635 643.553,423.61 643.581,423.587L644.231,423.016C644.333,422.928 644.42,422.845 644.494,422.767C644.567,422.69 644.629,422.618 644.679,422.551C644.73,422.483 644.77,422.422 644.8,422.365C644.83,422.308 644.853,422.257 644.87,422.21C644.887,422.163 644.898,422.12 644.903,422.082C644.908,422.043 644.911,422.009 644.911,421.979C644.911,421.948 644.906,421.914 644.896,421.879C644.887,421.843 644.87,421.809 644.845,421.778C644.821,421.747 644.787,421.721 644.743,421.7C644.699,421.679 644.643,421.669 644.575,421.669C644.501,421.669 644.43,421.68 644.362,421.702C644.294,421.724 644.233,421.748 644.178,421.775C644.124,421.802 644.078,421.827 644.041,421.849C644.004,421.872 643.978,421.884 643.964,421.884C643.951,421.884 643.94,421.877 643.932,421.864C643.925,421.851 643.921,421.832 643.921,421.807C643.921,421.797 643.922,421.786 643.924,421.773C643.926,421.761 643.928,421.747 643.929,421.733C643.931,421.719 643.935,421.705 643.939,421.69C643.944,421.676 643.949,421.662 643.955,421.649C643.961,421.636 643.967,421.623 643.974,421.611C643.982,421.599 643.99,421.588 643.999,421.579C644.013,421.565 644.041,421.546 644.084,421.522C644.126,421.499 644.177,421.476 644.237,421.454C644.297,421.432 644.363,421.413 644.436,421.396C644.509,421.38 644.585,421.372 644.663,421.372C644.788,421.372 644.891,421.389 644.973,421.425C645.055,421.46 645.12,421.504 645.168,421.557C645.215,421.611 645.248,421.669 645.267,421.731C645.286,421.794 645.296,421.853 645.296,421.909C645.296,421.962 645.292,422.017 645.284,422.073C645.276,422.129 645.261,422.188 645.238,422.25C645.215,422.312 645.183,422.377 645.142,422.446C645.101,422.515 645.048,422.59 644.982,422.67C644.916,422.75 644.837,422.836 644.744,422.929C644.651,423.023 644.54,423.124 644.411,423.233L643.923,423.651L645.001,423.651C645.023,423.651 645.039,423.659 645.048,423.676C645.057,423.692 645.061,423.71 645.061,423.731ZM646.011,423.637C646.011,423.656 646.009,423.677 646.006,423.702C646.002,423.727 645.998,423.752 645.991,423.778C645.984,423.804 645.976,423.828 645.967,423.85C645.957,423.872 645.944,423.891 645.928,423.907C645.913,423.923 645.891,423.934 645.862,423.942C645.833,423.95 645.797,423.954 645.753,423.954C645.716,423.954 645.686,423.951 645.663,423.946C645.639,423.941 645.621,423.932 645.608,423.92C645.595,423.907 645.586,423.892 645.581,423.875C645.576,423.857 645.573,423.837 645.573,423.815C645.573,423.794 645.575,423.771 645.578,423.746C645.581,423.72 645.586,423.695 645.594,423.671C645.601,423.646 645.609,423.623 645.619,423.601C645.629,423.58 645.641,423.562 645.656,423.547C645.671,423.532 645.692,423.52 645.719,423.511C645.745,423.503 645.783,423.499 645.833,423.499C645.871,423.499 645.901,423.502 645.924,423.509C645.946,423.515 645.964,423.524 645.977,423.537C645.99,423.549 645.999,423.564 646.004,423.581C646.008,423.598 646.011,423.617 646.011,423.637ZM648.456,422.13C648.456,422.187 648.452,422.257 648.445,422.34C648.438,422.422 648.426,422.511 648.41,422.607C648.394,422.703 648.373,422.802 648.346,422.905C648.32,423.008 648.289,423.108 648.251,423.206C648.213,423.303 648.168,423.397 648.117,423.485C648.066,423.574 648.007,423.65 647.94,423.716C647.863,423.794 647.771,423.856 647.662,423.903C647.553,423.95 647.426,423.973 647.28,423.973C647.158,423.973 647.053,423.957 646.966,423.924C646.878,423.89 646.807,423.842 646.751,423.777C646.695,423.713 646.654,423.633 646.628,423.539C646.602,423.444 646.589,423.337 646.589,423.216C646.589,423.158 646.592,423.088 646.599,423.006C646.607,422.923 646.618,422.834 646.635,422.738C646.651,422.642 646.672,422.543 646.698,422.441C646.724,422.339 646.756,422.239 646.795,422.14C646.833,422.042 646.878,421.949 646.928,421.861C646.979,421.773 647.038,421.696 647.104,421.63C647.145,421.589 647.189,421.553 647.236,421.52C647.284,421.488 647.335,421.461 647.39,421.439C647.446,421.418 647.505,421.401 647.567,421.389C647.63,421.378 647.696,421.372 647.766,421.372C647.89,421.372 647.996,421.389 648.083,421.423C648.17,421.456 648.241,421.506 648.297,421.57C648.352,421.635 648.392,421.714 648.418,421.808C648.443,421.903 648.456,422.01 648.456,422.13ZM648.114,422.134C648.114,421.968 648.083,421.846 648.021,421.766C647.959,421.687 647.861,421.647 647.725,421.647C647.649,421.647 647.579,421.661 647.517,421.687C647.456,421.714 647.399,421.753 647.346,421.803C647.294,421.856 647.248,421.92 647.208,421.997C647.167,422.074 647.132,422.157 647.1,422.246C647.069,422.335 647.043,422.427 647.022,422.521C647.001,422.616 646.984,422.707 646.97,422.795C646.957,422.883 646.947,422.963 646.94,423.035C646.934,423.107 646.93,423.166 646.93,423.212C646.93,423.377 646.962,423.499 647.024,423.579C647.087,423.658 647.185,423.698 647.319,423.698C647.397,423.698 647.467,423.685 647.529,423.658C647.591,423.631 647.647,423.593 647.698,423.542C647.749,423.491 647.795,423.427 647.836,423.349C647.877,423.272 647.913,423.189 647.944,423.099C647.975,423.01 648.002,422.918 648.023,422.824C648.045,422.73 648.062,422.639 648.076,422.552C648.09,422.464 648.099,422.384 648.105,422.311C648.111,422.238 648.114,422.179 648.114,422.134ZM650.372,422.678C650.372,422.757 650.365,422.843 650.35,422.937C650.336,423.032 650.313,423.127 650.281,423.222C650.249,423.318 650.209,423.411 650.161,423.502C650.113,423.592 650.054,423.672 649.984,423.742C649.914,423.812 649.834,423.868 649.744,423.91C649.653,423.952 649.552,423.973 649.438,423.973C649.321,423.973 649.221,423.951 649.137,423.907C649.054,423.863 648.98,423.799 648.915,423.716L648.88,423.887C648.877,423.91 648.863,423.925 648.838,423.934C648.812,423.943 648.774,423.948 648.721,423.948C648.667,423.948 648.63,423.943 648.612,423.932C648.594,423.922 648.587,423.907 648.593,423.887L649.112,421.278C649.115,421.268 649.119,421.259 649.125,421.251C649.131,421.243 649.14,421.236 649.154,421.231C649.168,421.226 649.185,421.222 649.207,421.219C649.228,421.217 649.255,421.216 649.288,421.216C649.319,421.216 649.345,421.217 649.364,421.219C649.384,421.222 649.399,421.226 649.411,421.231C649.423,421.236 649.43,421.243 649.432,421.251C649.435,421.259 649.436,421.268 649.434,421.278L649.278,422.063C649.272,422.097 649.264,422.132 649.255,422.169C649.246,422.205 649.236,422.241 649.226,422.277C649.217,422.313 649.207,422.347 649.197,422.379C649.187,422.411 649.178,422.438 649.171,422.462C649.192,422.416 649.224,422.369 649.269,422.32C649.314,422.271 649.367,422.226 649.428,422.185C649.488,422.144 649.554,422.11 649.626,422.083C649.697,422.055 649.77,422.042 649.843,422.042C649.921,422.042 649.988,422.052 650.044,422.073C650.1,422.094 650.147,422.122 650.186,422.156C650.225,422.191 650.257,422.23 650.281,422.274C650.305,422.318 650.324,422.364 650.337,422.411C650.35,422.458 650.359,422.504 650.364,422.551C650.369,422.597 650.372,422.639 650.372,422.678ZM650.034,422.706C650.034,422.671 650.031,422.63 650.024,422.585C650.018,422.539 650.005,422.497 649.986,422.458C649.967,422.419 649.94,422.386 649.904,422.359C649.868,422.332 649.82,422.319 649.761,422.319C649.69,422.319 649.619,422.339 649.546,422.38C649.473,422.42 649.405,422.476 649.343,422.547C649.28,422.618 649.224,422.701 649.176,422.797C649.127,422.892 649.091,422.997 649.069,423.11L649.005,423.434C649.066,423.524 649.132,423.591 649.202,423.634C649.272,423.677 649.352,423.698 649.44,423.698C649.508,423.698 649.569,423.682 649.624,423.651C649.678,423.62 649.728,423.578 649.772,423.526C649.817,423.474 649.855,423.414 649.887,423.347C649.92,423.28 649.947,423.21 649.969,423.136C649.99,423.063 650.006,422.989 650.017,422.915C650.028,422.841 650.034,422.771 650.034,422.706Z"/>
    </g>
</svg>
