<?xml version="1.0" encoding="UTF-8" standalone="no"?>
<!DOCTYPE svg PUBLIC "-//W3C//DTD SVG 1.1//EN" "http://www.w3.org/Graphics/SVG/1.1/DTD/svg11.dtd">
<svg width="100%" height="100%" viewBox="0 0 30 7" version="1.1" xmlns="http://www.w3.org/2000/svg" xmlns:xlink="http://www.w3.org/1999/xlink" xml:space="preserve" xmlns:serif="http://www.serif.com/" style="fill-rule:evenodd;clip-rule:evenodd;stroke-linejoin:round;stroke-miterlimit:2;">
    <g transform="matrix(1,0,0,1,-715.804,-398.426)">
        <path d="M745.284,404.603L715.804,404.603L715.804,398.426L745.284,398.426L745.284,404.603ZM736.177,401.692C736.177,401.666 736.176,401.643 736.173,401.624C736.17,401.605 736.166,401.59 736.16,401.578C736.155,401.567 736.149,401.559 736.141,401.554C736.134,401.549 736.126,401.547 736.119,401.547L735.659,401.547L735.659,401.052C735.659,401.042 735.656,401.033 735.651,401.025C735.646,401.016 735.638,401.01 735.626,401.004C735.615,400.999 735.599,400.995 735.58,400.992C735.56,400.989 735.536,400.987 735.506,400.987C735.477,400.987 735.453,400.989 735.433,400.992C735.414,400.995 735.398,400.999 735.386,401.004C735.375,401.01 735.366,401.016 735.361,401.025C735.355,401.033 735.353,401.042 735.353,401.052L735.353,401.547L734.894,401.547C734.885,401.547 734.877,401.549 734.871,401.554C734.864,401.559 734.858,401.567 734.852,401.578C734.847,401.59 734.843,401.605 734.84,401.624C734.837,401.643 734.835,401.666 734.835,401.692C734.835,401.719 734.837,401.742 734.841,401.761C734.844,401.779 734.849,401.794 734.854,401.806C734.86,401.817 734.867,401.825 734.874,401.83C734.882,401.835 734.89,401.837 734.898,401.837L735.353,401.837L735.353,402.334C735.353,402.343 735.355,402.352 735.361,402.359C735.366,402.367 735.375,402.373 735.386,402.378C735.398,402.384 735.414,402.388 735.433,402.391C735.453,402.394 735.477,402.395 735.506,402.395C735.536,402.395 735.56,402.394 735.58,402.391C735.599,402.388 735.615,402.384 735.626,402.378C735.638,402.373 735.646,402.367 735.651,402.359C735.656,402.352 735.659,402.343 735.659,402.334L735.659,401.837L736.114,401.837C736.123,401.837 736.131,401.835 736.139,401.83C736.147,401.825 736.154,401.817 736.16,401.806C736.166,401.794 736.17,401.779 736.173,401.761C736.176,401.742 736.177,401.719 736.177,401.692ZM737.645,401.979C737.645,401.922 737.635,401.869 737.616,401.82C737.596,401.771 737.568,401.727 737.531,401.688C737.495,401.649 737.45,401.616 737.397,401.59C737.345,401.564 737.285,401.547 737.219,401.54L737.219,401.535C737.274,401.522 737.323,401.501 737.366,401.474C737.408,401.446 737.444,401.413 737.472,401.374C737.5,401.335 737.522,401.291 737.537,401.241C737.551,401.191 737.559,401.137 737.559,401.08C737.559,401.005 737.546,400.939 737.521,400.88C737.496,400.821 737.46,400.771 737.411,400.73C737.363,400.69 737.303,400.659 737.233,400.637C737.162,400.616 737.081,400.605 736.989,400.605C736.918,400.605 736.853,400.611 736.793,400.623C736.733,400.636 736.68,400.65 736.634,400.668C736.588,400.686 736.55,400.704 736.52,400.722C736.49,400.741 736.47,400.755 736.46,400.764C736.45,400.773 736.443,400.782 736.439,400.79C736.434,400.797 736.431,400.807 736.428,400.817C736.425,400.828 736.423,400.842 736.422,400.858C736.421,400.874 736.42,400.894 736.42,400.919C736.42,400.948 736.421,400.972 736.423,400.99C736.425,401.009 736.428,401.023 736.432,401.033C736.436,401.043 736.441,401.049 736.447,401.053C736.453,401.056 736.459,401.058 736.467,401.058C736.479,401.058 736.497,401.05 736.522,401.034C736.547,401.019 736.577,401.002 736.613,400.984C736.649,400.966 736.689,400.949 736.734,400.934C736.779,400.919 736.827,400.911 736.877,400.911C736.922,400.911 736.961,400.917 736.995,400.93C737.028,400.942 737.055,400.958 737.076,400.979C737.097,401 737.113,401.025 737.124,401.054C737.134,401.083 737.14,401.113 737.14,401.146C737.14,401.188 737.132,401.226 737.116,401.261C737.101,401.295 737.078,401.325 737.048,401.349C737.018,401.374 736.981,401.392 736.938,401.406C736.894,401.419 736.843,401.425 736.787,401.425L736.621,401.425C736.609,401.425 736.599,401.427 736.591,401.431C736.583,401.435 736.576,401.442 736.571,401.452C736.565,401.462 736.561,401.475 736.559,401.493C736.556,401.512 736.555,401.535 736.555,401.563C736.555,401.593 736.556,401.618 736.559,401.637C736.561,401.656 736.565,401.671 736.571,401.682C736.577,401.692 736.584,401.7 736.593,401.703C736.602,401.706 736.613,401.708 736.625,401.708L736.79,401.708C736.859,401.708 736.919,401.715 736.97,401.729C737.022,401.742 737.064,401.762 737.098,401.786C737.132,401.811 737.157,401.841 737.174,401.877C737.191,401.912 737.2,401.951 737.2,401.995C737.2,402.035 737.193,402.072 737.178,402.104C737.164,402.137 737.143,402.165 737.114,402.188C737.085,402.211 737.05,402.229 737.009,402.241C736.968,402.254 736.921,402.26 736.867,402.26C736.804,402.26 736.747,402.254 736.697,402.241C736.647,402.227 736.604,402.213 736.567,402.198C736.53,402.183 736.499,402.169 736.475,402.156C736.451,402.142 736.435,402.136 736.425,402.136C736.409,402.136 736.397,402.145 736.39,402.163C736.382,402.181 736.378,402.213 736.378,402.26C736.378,402.289 736.379,402.313 736.38,402.333C736.382,402.353 736.384,402.369 736.387,402.383C736.391,402.396 736.395,402.407 736.399,402.417C736.404,402.427 736.41,402.436 736.419,402.443C736.428,402.451 736.446,402.462 736.475,402.477C736.503,402.492 736.539,402.506 736.582,402.52C736.626,402.533 736.676,402.545 736.732,402.554C736.789,402.563 736.85,402.568 736.914,402.568C737.021,402.568 737.119,402.555 737.208,402.529C737.298,402.503 737.375,402.465 737.44,402.416C737.504,402.366 737.555,402.304 737.591,402.231C737.627,402.158 737.645,402.074 737.645,401.979ZM739.204,401.901C739.204,401.816 739.193,401.739 739.173,401.67C739.152,401.601 739.12,401.542 739.077,401.493C739.033,401.444 738.978,401.406 738.909,401.38C738.841,401.354 738.759,401.34 738.663,401.34C738.62,401.34 738.58,401.344 738.542,401.35C738.503,401.356 738.468,401.364 738.435,401.374C738.403,401.384 738.372,401.396 738.344,401.409C738.317,401.423 738.292,401.437 738.271,401.45C738.271,401.376 738.28,401.306 738.295,401.239C738.311,401.173 738.336,401.115 738.37,401.064C738.404,401.014 738.449,400.974 738.503,400.945C738.558,400.916 738.625,400.901 738.704,400.901C738.751,400.901 738.792,400.904 738.828,400.91C738.864,400.916 738.895,400.922 738.921,400.93C738.947,400.938 738.97,400.945 738.988,400.951C739.007,400.958 739.022,400.961 739.034,400.961C739.043,400.961 739.052,400.959 739.059,400.954C739.065,400.949 739.071,400.941 739.075,400.93C739.079,400.918 739.081,400.903 739.083,400.883C739.084,400.863 739.085,400.837 739.085,400.807C739.085,400.788 739.084,400.771 739.083,400.757C739.083,400.744 739.081,400.732 739.078,400.723C739.076,400.714 739.073,400.705 739.069,400.697C739.065,400.69 739.059,400.682 739.052,400.676C739.045,400.67 739.03,400.662 739.007,400.653C738.985,400.645 738.958,400.637 738.925,400.63C738.893,400.623 738.858,400.618 738.821,400.613C738.783,400.609 738.746,400.607 738.708,400.607C738.591,400.607 738.49,400.622 738.405,400.653C738.319,400.685 738.246,400.727 738.186,400.78C738.126,400.833 738.077,400.895 738.039,400.966C738.001,401.037 737.971,401.111 737.95,401.19C737.929,401.268 737.915,401.347 737.908,401.428C737.901,401.509 737.897,401.587 737.897,401.661C737.897,401.75 737.9,401.834 737.907,401.913C737.914,401.992 737.927,402.066 737.945,402.133C737.963,402.2 737.987,402.261 738.017,402.315C738.047,402.368 738.086,402.414 738.134,402.451C738.182,402.489 738.239,402.518 738.304,402.538C738.37,402.558 738.446,402.568 738.534,402.568C738.643,402.568 738.738,402.551 738.821,402.517C738.904,402.484 738.974,402.437 739.031,402.378C739.087,402.319 739.13,402.249 739.16,402.167C739.189,402.086 739.204,401.997 739.204,401.901ZM738.826,401.938C738.826,401.986 738.82,402.03 738.808,402.071C738.796,402.111 738.779,402.147 738.757,402.177C738.734,402.207 738.706,402.231 738.673,402.247C738.639,402.264 738.6,402.272 738.555,402.272C738.509,402.272 738.469,402.264 738.434,402.246C738.399,402.229 738.37,402.2 738.347,402.159C738.324,402.118 738.307,402.063 738.295,401.993C738.284,401.923 738.278,401.836 738.278,401.732C738.298,401.718 738.32,401.705 738.344,401.693C738.367,401.681 738.392,401.67 738.417,401.661C738.442,401.652 738.468,401.646 738.495,401.641C738.521,401.636 738.548,401.633 738.575,401.633C738.621,401.633 738.66,401.64 738.692,401.653C738.725,401.666 738.75,401.686 738.77,401.712C738.79,401.738 738.804,401.769 738.813,401.807C738.821,401.845 738.826,401.888 738.826,401.938ZM723.965,402.399L723.965,400.696C723.965,400.686 723.963,400.677 723.958,400.67C723.953,400.662 723.945,400.655 723.932,400.649C723.92,400.643 723.903,400.639 723.88,400.637C723.858,400.634 723.83,400.633 723.797,400.633C723.762,400.633 723.733,400.634 723.71,400.637C723.688,400.639 723.67,400.643 723.656,400.649C723.643,400.655 723.633,400.662 723.627,400.67C723.621,400.677 723.618,400.686 723.618,400.696L723.618,401.585C723.618,401.652 723.619,401.723 723.62,401.797C723.622,401.872 723.623,401.943 723.626,402.011C723.609,401.972 723.59,401.933 723.571,401.894C723.553,401.855 723.534,401.815 723.514,401.775C723.495,401.734 723.474,401.694 723.453,401.653C723.432,401.613 723.411,401.571 723.39,401.529L723.021,400.837C723.002,400.798 722.984,400.766 722.966,400.741C722.949,400.715 722.93,400.694 722.91,400.68C722.89,400.665 722.867,400.655 722.842,400.648C722.816,400.642 722.785,400.639 722.748,400.639L722.542,400.639C722.502,400.639 722.47,400.65 722.443,400.673C722.416,400.696 722.402,400.731 722.402,400.776L722.402,402.48C722.402,402.49 722.405,402.499 722.41,402.506C722.415,402.514 722.423,402.521 722.436,402.526C722.449,402.532 722.466,402.536 722.489,402.539C722.511,402.542 722.54,402.543 722.574,402.543C722.609,402.543 722.638,402.542 722.66,402.539C722.683,402.536 722.7,402.532 722.714,402.526C722.727,402.521 722.736,402.514 722.742,402.506C722.747,402.499 722.75,402.49 722.75,402.48L722.75,401.488C722.75,401.414 722.749,401.342 722.747,401.272C722.745,401.202 722.742,401.132 722.738,401.062L722.741,401.062C722.763,401.12 722.789,401.179 722.817,401.24C722.845,401.301 722.873,401.358 722.9,401.411L723.372,402.297C723.397,402.346 723.419,402.386 723.438,402.416C723.458,402.447 723.478,402.472 723.499,402.49C723.52,402.508 723.543,402.52 723.568,402.527C723.593,402.534 723.622,402.537 723.656,402.537L723.82,402.537C723.839,402.537 723.857,402.535 723.875,402.529C723.893,402.524 723.909,402.515 723.922,402.504C723.935,402.492 723.946,402.477 723.954,402.46C723.961,402.442 723.965,402.422 723.965,402.399ZM722.011,400.933C722.011,400.884 722.008,400.847 722.002,400.823C721.997,400.798 721.987,400.778 721.974,400.765C721.961,400.751 721.938,400.735 721.904,400.716C721.871,400.698 721.829,400.681 721.779,400.664C721.729,400.648 721.67,400.635 721.603,400.623C721.535,400.612 721.46,400.607 721.378,400.607C721.229,400.607 721.094,400.629 720.972,400.675C720.85,400.721 720.747,400.787 720.661,400.874C720.575,400.96 720.508,401.065 720.461,401.189C720.415,401.312 720.391,401.452 720.391,401.607C720.391,401.757 720.413,401.892 720.457,402.011C720.501,402.129 720.564,402.23 720.648,402.312C720.731,402.395 720.832,402.458 720.951,402.501C721.071,402.545 721.207,402.566 721.358,402.566C721.41,402.566 721.461,402.564 721.512,402.559C721.564,402.554 721.615,402.547 721.665,402.537C721.715,402.527 721.764,402.516 721.811,402.502C721.857,402.488 721.897,402.475 721.929,402.462C721.96,402.45 721.981,402.432 721.992,402.41C722.002,402.389 722.007,402.363 722.007,402.334L722.007,401.579C722.007,401.56 722.004,401.542 722,401.527C721.995,401.512 721.988,401.499 721.978,401.488C721.969,401.478 721.958,401.47 721.946,401.464C721.934,401.459 721.92,401.456 721.904,401.456L721.264,401.456C721.255,401.456 721.248,401.459 721.241,401.464C721.234,401.47 721.228,401.478 721.223,401.489C721.218,401.5 721.215,401.515 721.212,401.534C721.21,401.552 721.209,401.575 721.209,401.603C721.209,401.655 721.213,401.693 721.223,401.715C721.233,401.737 721.247,401.748 721.264,401.748L721.623,401.748L721.623,402.187C721.587,402.207 721.548,402.221 721.506,402.231C721.464,402.241 721.421,402.246 721.378,402.246C721.291,402.246 721.21,402.232 721.137,402.203C721.065,402.175 721.002,402.133 720.951,402.077C720.899,402.022 720.859,401.952 720.83,401.87C720.801,401.787 720.787,401.692 720.787,401.584C720.787,401.485 720.801,401.395 720.829,401.313C720.857,401.232 720.898,401.162 720.951,401.104C721.003,401.046 721.067,401.001 721.141,400.969C721.215,400.937 721.298,400.921 721.39,400.921C721.476,400.921 721.552,400.93 721.617,400.948C721.681,400.965 721.737,400.984 721.784,401.005C721.831,401.025 721.869,401.045 721.897,401.062C721.925,401.08 721.946,401.088 721.959,401.088C721.967,401.088 721.975,401.086 721.981,401.081C721.988,401.076 721.993,401.068 721.997,401.056C722.002,401.043 722.005,401.027 722.008,401.006C722.01,400.986 722.011,400.962 722.011,400.933ZM730.71,403.842L730.71,399.188C730.71,399.096 730.636,399.021 730.544,399.021C730.452,399.021 730.377,399.096 730.377,399.188L730.377,403.842C730.377,403.934 730.452,404.008 730.544,404.008C730.636,404.008 730.71,403.934 730.71,403.842ZM740.444,402.467L741.01,400.785C741.021,400.751 741.029,400.724 741.032,400.703C741.036,400.683 741.033,400.667 741.024,400.656C741.014,400.644 740.997,400.637 740.972,400.634C740.948,400.631 740.913,400.63 740.868,400.63C740.822,400.63 740.786,400.631 740.759,400.633C740.733,400.635 740.713,400.639 740.698,400.645C740.684,400.65 740.674,400.659 740.668,400.669C740.663,400.679 740.658,400.692 740.654,400.709L740.2,402.164L739.738,400.702C739.733,400.687 739.728,400.675 739.723,400.665C739.718,400.655 739.708,400.648 739.694,400.643C739.681,400.638 739.661,400.635 739.636,400.633C739.61,400.631 739.575,400.63 739.53,400.63C739.478,400.63 739.437,400.631 739.407,400.634C739.378,400.636 739.357,400.642 739.345,400.653C739.333,400.663 739.328,400.678 739.33,400.699C739.333,400.719 739.34,400.747 739.352,400.782L739.916,402.462C739.919,402.475 739.924,402.486 739.928,402.494C739.932,402.502 739.939,402.509 739.947,402.515C739.955,402.521 739.966,402.526 739.978,402.53C739.99,402.534 740.006,402.537 740.025,402.539C740.045,402.541 740.069,402.542 740.096,402.542C740.124,402.543 740.158,402.543 740.197,402.543C740.246,402.543 740.285,402.542 740.315,402.541C740.346,402.539 740.37,402.536 740.387,402.531C740.405,402.525 740.417,402.517 740.425,402.507C740.433,402.497 740.439,402.483 740.444,402.467ZM725.953,401.559C725.953,401.408 725.932,401.276 725.89,401.162C725.848,401.047 725.787,400.951 725.706,400.874C725.626,400.796 725.527,400.738 725.409,400.698C725.291,400.659 725.148,400.639 724.979,400.639L724.493,400.639C724.46,400.639 724.433,400.648 724.411,400.667C724.389,400.686 724.378,400.717 724.378,400.76L724.378,402.413C724.378,402.456 724.389,402.487 724.411,402.506C724.433,402.525 724.46,402.534 724.493,402.534L724.945,402.534C725.113,402.534 725.258,402.516 725.38,402.479C725.501,402.443 725.605,402.385 725.689,402.307C725.774,402.229 725.84,402.128 725.885,402.005C725.93,401.881 725.953,401.733 725.953,401.559ZM725.555,401.572C725.555,401.681 725.543,401.777 725.519,401.859C725.495,401.941 725.459,402.01 725.41,402.065C725.362,402.12 725.302,402.161 725.23,402.189C725.157,402.216 725.068,402.23 724.963,402.23L724.762,402.23L724.762,400.941L724.957,400.941C725.075,400.941 725.171,400.956 725.243,400.988C725.316,401.02 725.376,401.064 725.422,401.121C725.469,401.177 725.502,401.244 725.523,401.321C725.544,401.399 725.555,401.482 725.555,401.572Z"/>
    </g>
</svg>
