<?xml version="1.0" encoding="UTF-8" standalone="no"?>
<!DOCTYPE svg PUBLIC "-//W3C//DTD SVG 1.1//EN" "http://www.w3.org/Graphics/SVG/1.1/DTD/svg11.dtd">
<svg width="100%" height="100%" viewBox="0 0 51 18" version="1.1" xmlns="http://www.w3.org/2000/svg" xmlns:xlink="http://www.w3.org/1999/xlink" xml:space="preserve" xmlns:serif="http://www.serif.com/" style="fill-rule:evenodd;clip-rule:evenodd;stroke-linejoin:round;stroke-miterlimit:2;">
    <g transform="matrix(1,0,0,1,-717.544,-380.682)">
        <path d="M734.441,383.577L734.441,389.616L726.357,391.621L720.182,387.111L734.441,383.577ZM719.2,387.362L725.374,391.87L717.544,393.819L717.544,387.753L719.2,387.362ZM729.669,391.593L734.441,394.988L734.441,397.437L734.272,397.437L727.17,392.205L729.669,391.593ZM726.188,392.456L732.981,397.437L717.544,397.437L717.544,394.599L726.188,392.456ZM734.441,390.424L734.441,394.042L730.651,391.342L734.441,390.424ZM717.544,380.682L734.44,380.682L734.44,382.798L719.368,386.528L717.544,386.974L717.544,380.682ZM768.409,387.857L735.099,387.857L735.099,380.682L768.409,380.682L768.409,387.857ZM748.425,385.857C748.425,385.805 748.423,385.761 748.419,385.726C748.414,385.691 748.407,385.663 748.399,385.642C748.39,385.62 748.378,385.605 748.365,385.595C748.352,385.585 748.337,385.58 748.321,385.58L747.069,385.58L747.069,384.6L748.119,384.6C748.135,384.6 748.15,384.595 748.164,384.586C748.177,384.577 748.188,384.563 748.197,384.542C748.206,384.521 748.213,384.494 748.217,384.46C748.222,384.426 748.224,384.383 748.224,384.331C748.224,384.281 748.222,384.239 748.217,384.204C748.213,384.169 748.206,384.141 748.197,384.12C748.188,384.1 748.177,384.085 748.164,384.075C748.15,384.065 748.135,384.06 748.119,384.06L747.069,384.06L747.069,383.211L748.31,383.211C748.326,383.211 748.34,383.206 748.353,383.197C748.365,383.187 748.376,383.171 748.385,383.15C748.394,383.128 748.401,383.1 748.405,383.065C748.41,383.03 748.412,382.987 748.412,382.937C748.412,382.884 748.41,382.839 748.405,382.804C748.401,382.77 748.394,382.741 748.385,382.718C748.376,382.696 748.365,382.68 748.353,382.671C748.34,382.663 748.326,382.658 748.31,382.658L746.575,382.658C746.516,382.658 746.466,382.676 746.426,382.71C746.386,382.745 746.366,382.802 746.366,382.881L746.366,385.91C746.366,385.989 746.386,386.046 746.426,386.081C746.466,386.116 746.516,386.133 746.575,386.133L748.321,386.133C748.337,386.133 748.352,386.128 748.365,386.118C748.378,386.109 748.39,386.093 748.399,386.071C748.407,386.05 748.414,386.022 748.419,385.987C748.423,385.952 748.425,385.908 748.425,385.857ZM739.378,385.607C739.378,385.542 739.376,385.491 739.372,385.452C739.369,385.414 739.363,385.384 739.356,385.362C739.349,385.341 739.34,385.327 739.329,385.319C739.319,385.312 739.304,385.309 739.286,385.309C739.263,385.309 739.231,385.323 739.188,385.352C739.146,385.38 739.093,385.413 739.027,385.448C738.962,385.484 738.884,385.517 738.792,385.546C738.701,385.576 738.593,385.591 738.467,385.591C738.33,385.591 738.206,385.567 738.095,385.52C737.985,385.472 737.891,385.4 737.813,385.303C737.736,385.207 737.676,385.084 737.634,384.934C737.591,384.785 737.57,384.608 737.57,384.404C737.57,384.217 737.59,384.05 737.629,383.901C737.669,383.753 737.727,383.626 737.803,383.521C737.879,383.417 737.971,383.336 738.079,383.28C738.188,383.223 738.311,383.195 738.449,383.195C738.574,383.195 738.682,383.211 738.772,383.242C738.863,383.274 738.94,383.308 739.006,383.347C739.071,383.385 739.124,383.42 739.166,383.452C739.207,383.483 739.241,383.499 739.268,383.499C739.284,383.499 739.298,383.493 739.311,383.483C739.323,383.472 739.334,383.455 739.343,383.432C739.352,383.408 739.358,383.378 739.362,383.34C739.365,383.303 739.367,383.257 739.367,383.203C739.367,383.153 739.366,383.111 739.363,383.077C739.36,383.043 739.356,383.013 739.351,382.988C739.346,382.963 739.338,382.943 739.329,382.927C739.32,382.911 739.304,382.89 739.28,382.866C739.256,382.842 739.213,382.813 739.152,382.779C739.091,382.745 739.023,382.715 738.947,382.689C738.871,382.663 738.788,382.642 738.698,382.626C738.609,382.61 738.516,382.602 738.419,382.602C738.181,382.602 737.963,382.642 737.765,382.723C737.567,382.803 737.398,382.921 737.256,383.077C737.115,383.233 737.005,383.425 736.926,383.654C736.847,383.884 736.808,384.146 736.808,384.441C736.808,384.731 736.844,384.986 736.915,385.204C736.987,385.422 737.09,385.605 737.224,385.75C737.358,385.896 737.521,386.006 737.713,386.079C737.904,386.153 738.119,386.19 738.357,386.19C738.479,386.19 738.592,386.18 738.697,386.16C738.802,386.14 738.895,386.116 738.976,386.086C739.058,386.057 739.127,386.026 739.183,385.994C739.239,385.961 739.278,385.935 739.297,385.914C739.317,385.894 739.331,385.875 739.34,385.859C739.349,385.843 739.356,385.824 739.362,385.801C739.367,385.779 739.371,385.752 739.374,385.721C739.376,385.69 739.378,385.652 739.378,385.607ZM751.935,384.345C751.935,384.069 751.897,383.826 751.82,383.617C751.743,383.407 751.631,383.231 751.483,383.089C751.335,382.947 751.153,382.839 750.938,382.767C750.722,382.694 750.459,382.658 750.15,382.658L749.258,382.658C749.199,382.658 749.149,382.676 749.109,382.71C749.069,382.745 749.048,382.802 749.048,382.881L749.048,385.91C749.048,385.989 749.069,386.046 749.109,386.081C749.149,386.116 749.199,386.133 749.258,386.133L750.088,386.133C750.396,386.133 750.661,386.1 750.884,386.032C751.107,385.965 751.296,385.86 751.452,385.717C751.608,385.574 751.727,385.389 751.811,385.162C751.894,384.936 751.935,384.663 751.935,384.345ZM751.205,384.369C751.205,384.569 751.183,384.745 751.139,384.895C751.095,385.046 751.029,385.171 750.94,385.272C750.852,385.374 750.741,385.449 750.609,385.499C750.476,385.55 750.313,385.575 750.12,385.575L749.752,385.575L749.752,383.211L750.109,383.211C750.326,383.211 750.501,383.24 750.634,383.299C750.768,383.357 750.877,383.438 750.962,383.542C751.047,383.645 751.109,383.768 751.147,383.91C751.186,384.051 751.205,384.204 751.205,384.369ZM762.181,383.644C762.181,383.626 762.176,383.61 762.167,383.597C762.158,383.583 762.142,383.572 762.119,383.563C762.096,383.554 762.063,383.548 762.021,383.544C761.979,383.541 761.925,383.539 761.859,383.539C761.79,383.539 761.735,383.541 761.693,383.546C761.651,383.55 761.618,383.556 761.593,383.564C761.568,383.572 761.549,383.584 761.538,383.599C761.526,383.615 761.517,383.633 761.512,383.654L760.975,385.413L760.959,385.481L760.943,385.413L760.398,383.654C760.39,383.633 760.381,383.615 760.371,383.599C760.36,383.584 760.342,383.572 760.316,383.564C760.29,383.556 760.254,383.55 760.21,383.546C760.165,383.541 760.106,383.539 760.032,383.539C759.966,383.539 759.911,383.541 759.867,383.544C759.823,383.548 759.789,383.554 759.764,383.563C759.739,383.572 759.721,383.583 759.711,383.597C759.702,383.61 759.697,383.626 759.697,383.644C759.697,383.654 759.697,383.666 759.698,383.679C759.699,383.691 759.702,383.712 759.709,383.74C759.715,383.769 759.723,383.801 759.734,383.837L760.454,386.004C760.463,386.033 760.475,386.057 760.49,386.075C760.505,386.094 760.53,386.109 760.564,386.12C760.598,386.13 760.645,386.138 760.705,386.143C760.765,386.147 760.842,386.149 760.937,386.149C761.034,386.149 761.112,386.147 761.172,386.144C761.232,386.14 761.28,386.133 761.315,386.122C761.35,386.112 761.375,386.097 761.39,386.078C761.405,386.059 761.417,386.035 761.426,386.004L762.146,383.837C762.153,383.812 762.159,383.79 762.163,383.77C762.168,383.75 762.171,383.733 762.174,383.718C762.177,383.702 762.179,383.688 762.179,383.676C762.18,383.663 762.181,383.653 762.181,383.644ZM742.289,385.607C742.289,385.542 742.287,385.491 742.284,385.452C742.28,385.414 742.275,385.384 742.267,385.362C742.26,385.341 742.251,385.327 742.241,385.319C742.23,385.312 742.216,385.309 742.198,385.309C742.174,385.309 742.142,385.323 742.1,385.352C742.058,385.38 742.004,385.413 741.938,385.448C741.873,385.484 741.795,385.517 741.703,385.546C741.612,385.576 741.504,385.591 741.379,385.591C741.241,385.591 741.117,385.567 741.007,385.52C740.896,385.472 740.802,385.4 740.725,385.303C740.647,385.207 740.587,385.084 740.545,384.934C740.503,384.785 740.482,384.608 740.482,384.404C740.482,384.217 740.501,384.05 740.541,383.901C740.58,383.753 740.638,383.626 740.714,383.521C740.79,383.417 740.882,383.336 740.99,383.28C741.099,383.223 741.222,383.195 741.36,383.195C741.485,383.195 741.593,383.211 741.683,383.242C741.774,383.274 741.852,383.308 741.917,383.347C741.982,383.385 742.036,383.42 742.077,383.452C742.118,383.483 742.152,383.499 742.179,383.499C742.195,383.499 742.209,383.493 742.222,383.483C742.234,383.472 742.245,383.455 742.254,383.432C742.263,383.408 742.269,383.378 742.273,383.34C742.276,383.303 742.278,383.257 742.278,383.203C742.278,383.153 742.277,383.111 742.274,383.077C742.271,383.043 742.267,383.013 742.262,382.988C742.257,382.963 742.25,382.943 742.241,382.927C742.232,382.911 742.215,382.89 742.191,382.866C742.167,382.842 742.124,382.813 742.063,382.779C742.002,382.745 741.934,382.715 741.858,382.689C741.782,382.663 741.699,382.642 741.609,382.626C741.52,382.61 741.427,382.602 741.33,382.602C741.092,382.602 740.874,382.642 740.676,382.723C740.478,382.803 740.309,382.921 740.167,383.077C740.026,383.233 739.916,383.425 739.837,383.654C739.758,383.884 739.719,384.146 739.719,384.441C739.719,384.731 739.755,384.986 739.826,385.204C739.898,385.422 740.001,385.605 740.135,385.75C740.269,385.896 740.432,386.006 740.624,386.079C740.815,386.153 741.03,386.19 741.268,386.19C741.39,386.19 741.503,386.18 741.608,386.16C741.713,386.14 741.806,386.116 741.887,386.086C741.969,386.057 742.038,386.026 742.094,385.994C742.151,385.961 742.189,385.935 742.208,385.914C742.228,385.894 742.242,385.875 742.251,385.859C742.26,385.843 742.267,385.824 742.273,385.801C742.278,385.779 742.282,385.752 742.285,385.721C742.288,385.69 742.289,385.652 742.289,385.607ZM745.949,385.838C745.949,385.784 745.947,385.739 745.943,385.702C745.938,385.665 745.931,385.636 745.922,385.614C745.914,385.591 745.902,385.575 745.889,385.565C745.875,385.555 745.86,385.55 745.842,385.55L744.749,385.55L744.749,382.755C744.749,382.737 744.743,382.721 744.731,382.706C744.72,382.692 744.701,382.68 744.674,382.671C744.647,382.663 744.611,382.655 744.566,382.65C744.522,382.645 744.464,382.642 744.394,382.642C744.326,382.642 744.27,382.645 744.224,382.65C744.178,382.655 744.142,382.663 744.115,382.671C744.088,382.68 744.069,382.692 744.057,382.706C744.046,382.721 744.04,382.737 744.04,382.755L744.04,385.91C744.04,385.989 744.06,386.046 744.1,386.081C744.141,386.116 744.19,386.133 744.249,386.133L745.842,386.133C745.86,386.133 745.875,386.128 745.889,386.117C745.902,386.106 745.914,386.089 745.922,386.065C745.931,386.041 745.938,386.01 745.943,385.973C745.947,385.937 745.949,385.891 745.949,385.838ZM755.991,386.042L755.991,382.518C755.991,382.501 755.985,382.484 755.974,382.47C755.964,382.456 755.946,382.444 755.921,382.434C755.896,382.424 755.862,382.416 755.819,382.411C755.776,382.406 755.721,382.403 755.655,382.403C755.589,382.403 755.534,382.406 755.491,382.411C755.448,382.416 755.414,382.424 755.388,382.434C755.362,382.444 755.344,382.456 755.334,382.47C755.324,382.484 755.319,382.501 755.319,382.518L755.319,383.816C755.212,383.71 755.103,383.63 754.994,383.575C754.885,383.521 754.763,383.493 754.629,383.493C754.459,383.493 754.309,383.525 754.178,383.59C754.047,383.654 753.938,383.747 753.85,383.867C753.762,383.987 753.696,384.132 753.65,384.302C753.604,384.472 753.582,384.663 753.582,384.876C753.582,385.054 753.6,385.222 753.635,385.383C753.671,385.543 753.729,385.683 753.809,385.803C753.888,385.923 753.991,386.018 754.117,386.089C754.244,386.16 754.398,386.195 754.581,386.195C754.745,386.195 754.895,386.158 755.03,386.085C755.166,386.011 755.295,385.908 755.419,385.776L755.419,386.042C755.419,386.062 755.423,386.078 755.433,386.092C755.443,386.105 755.459,386.116 755.482,386.125C755.504,386.134 755.533,386.14 755.569,386.144C755.605,386.147 755.651,386.149 755.709,386.149C755.762,386.149 755.808,386.147 755.844,386.144C755.881,386.14 755.91,386.134 755.931,386.125C755.953,386.116 755.968,386.105 755.977,386.092C755.986,386.078 755.991,386.062 755.991,386.042ZM755.319,384.441L755.319,385.236C755.262,385.308 755.209,385.368 755.161,385.417C755.112,385.467 755.065,385.507 755.02,385.537C754.974,385.567 754.929,385.589 754.885,385.603C754.842,385.616 754.796,385.623 754.75,385.623C754.657,385.623 754.58,385.601 754.519,385.556C754.458,385.511 754.409,385.451 754.373,385.377C754.336,385.303 754.309,385.218 754.293,385.123C754.277,385.029 754.269,384.931 754.269,384.831C754.269,384.736 754.279,384.643 754.297,384.553C754.316,384.462 754.345,384.38 754.383,384.307C754.422,384.234 754.473,384.175 754.536,384.131C754.6,384.087 754.676,384.065 754.763,384.065C754.86,384.065 754.953,384.098 755.041,384.162C755.13,384.226 755.223,384.32 755.319,384.441ZM766.835,383.869C766.835,383.805 766.834,383.754 766.832,383.716C766.83,383.679 766.828,383.65 766.824,383.632C766.82,383.613 766.816,383.598 766.812,383.587C766.808,383.577 766.8,383.567 766.791,383.558C766.781,383.549 766.765,383.54 766.744,383.532C766.722,383.524 766.697,383.517 766.668,383.511C766.64,383.504 766.612,383.5 766.585,383.497C766.558,383.495 766.533,383.493 766.51,383.493C766.46,383.493 766.41,383.5 766.359,383.513C766.309,383.527 766.259,383.551 766.209,383.585C766.159,383.619 766.106,383.665 766.051,383.723C765.995,383.781 765.936,383.855 765.873,383.944L765.873,383.646C765.873,383.628 765.869,383.613 765.86,383.599C765.851,383.586 765.836,383.575 765.816,383.566C765.795,383.557 765.766,383.55 765.728,383.546C765.691,383.541 765.643,383.539 765.586,383.539C765.531,383.539 765.484,383.541 765.448,383.546C765.411,383.55 765.381,383.557 765.358,383.566C765.334,383.575 765.318,383.586 765.309,383.599C765.3,383.613 765.296,383.628 765.296,383.646L765.296,386.042C765.296,386.06 765.301,386.075 765.312,386.089C765.323,386.102 765.341,386.113 765.367,386.122C765.393,386.131 765.428,386.138 765.471,386.143C765.514,386.147 765.568,386.149 765.634,386.149C765.701,386.149 765.755,386.147 765.798,386.143C765.841,386.138 765.876,386.131 765.902,386.122C765.928,386.113 765.946,386.102 765.957,386.089C765.967,386.075 765.973,386.06 765.973,386.042L765.973,384.549C766.023,384.47 766.07,384.404 766.114,384.35C766.158,384.296 766.2,384.253 766.24,384.221C766.28,384.189 766.319,384.165 766.357,384.15C766.394,384.135 766.432,384.127 766.47,384.127C766.502,384.127 766.531,384.13 766.558,384.136C766.585,384.143 766.61,384.149 766.632,384.157C766.654,384.164 766.675,384.17 766.692,384.177C766.71,384.183 766.727,384.186 766.741,384.186C766.759,384.186 766.774,384.182 766.785,384.173C766.797,384.164 766.806,384.148 766.813,384.124C766.82,384.101 766.826,384.069 766.829,384.028C766.833,383.987 766.835,383.934 766.835,383.869ZM764.74,384.774L764.74,384.667C764.74,384.499 764.719,384.343 764.676,384.2C764.633,384.056 764.566,383.932 764.474,383.828C764.383,383.723 764.266,383.641 764.124,383.582C763.981,383.523 763.81,383.493 763.609,383.493C763.42,383.493 763.249,383.525 763.098,383.587C762.947,383.65 762.818,383.741 762.713,383.86C762.607,383.979 762.526,384.124 762.471,384.295C762.415,384.466 762.388,384.658 762.388,384.871C762.388,385.095 762.414,385.29 762.467,385.456C762.52,385.623 762.6,385.761 762.707,385.87C762.815,385.979 762.948,386.061 763.109,386.114C763.269,386.168 763.456,386.195 763.669,386.195C763.787,386.195 763.898,386.187 764.002,386.172C764.105,386.157 764.198,386.139 764.278,386.118C764.359,386.098 764.425,386.077 764.477,386.055C764.529,386.034 764.561,386.017 764.572,386.004C764.584,385.992 764.593,385.979 764.6,385.965C764.608,385.952 764.613,385.935 764.617,385.916C764.62,385.896 764.623,385.872 764.625,385.844C764.626,385.817 764.627,385.783 764.627,385.744C764.627,385.699 764.626,385.662 764.623,385.632C764.621,385.603 764.616,385.58 764.609,385.564C764.601,385.548 764.592,385.537 764.582,385.53C764.571,385.524 764.557,385.521 764.541,385.521C764.515,385.521 764.48,385.529 764.437,385.546C764.394,385.563 764.339,385.582 764.274,385.603C764.209,385.623 764.131,385.642 764.042,385.659C763.952,385.676 763.848,385.685 763.73,385.685C763.614,385.685 763.514,385.669 763.431,385.639C763.348,385.609 763.28,385.564 763.227,385.506C763.174,385.448 763.135,385.377 763.111,385.294C763.087,385.211 763.075,385.118 763.075,385.016L764.533,385.016C764.598,385.016 764.648,384.996 764.685,384.957C764.722,384.918 764.74,384.857 764.74,384.774ZM764.085,384.581L763.075,384.581C763.079,384.497 763.092,384.418 763.114,384.343C763.136,384.269 763.169,384.204 763.211,384.15C763.253,384.095 763.306,384.052 763.369,384.02C763.433,383.987 763.507,383.971 763.593,383.971C763.763,383.971 763.889,384.025 763.971,384.134C764.052,384.242 764.09,384.391 764.085,384.581ZM759.302,386.042L759.302,383.652C759.302,383.634 759.296,383.618 759.286,383.605C759.275,383.591 759.257,383.58 759.231,383.57C759.205,383.56 759.17,383.552 759.127,383.547C759.084,383.542 759.03,383.539 758.963,383.539C758.897,383.539 758.843,383.542 758.8,383.547C758.757,383.552 758.722,383.56 758.696,383.57C758.67,383.58 758.652,383.591 758.641,383.605C758.63,383.618 758.625,383.634 758.625,383.652L758.625,386.042C758.625,386.06 758.63,386.075 758.641,386.089C758.652,386.102 758.67,386.113 758.696,386.122C758.722,386.131 758.757,386.138 758.8,386.143C758.843,386.147 758.897,386.149 758.963,386.149C759.03,386.149 759.084,386.147 759.127,386.143C759.17,386.138 759.205,386.131 759.231,386.122C759.257,386.113 759.275,386.102 759.286,386.089C759.296,386.075 759.302,386.06 759.302,386.042ZM759.353,382.835C759.353,382.705 759.326,382.614 759.272,382.563C759.219,382.512 759.117,382.486 758.966,382.486C758.814,382.486 758.711,382.513 758.656,382.565C758.601,382.618 758.574,382.713 758.574,382.849C758.574,382.979 758.6,383.07 758.653,383.12C758.706,383.17 758.809,383.195 758.961,383.195C759.111,383.195 759.214,383.169 759.27,383.117C759.325,383.065 759.353,382.971 759.353,382.835ZM758.209,383.869C758.209,383.805 758.208,383.754 758.206,383.716C758.204,383.679 758.202,383.65 758.198,383.632C758.195,383.613 758.19,383.598 758.186,383.587C758.182,383.577 758.174,383.567 758.165,383.558C758.155,383.549 758.139,383.54 758.118,383.532C758.096,383.524 758.071,383.517 758.042,383.511C758.014,383.504 757.986,383.5 757.959,383.497C757.932,383.495 757.907,383.493 757.884,383.493C757.834,383.493 757.784,383.5 757.734,383.513C757.683,383.527 757.633,383.551 757.583,383.585C757.533,383.619 757.48,383.665 757.425,383.723C757.369,383.781 757.31,383.855 757.247,383.944L757.247,383.646C757.247,383.628 757.243,383.613 757.234,383.599C757.225,383.586 757.21,383.575 757.19,383.566C757.169,383.557 757.14,383.55 757.102,383.546C757.065,383.541 757.017,383.539 756.96,383.539C756.905,383.539 756.858,383.541 756.822,383.546C756.785,383.55 756.755,383.557 756.732,383.566C756.709,383.575 756.692,383.586 756.683,383.599C756.675,383.613 756.67,383.628 756.67,383.646L756.67,386.042C756.67,386.06 756.675,386.075 756.686,386.089C756.697,386.102 756.715,386.113 756.741,386.122C756.767,386.131 756.802,386.138 756.845,386.143C756.888,386.147 756.942,386.149 757.008,386.149C757.075,386.149 757.129,386.147 757.172,386.143C757.215,386.138 757.25,386.131 757.276,386.122C757.302,386.113 757.32,386.102 757.331,386.089C757.341,386.075 757.347,386.06 757.347,386.042L757.347,384.549C757.397,384.47 757.444,384.404 757.488,384.35C757.532,384.296 757.574,384.253 757.614,384.221C757.654,384.189 757.693,384.165 757.731,384.15C757.768,384.135 757.806,384.127 757.844,384.127C757.876,384.127 757.905,384.13 757.932,384.136C757.959,384.143 757.984,384.149 758.006,384.157C758.028,384.164 758.049,384.17 758.067,384.177C758.084,384.183 758.101,384.186 758.115,384.186C758.133,384.186 758.148,384.182 758.159,384.173C758.171,384.164 758.18,384.148 758.187,384.124C758.195,384.101 758.2,384.069 758.203,384.028C758.207,383.987 758.209,383.934 758.209,383.869ZM736.601,392.329C736.601,392.336 736.6,392.346 736.598,392.361C736.596,392.375 736.593,392.391 736.59,392.408C736.587,392.424 736.583,392.441 736.578,392.458C736.574,392.475 736.568,392.491 736.56,392.505C736.552,392.52 736.543,392.531 736.533,392.54C736.522,392.549 736.51,392.554 736.497,392.554L735.378,392.554C735.363,392.554 735.348,392.552 735.334,392.547C735.321,392.543 735.309,392.535 735.298,392.524C735.288,392.513 735.281,392.498 735.277,392.481C735.273,392.463 735.274,392.442 735.281,392.417L735.747,390.076C735.749,390.066 735.753,390.058 735.761,390.05C735.769,390.042 735.78,390.036 735.794,390.032C735.809,390.027 735.827,390.023 735.849,390.02C735.871,390.017 735.898,390.015 735.929,390.015C735.96,390.015 735.987,390.017 736.008,390.02C736.03,390.023 736.046,390.027 736.058,390.032C736.07,390.036 736.077,390.042 736.081,390.05C736.085,390.058 736.086,390.066 736.083,390.076L735.648,392.263L736.554,392.263C736.571,392.263 736.583,392.269 736.59,392.281C736.597,392.292 736.601,392.309 736.601,392.329ZM737.736,390.156C737.729,390.192 737.72,390.223 737.709,390.247C737.698,390.272 737.684,390.292 737.665,390.307C737.647,390.322 737.624,390.333 737.597,390.339C737.57,390.346 737.536,390.349 737.497,390.349C737.46,390.349 737.428,390.346 737.404,390.339C737.379,390.333 737.361,390.322 737.349,390.307C737.337,390.292 737.331,390.272 737.329,390.247C737.328,390.223 737.331,390.192 737.337,390.156C737.345,390.119 737.355,390.089 737.366,390.065C737.378,390.041 737.393,390.021 737.41,390.004C737.428,389.988 737.45,389.977 737.478,389.971C737.505,389.965 737.538,389.962 737.577,389.962C737.615,389.962 737.646,389.965 737.67,389.971C737.694,389.977 737.713,389.988 737.725,390.004C737.737,390.021 737.744,390.041 737.745,390.065C737.747,390.089 737.743,390.119 737.736,390.156ZM737.23,392.505C737.227,392.516 737.223,392.524 737.216,392.532C737.21,392.539 737.2,392.545 737.187,392.55C737.174,392.555 737.157,392.559 737.135,392.562C737.114,392.564 737.087,392.566 737.056,392.566C737.023,392.566 736.997,392.564 736.977,392.562C736.957,392.559 736.941,392.555 736.93,392.55C736.919,392.545 736.912,392.539 736.908,392.532C736.905,392.524 736.905,392.516 736.908,392.505L737.257,390.747C737.258,390.738 737.262,390.73 737.269,390.722C737.275,390.714 737.285,390.708 737.298,390.702C737.311,390.697 737.328,390.693 737.35,390.691C737.371,390.688 737.398,390.687 737.431,390.687C737.462,390.687 737.488,390.688 737.508,390.691C737.528,390.693 737.544,390.697 737.555,390.702C737.566,390.708 737.573,390.714 737.576,390.722C737.58,390.73 737.581,390.738 737.579,390.747L737.23,392.505ZM739.605,391.296C739.605,391.374 739.598,391.461 739.583,391.555C739.569,391.649 739.546,391.744 739.514,391.84C739.482,391.936 739.442,392.029 739.394,392.119C739.346,392.21 739.287,392.29 739.217,392.36C739.147,392.429 739.067,392.485 738.977,392.528C738.886,392.57 738.784,392.591 738.671,392.591C738.554,392.591 738.454,392.569 738.37,392.525C738.287,392.48 738.213,392.417 738.148,392.333L738.113,392.505C738.11,392.527 738.096,392.543 738.071,392.552C738.045,392.561 738.006,392.566 737.954,392.566C737.9,392.566 737.863,392.561 737.845,392.55C737.827,392.54 737.82,392.525 737.825,392.505L738.345,389.896C738.348,389.885 738.352,389.876 738.358,389.868C738.364,389.861 738.373,389.854 738.387,389.849C738.401,389.844 738.418,389.84 738.44,389.837C738.461,389.835 738.488,389.833 738.521,389.833C738.552,389.833 738.577,389.835 738.597,389.837C738.616,389.84 738.632,389.844 738.644,389.849C738.656,389.854 738.663,389.861 738.665,389.868C738.668,389.876 738.669,389.885 738.667,389.896L738.511,390.681C738.505,390.715 738.497,390.75 738.488,390.786C738.478,390.823 738.469,390.859 738.459,390.895C738.449,390.931 738.44,390.965 738.43,390.996C738.42,391.028 738.411,391.056 738.404,391.079C738.424,391.034 738.457,390.987 738.502,390.938C738.547,390.889 738.6,390.844 738.66,390.803C738.721,390.762 738.787,390.728 738.859,390.701C738.93,390.673 739.003,390.66 739.075,390.66C739.154,390.66 739.221,390.67 739.277,390.691C739.333,390.712 739.38,390.739 739.419,390.774C739.458,390.808 739.49,390.848 739.514,390.892C739.538,390.936 739.557,390.982 739.57,391.029C739.583,391.076 739.592,391.122 739.597,391.168C739.602,391.215 739.605,391.257 739.605,391.296ZM739.267,391.324C739.267,391.288 739.264,391.248 739.257,391.202C739.251,391.157 739.238,391.115 739.219,391.076C739.2,391.036 739.173,391.004 739.137,390.977C739.101,390.95 739.053,390.937 738.993,390.937C738.923,390.937 738.852,390.957 738.779,390.997C738.706,391.038 738.638,391.093 738.575,391.164C738.513,391.235 738.457,391.319 738.408,391.414C738.36,391.51 738.324,391.615 738.302,391.728L738.238,392.052C738.299,392.142 738.365,392.208 738.435,392.251C738.505,392.294 738.585,392.316 738.673,392.316C738.741,392.316 738.802,392.3 738.857,392.269C738.911,392.238 738.961,392.196 739.005,392.144C739.049,392.092 739.088,392.032 739.12,391.965C739.153,391.898 739.18,391.828 739.201,391.754C739.223,391.681 739.239,391.607 739.25,391.533C739.261,391.458 739.267,391.389 739.267,391.324ZM741.228,390.749C741.228,390.755 741.227,390.765 741.225,390.78C741.223,390.795 741.221,390.812 741.218,390.831C741.215,390.851 741.212,390.871 741.206,390.892C741.201,390.913 741.195,390.932 741.187,390.95C741.179,390.967 741.171,390.982 741.162,390.993C741.154,391.005 741.144,391.011 741.134,391.011C741.124,391.011 741.112,391.009 741.1,391.004C741.088,391 741.074,390.994 741.059,390.988C741.044,390.981 741.027,390.976 741.007,390.971C740.988,390.966 740.965,390.964 740.939,390.964C740.894,390.964 740.843,390.983 740.785,391.022C740.727,391.06 740.671,391.113 740.615,391.181C740.559,391.249 740.507,391.329 740.461,391.421C740.415,391.514 740.381,391.614 740.359,391.722L740.204,392.505C740.202,392.516 740.197,392.524 740.191,392.532C740.184,392.539 740.174,392.545 740.161,392.55C740.148,392.555 740.131,392.559 740.11,392.562C740.088,392.564 740.062,392.566 740.031,392.566C739.998,392.566 739.972,392.564 739.951,392.562C739.931,392.559 739.916,392.555 739.905,392.55C739.894,392.545 739.886,392.539 739.883,392.532C739.88,392.524 739.88,392.516 739.882,392.505L740.232,390.745C740.233,390.736 740.237,390.728 740.243,390.72C740.25,390.712 740.26,390.706 740.273,390.701C740.286,390.695 740.302,390.692 740.321,390.69C740.339,390.688 740.362,390.687 740.388,390.687C740.415,390.687 740.438,390.688 740.455,390.69C740.473,390.692 740.487,390.695 740.496,390.701C740.506,390.706 740.512,390.712 740.515,390.72C740.518,390.728 740.518,390.736 740.517,390.745L740.452,391.066C740.482,391.012 740.518,390.961 740.559,390.911C740.6,390.862 740.644,390.819 740.693,390.782C740.741,390.744 740.791,390.715 740.844,390.693C740.897,390.671 740.949,390.66 740.999,390.66C741.021,390.66 741.044,390.661 741.067,390.664C741.089,390.668 741.111,390.672 741.13,390.676C741.15,390.681 741.167,390.686 741.182,390.692C741.197,390.698 741.208,390.704 741.216,390.712C741.224,390.72 741.228,390.732 741.228,390.749ZM743.034,391.329C743.034,391.426 743.025,391.524 743.007,391.624C742.989,391.725 742.961,391.821 742.924,391.914C742.887,392.007 742.84,392.095 742.783,392.177C742.725,392.259 742.658,392.331 742.58,392.392C742.503,392.453 742.415,392.502 742.317,392.537C742.218,392.573 742.109,392.591 741.988,392.591C741.863,392.591 741.755,392.576 741.666,392.546C741.577,392.516 741.504,392.473 741.447,392.415C741.389,392.358 741.347,392.288 741.32,392.204C741.292,392.121 741.279,392.027 741.279,391.921C741.279,391.825 741.287,391.727 741.305,391.626C741.323,391.526 741.35,391.43 741.388,391.337C741.426,391.245 741.473,391.157 741.53,391.075C741.586,390.992 741.653,390.92 741.731,390.859C741.808,390.798 741.896,390.749 741.994,390.713C742.093,390.677 742.202,390.66 742.324,390.66C742.449,390.66 742.556,390.675 742.645,390.705C742.734,390.736 742.808,390.78 742.866,390.837C742.923,390.895 742.966,390.965 742.993,391.048C743.021,391.132 743.034,391.225 743.034,391.329ZM742.695,391.349C742.695,391.284 742.688,391.225 742.674,391.173C742.66,391.121 742.638,391.077 742.606,391.041C742.574,391.006 742.532,390.978 742.481,390.958C742.429,390.939 742.367,390.929 742.294,390.929C742.216,390.929 742.145,390.943 742.081,390.971C742.018,390.999 741.961,391.037 741.91,391.084C741.86,391.132 741.817,391.188 741.78,391.251C741.742,391.315 741.712,391.383 741.688,391.455C741.664,391.528 741.646,391.602 741.634,391.678C741.622,391.754 741.616,391.829 741.616,391.902C741.616,391.967 741.624,392.025 741.638,392.077C741.652,392.13 741.675,392.174 741.707,392.21C741.739,392.247 741.781,392.275 741.831,392.294C741.882,392.314 741.944,392.324 742.017,392.324C742.096,392.324 742.168,392.31 742.231,392.282C742.294,392.254 742.351,392.215 742.401,392.167C742.451,392.119 742.494,392.063 742.532,391.999C742.569,391.936 742.599,391.867 742.623,391.794C742.647,391.721 742.665,391.647 742.677,391.572C742.689,391.496 742.695,391.422 742.695,391.349ZM745.564,390.937C745.564,391.021 745.558,391.11 745.546,391.202C745.534,391.293 745.516,391.385 745.491,391.477C745.465,391.569 745.432,391.659 745.392,391.747C745.352,391.836 745.302,391.92 745.244,392C745.186,392.08 745.119,392.154 745.043,392.222C744.967,392.29 744.88,392.348 744.783,392.398C744.685,392.447 744.576,392.486 744.456,392.513C744.337,392.54 744.193,392.554 744.025,392.554L743.464,392.554C743.447,392.554 743.431,392.552 743.416,392.547C743.401,392.543 743.389,392.535 743.378,392.525C743.368,392.514 743.361,392.5 743.357,392.483C743.353,392.465 743.354,392.443 743.361,392.417L743.81,390.163C743.819,390.113 743.839,390.077 743.869,390.057C743.9,390.037 743.935,390.027 743.974,390.027L744.507,390.027C744.701,390.027 744.862,390.047 744.99,390.088C745.117,390.129 745.224,390.189 745.309,390.267C745.394,390.345 745.458,390.44 745.5,390.553C745.543,390.666 745.564,390.794 745.564,390.937ZM745.208,390.966C745.208,390.87 745.195,390.781 745.168,390.701C745.142,390.62 745.1,390.55 745.042,390.493C744.985,390.435 744.912,390.389 744.823,390.356C744.733,390.323 744.615,390.306 744.468,390.306L744.116,390.306L743.724,392.273L744.072,392.273C744.23,392.273 744.363,392.254 744.47,392.215C744.577,392.177 744.671,392.125 744.753,392.059C744.835,391.993 744.905,391.917 744.962,391.829C745.019,391.742 745.066,391.65 745.103,391.554C745.139,391.458 745.166,391.359 745.183,391.258C745.2,391.157 745.208,391.06 745.208,390.966ZM747.226,392.505C747.225,392.516 747.221,392.525 747.214,392.533C747.208,392.54 747.199,392.547 747.187,392.551C747.175,392.556 747.16,392.559 747.141,392.562C747.122,392.564 747.099,392.566 747.072,392.566C747.046,392.566 747.024,392.564 747.006,392.562C746.989,392.559 746.975,392.556 746.965,392.551C746.955,392.547 746.949,392.54 746.946,392.533C746.942,392.525 746.942,392.516 746.945,392.505L747.009,392.175C746.988,392.219 746.955,392.266 746.91,392.315C746.866,392.364 746.813,392.409 746.752,392.451C746.692,392.492 746.625,392.526 746.553,392.552C746.481,392.578 746.408,392.591 746.333,392.591C746.245,392.591 746.17,392.579 746.11,392.555C746.049,392.531 746,392.498 745.963,392.455C745.926,392.413 745.899,392.363 745.883,392.305C745.867,392.247 745.859,392.184 745.859,392.115C745.859,392.072 745.862,392.028 745.867,391.983C745.873,391.938 745.881,391.893 745.89,391.847L746.107,390.745C746.109,390.736 746.114,390.728 746.12,390.72C746.127,390.712 746.137,390.706 746.151,390.701C746.164,390.695 746.182,390.692 746.203,390.69C746.225,390.688 746.251,390.687 746.283,390.687C746.314,390.687 746.339,390.688 746.36,390.69C746.38,390.692 746.395,390.695 746.407,390.701C746.418,390.706 746.425,390.712 746.428,390.72C746.431,390.728 746.432,390.736 746.431,390.745L746.216,391.835C746.208,391.869 746.202,391.904 746.199,391.941C746.195,391.977 746.193,392.014 746.193,392.052C746.193,392.091 746.196,392.127 746.203,392.159C746.211,392.19 746.223,392.218 746.241,392.242C746.258,392.265 746.281,392.283 746.309,392.296C746.337,392.309 746.371,392.316 746.411,392.316C746.48,392.316 746.551,392.296 746.623,392.256C746.696,392.216 746.763,392.161 746.825,392.091C746.888,392.021 746.944,391.937 746.992,391.84C747.041,391.743 747.077,391.637 747.101,391.523L747.255,390.745C747.256,390.736 747.261,390.728 747.268,390.72C747.275,390.712 747.285,390.706 747.299,390.701C747.313,390.695 747.33,390.692 747.352,390.69C747.373,390.688 747.4,390.687 747.431,390.687C747.462,390.687 747.488,390.688 747.508,390.69C747.528,390.692 747.544,390.695 747.555,390.701C747.566,390.706 747.573,390.712 747.576,390.72C747.58,390.728 747.581,390.736 747.579,390.745L747.226,392.505ZM749.365,390.902C749.365,390.925 749.362,390.949 749.358,390.974C749.353,390.999 749.346,391.022 749.337,391.043C749.328,391.065 749.317,391.083 749.305,391.097C749.293,391.111 749.279,391.118 749.263,391.118C749.245,391.118 749.226,391.109 749.206,391.09C749.187,391.071 749.161,391.05 749.129,391.027C749.097,391.003 749.057,390.982 749.008,390.962C748.959,390.943 748.897,390.933 748.822,390.933C748.738,390.933 748.664,390.95 748.6,390.985C748.535,391.019 748.479,391.064 748.432,391.119C748.384,391.175 748.345,391.238 748.314,391.308C748.283,391.378 748.257,391.449 748.238,391.521C748.218,391.592 748.204,391.662 748.196,391.729C748.187,391.796 748.183,391.854 748.183,391.904C748.183,392.038 748.212,392.139 748.271,392.208C748.329,392.277 748.417,392.312 748.533,392.312C748.617,392.312 748.69,392.301 748.75,392.281C748.811,392.26 748.862,392.236 748.905,392.209C748.947,392.183 748.982,392.159 749.009,392.138C749.036,392.117 749.06,392.107 749.081,392.107C749.092,392.107 749.1,392.112 749.106,392.121C749.112,392.131 749.115,392.145 749.115,392.163C749.115,392.179 749.113,392.198 749.111,392.219C749.108,392.241 749.104,392.263 749.098,392.285C749.092,392.308 749.085,392.329 749.076,392.349C749.068,392.368 749.056,392.386 749.04,392.403C749.025,392.419 748.997,392.439 748.958,392.462C748.919,392.486 748.874,392.507 748.823,392.526C748.771,392.545 748.715,392.56 748.656,392.573C748.596,392.585 748.534,392.591 748.47,392.591C748.26,392.591 748.104,392.538 748,392.431C747.897,392.324 747.845,392.165 747.845,391.954C747.845,391.875 747.852,391.788 747.866,391.694C747.879,391.599 747.902,391.504 747.935,391.409C747.967,391.313 748.009,391.22 748.06,391.13C748.111,391.04 748.173,390.961 748.247,390.891C748.322,390.821 748.408,390.766 748.505,390.724C748.603,390.682 748.715,390.661 748.841,390.661C748.893,390.661 748.943,390.666 748.991,390.674C749.04,390.683 749.085,390.694 749.127,390.708C749.17,390.723 749.208,390.741 749.242,390.762C749.277,390.784 749.304,390.803 749.323,390.82C749.341,390.837 749.353,390.851 749.358,390.863C749.362,390.874 749.365,390.887 749.365,390.902ZM750.745,390.767C750.745,390.779 750.745,390.791 750.743,390.805C750.742,390.819 750.74,390.833 750.736,390.847C750.732,390.861 750.727,390.876 750.72,390.89C750.713,390.904 750.707,390.917 750.699,390.928C750.692,390.939 750.684,390.948 750.675,390.954C750.666,390.961 750.656,390.964 750.644,390.964L750.195,390.964L749.997,391.945C749.992,391.972 749.988,392.003 749.984,392.036C749.98,392.07 749.978,392.098 749.978,392.12C749.978,392.187 749.992,392.235 750.02,392.266C750.048,392.297 750.093,392.312 750.156,392.312C750.191,392.312 750.221,392.309 750.247,392.303C750.273,392.297 750.296,392.291 750.315,392.285C750.334,392.278 750.35,392.272 750.365,392.266C750.379,392.26 750.391,392.257 750.402,392.257C750.412,392.257 750.42,392.261 750.426,392.268C750.432,392.275 750.435,392.288 750.435,392.308C750.435,392.325 750.433,392.343 750.43,392.364C750.427,392.384 750.422,392.404 750.417,392.423C750.412,392.443 750.406,392.46 750.398,392.476C750.39,392.492 750.381,392.504 750.372,392.513C750.362,392.522 750.346,392.531 750.325,392.54C750.305,392.549 750.281,392.558 750.253,392.565C750.226,392.572 750.197,392.577 750.166,392.581C750.136,392.585 750.105,392.587 750.075,392.587C750.003,392.587 749.939,392.579 749.886,392.564C749.833,392.548 749.788,392.524 749.751,392.491C749.715,392.457 749.688,392.416 749.67,392.366C749.653,392.315 749.644,392.255 749.644,392.185C749.644,392.169 749.644,392.152 749.646,392.133C749.647,392.114 749.649,392.094 749.653,392.074L749.662,392.011C749.666,391.99 749.669,391.971 749.673,391.952L749.87,390.964L749.626,390.964C749.612,390.964 749.601,390.96 749.593,390.952C749.585,390.943 749.581,390.926 749.581,390.902C749.581,390.883 749.583,390.862 749.587,390.838C749.591,390.814 749.597,390.792 749.605,390.771C749.613,390.75 749.623,390.732 749.635,390.718C749.647,390.704 749.662,390.697 749.679,390.697L749.925,390.697L750.009,390.279C750.01,390.27 750.015,390.261 750.022,390.253C750.029,390.245 750.039,390.239 750.052,390.233C750.065,390.227 750.082,390.223 750.104,390.22C750.125,390.217 750.152,390.216 750.183,390.216C750.214,390.216 750.24,390.217 750.26,390.22C750.28,390.223 750.296,390.227 750.307,390.233C750.318,390.239 750.325,390.245 750.328,390.253C750.332,390.261 750.333,390.27 750.331,390.279L750.247,390.697L750.697,390.697C750.716,390.697 750.729,390.704 750.736,390.718C750.742,390.732 750.745,390.749 750.745,390.767ZM737.324,394.978C737.324,394.986 737.323,394.996 737.323,395.01C737.322,395.024 737.32,395.038 737.317,395.054C737.313,395.07 737.309,395.086 737.304,395.104C737.299,395.121 737.292,395.137 737.284,395.15C737.277,395.163 737.267,395.174 737.256,395.182C737.245,395.19 737.233,395.195 737.22,395.195L736.509,395.195L736.07,397.386C736.067,397.396 736.062,397.406 736.055,397.413C736.048,397.421 736.037,397.427 736.024,397.432C736.01,397.437 735.992,397.44 735.97,397.444C735.948,397.447 735.921,397.449 735.888,397.449C735.855,397.449 735.829,397.447 735.808,397.444C735.787,397.44 735.771,397.437 735.759,397.432C735.747,397.427 735.74,397.421 735.736,397.413C735.732,397.406 735.731,397.396 735.734,397.386L736.171,395.195L735.464,395.195C735.446,395.195 735.434,395.189 735.427,395.177C735.421,395.165 735.417,395.149 735.417,395.128C735.417,395.119 735.418,395.108 735.42,395.094C735.422,395.08 735.425,395.065 735.428,395.048C735.431,395.031 735.435,395.015 735.441,394.999C735.446,394.984 735.452,394.969 735.46,394.955C735.468,394.942 735.477,394.931 735.487,394.922C735.496,394.914 735.508,394.91 735.521,394.91L737.279,394.91C737.296,394.91 737.307,394.916 737.314,394.928C737.32,394.94 737.324,394.957 737.324,394.978ZM738.003,395.038C737.997,395.075 737.988,395.105 737.977,395.13C737.966,395.155 737.951,395.175 737.933,395.19C737.915,395.205 737.892,395.215 737.865,395.222C737.837,395.229 737.804,395.232 737.765,395.232C737.727,395.232 737.696,395.229 737.671,395.222C737.646,395.215 737.628,395.205 737.616,395.19C737.605,395.175 737.598,395.155 737.597,395.13C737.596,395.105 737.598,395.075 737.605,395.038C737.613,395.002 737.622,394.972 737.634,394.948C737.646,394.924 737.66,394.903 737.678,394.887C737.696,394.871 737.718,394.86 737.745,394.854C737.773,394.848 737.806,394.845 737.845,394.845C737.883,394.845 737.914,394.848 737.938,394.854C737.962,394.86 737.98,394.871 737.992,394.887C738.005,394.903 738.012,394.924 738.013,394.948C738.014,394.972 738.011,395.002 738.003,395.038ZM737.497,397.388C737.495,397.398 737.49,397.407 737.484,397.414C737.477,397.422 737.467,397.428 737.454,397.433C737.441,397.438 737.424,397.442 737.403,397.445C737.381,397.447 737.355,397.449 737.324,397.449C737.291,397.449 737.265,397.447 737.244,397.445C737.224,397.442 737.209,397.438 737.198,397.433C737.186,397.428 737.179,397.422 737.176,397.414C737.173,397.407 737.172,397.398 737.175,397.388L737.525,395.63C737.526,395.621 737.53,395.613 737.536,395.605C737.543,395.597 737.553,395.59 737.566,395.585C737.579,395.58 737.596,395.576 737.617,395.574C737.639,395.571 737.666,395.57 737.699,395.57C737.73,395.57 737.755,395.571 737.776,395.574C737.796,395.576 737.811,395.58 737.823,395.585C737.834,395.59 737.841,395.597 737.844,395.605C737.847,395.613 737.848,395.621 737.847,395.63L737.497,397.388ZM740.667,397.388C740.666,397.398 740.662,397.407 740.656,397.414C740.649,397.422 740.639,397.428 740.625,397.433C740.612,397.438 740.594,397.442 740.573,397.445C740.551,397.447 740.525,397.449 740.493,397.449C740.462,397.449 740.436,397.447 740.416,397.445C740.396,397.442 740.38,397.438 740.369,397.433C740.358,397.428 740.351,397.422 740.347,397.414C740.343,397.407 740.342,397.398 740.345,397.388L740.562,396.302C740.568,396.264 740.574,396.229 740.578,396.195C740.583,396.161 740.585,396.127 740.585,396.093C740.585,396.01 740.569,395.943 740.537,395.894C740.505,395.844 740.45,395.82 740.37,395.82C740.305,395.82 740.238,395.84 740.168,395.879C740.099,395.919 740.033,395.974 739.97,396.043C739.908,396.113 739.852,396.196 739.804,396.291C739.756,396.387 739.721,396.491 739.699,396.603L739.542,397.388C739.54,397.398 739.535,397.407 739.529,397.414C739.522,397.422 739.512,397.428 739.498,397.433C739.485,397.438 739.467,397.442 739.446,397.445C739.424,397.447 739.398,397.449 739.366,397.449C739.335,397.449 739.31,397.447 739.289,397.445C739.269,397.442 739.254,397.438 739.243,397.433C739.233,397.428 739.226,397.422 739.222,397.414C739.218,397.407 739.217,397.398 739.218,397.388L739.435,396.302C739.444,396.263 739.45,396.225 739.453,396.187C739.457,396.149 739.458,396.114 739.458,396.081C739.458,396.002 739.442,395.938 739.409,395.891C739.377,395.843 739.322,395.82 739.243,395.82C739.177,395.82 739.109,395.84 739.04,395.879C738.971,395.919 738.906,395.974 738.843,396.043C738.781,396.113 738.725,396.196 738.677,396.291C738.629,396.387 738.594,396.491 738.572,396.603L738.415,397.388C738.413,397.398 738.408,397.407 738.402,397.414C738.395,397.422 738.385,397.428 738.372,397.433C738.359,397.438 738.342,397.442 738.321,397.445C738.299,397.447 738.273,397.449 738.241,397.449C738.209,397.449 738.183,397.447 738.162,397.445C738.142,397.442 738.127,397.438 738.116,397.433C738.104,397.428 738.097,397.422 738.094,397.414C738.091,397.407 738.09,397.398 738.093,397.388L738.447,395.628C738.448,395.619 738.451,395.611 738.457,395.603C738.463,395.595 738.472,395.589 738.485,395.583C738.497,395.578 738.513,395.575 738.532,395.573C738.55,395.571 738.573,395.57 738.599,395.57C738.626,395.57 738.649,395.571 738.666,395.573C738.684,395.575 738.698,395.578 738.707,395.583C738.717,395.589 738.723,395.595 738.726,395.603C738.728,395.611 738.729,395.619 738.728,395.628L738.661,395.964C738.681,395.92 738.713,395.873 738.758,395.824C738.803,395.774 738.855,395.729 738.915,395.687C738.975,395.645 739.041,395.611 739.112,395.583C739.183,395.556 739.255,395.542 739.329,395.542C739.408,395.542 739.475,395.553 739.531,395.575C739.587,395.596 739.632,395.625 739.668,395.662C739.704,395.7 739.73,395.744 739.747,395.795C739.764,395.847 739.775,395.903 739.779,395.964C739.805,395.919 739.84,395.871 739.886,395.822C739.932,395.772 739.984,395.727 740.044,395.686C740.104,395.645 740.169,395.611 740.24,395.583C740.31,395.556 740.381,395.542 740.454,395.542C740.542,395.542 740.615,395.555 740.673,395.579C740.732,395.604 740.779,395.638 740.816,395.681C740.852,395.724 740.878,395.774 740.894,395.831C740.909,395.889 740.917,395.951 740.917,396.019C740.917,396.064 740.915,396.109 740.909,396.154C740.904,396.198 740.897,396.243 740.888,396.29L740.667,397.388ZM744.533,395.185C744.533,395.194 744.532,395.205 744.53,395.219C744.528,395.233 744.525,395.247 744.522,395.262C744.519,395.277 744.514,395.293 744.509,395.309C744.504,395.325 744.498,395.34 744.491,395.352C744.485,395.364 744.478,395.374 744.47,395.381C744.462,395.388 744.454,395.392 744.445,395.392C744.425,395.392 744.399,395.38 744.366,395.357C744.332,395.333 744.288,395.307 744.233,395.278C744.177,395.248 744.11,395.222 744.031,395.198C743.951,395.174 743.856,395.161 743.745,395.161C743.63,395.161 743.521,395.179 743.42,395.213C743.319,395.248 743.227,395.295 743.142,395.356C743.057,395.416 742.982,395.488 742.915,395.571C742.849,395.653 742.793,395.743 742.746,395.84C742.7,395.937 742.665,396.039 742.641,396.146C742.617,396.253 742.605,396.361 742.605,396.47C742.605,396.585 742.621,396.686 742.655,396.774C742.688,396.862 742.736,396.936 742.798,396.995C742.861,397.055 742.936,397.101 743.025,397.131C743.113,397.162 743.212,397.177 743.322,397.177C743.402,397.177 743.487,397.168 743.574,397.149C743.662,397.13 743.744,397.101 743.82,397.062L743.966,396.329L743.382,396.329C743.366,396.329 743.354,396.324 743.346,396.313C743.338,396.302 743.333,396.286 743.333,396.265C743.333,396.256 743.334,396.244 743.336,396.229C743.338,396.214 743.341,396.199 743.344,396.183C743.347,396.167 743.352,396.152 743.358,396.136C743.364,396.12 743.37,396.106 743.378,396.094C743.386,396.082 743.395,396.072 743.405,396.065C743.414,396.058 743.425,396.054 743.437,396.054L744.24,396.054C744.276,396.054 744.302,396.066 744.319,396.091C744.335,396.116 744.338,396.149 744.329,396.191L744.134,397.163C744.129,397.188 744.122,397.208 744.114,397.223C744.105,397.238 744.096,397.251 744.085,397.263C744.074,397.275 744.044,397.292 743.996,397.315C743.949,397.338 743.889,397.361 743.817,397.384C743.744,397.408 743.663,397.428 743.573,397.446C743.482,397.463 743.387,397.472 743.288,397.472C743.119,397.472 742.97,397.45 742.841,397.407C742.712,397.363 742.604,397.299 742.517,397.216C742.43,397.133 742.363,397.032 742.318,396.913C742.272,396.795 742.249,396.661 742.249,396.511C742.249,396.372 742.265,396.235 742.297,396.1C742.329,395.965 742.375,395.837 742.435,395.716C742.495,395.595 742.569,395.483 742.657,395.38C742.744,395.277 742.845,395.189 742.959,395.115C743.073,395.04 743.199,394.982 743.335,394.939C743.472,394.896 743.62,394.874 743.779,394.874C743.87,394.874 743.955,394.882 744.034,394.899C744.114,394.915 744.185,394.935 744.247,394.957C744.31,394.98 744.363,395.005 744.406,395.033C744.449,395.06 744.478,395.081 744.493,395.095C744.509,395.109 744.519,395.123 744.525,395.136C744.53,395.149 744.533,395.165 744.533,395.185ZM746.466,396.212C746.466,396.309 746.457,396.407 746.439,396.507C746.421,396.607 746.393,396.704 746.356,396.797C746.319,396.89 746.271,396.978 746.214,397.06C746.157,397.142 746.089,397.214 746.012,397.275C745.935,397.336 745.847,397.384 745.748,397.42C745.65,397.456 745.54,397.474 745.419,397.474C745.294,397.474 745.187,397.459 745.098,397.429C745.009,397.399 744.935,397.355 744.878,397.298C744.821,397.241 744.779,397.171 744.751,397.087C744.724,397.004 744.71,396.91 744.71,396.804C744.71,396.708 744.719,396.609 744.737,396.509C744.754,396.409 744.782,396.313 744.82,396.22C744.857,396.128 744.905,396.04 744.961,395.957C745.018,395.875 745.085,395.803 745.162,395.742C745.24,395.68 745.328,395.632 745.426,395.596C745.524,395.56 745.634,395.542 745.755,395.542C745.88,395.542 745.987,395.558 746.076,395.588C746.166,395.619 746.239,395.663 746.297,395.72C746.355,395.777 746.398,395.848 746.425,395.931C746.452,396.014 746.466,396.108 746.466,396.212ZM746.126,396.232C746.126,396.167 746.119,396.108 746.106,396.056C746.092,396.004 746.069,395.96 746.037,395.924C746.005,395.888 745.964,395.861 745.912,395.841C745.861,395.822 745.799,395.812 745.726,395.812C745.648,395.812 745.577,395.826 745.513,395.854C745.449,395.882 745.392,395.92 745.342,395.967C745.292,396.015 745.248,396.07 745.211,396.134C745.174,396.198 745.144,396.266 745.119,396.338C745.095,396.41 745.077,396.485 745.066,396.561C745.054,396.637 745.048,396.712 745.048,396.785C745.048,396.85 745.055,396.908 745.07,396.96C745.084,397.012 745.107,397.057 745.139,397.093C745.171,397.13 745.212,397.158 745.263,397.177C745.314,397.197 745.376,397.206 745.449,397.206C745.528,397.206 745.599,397.192 745.662,397.164C745.726,397.136 745.782,397.098 745.832,397.05C745.882,397.002 745.926,396.946 745.963,396.882C746,396.818 746.031,396.75 746.055,396.677C746.079,396.604 746.097,396.53 746.109,396.454C746.12,396.379 746.126,396.305 746.126,396.232ZM747.06,397.388C747.057,397.398 747.053,397.407 747.046,397.414C747.04,397.422 747.03,397.428 747.017,397.433C747.004,397.438 746.987,397.442 746.965,397.445C746.944,397.447 746.917,397.449 746.886,397.449C746.853,397.449 746.827,397.447 746.807,397.445C746.787,397.442 746.771,397.438 746.76,397.433C746.749,397.428 746.742,397.422 746.739,397.414C746.735,397.407 746.735,397.398 746.738,397.388L747.257,394.779C747.26,394.768 747.264,394.759 747.27,394.751C747.276,394.743 747.285,394.737 747.299,394.732C747.313,394.727 747.33,394.723 747.352,394.72C747.373,394.717 747.4,394.716 747.433,394.716C747.464,394.716 747.49,394.717 747.51,394.72C747.53,394.723 747.546,394.727 747.557,394.732C747.568,394.737 747.575,394.743 747.577,394.751C747.58,394.759 747.581,394.768 747.579,394.779L747.06,397.388ZM747.978,397.388C747.975,397.398 747.971,397.407 747.964,397.414C747.958,397.422 747.948,397.428 747.935,397.433C747.922,397.438 747.905,397.442 747.883,397.445C747.862,397.447 747.835,397.449 747.804,397.449C747.771,397.449 747.745,397.447 747.725,397.445C747.705,397.442 747.689,397.438 747.678,397.433C747.667,397.428 747.66,397.422 747.657,397.414C747.653,397.407 747.653,397.398 747.656,397.388L748.175,394.779C748.178,394.768 748.182,394.759 748.188,394.751C748.194,394.743 748.203,394.737 748.217,394.732C748.231,394.727 748.248,394.723 748.27,394.72C748.291,394.717 748.318,394.716 748.351,394.716C748.382,394.716 748.408,394.717 748.428,394.72C748.448,394.723 748.464,394.727 748.475,394.732C748.486,394.737 748.493,394.743 748.495,394.751C748.498,394.759 748.499,394.768 748.497,394.779L747.978,397.388ZM749.052,397.101C749.052,397.175 749.035,397.25 749.002,397.325C748.969,397.399 748.922,397.473 748.861,397.546L748.511,397.949C748.494,397.968 748.472,397.982 748.445,397.991C748.417,397.999 748.38,398.003 748.331,398.003C748.308,398.003 748.289,398.002 748.275,397.998C748.26,397.995 748.251,397.991 748.245,397.986C748.24,397.98 748.239,397.973 748.241,397.962C748.242,397.952 748.248,397.939 748.257,397.925L748.624,397.388L748.669,397.158C748.676,397.122 748.684,397.094 748.695,397.074C748.705,397.053 748.718,397.037 748.735,397.027C748.751,397.016 748.771,397.009 748.795,397.005C748.819,397.001 748.85,396.999 748.886,396.999C748.919,396.999 748.946,397.001 748.967,397.004C748.989,397.007 749.005,397.013 749.018,397.022C749.03,397.03 749.039,397.041 749.044,397.053C749.049,397.065 749.052,397.081 749.052,397.101ZM752.366,395.63C752.366,395.688 752.363,395.757 752.356,395.84C752.349,395.923 752.337,396.012 752.321,396.108C752.304,396.203 752.283,396.303 752.257,396.406C752.231,396.508 752.199,396.609 752.161,396.706C752.124,396.804 752.079,396.897 752.028,396.986C751.976,397.074 751.917,397.151 751.851,397.216C751.774,397.294 751.681,397.357 751.573,397.404C751.464,397.451 751.337,397.474 751.191,397.474C751.068,397.474 750.963,397.457 750.876,397.424C750.789,397.391 750.717,397.342 750.661,397.278C750.605,397.213 750.564,397.134 750.538,397.039C750.512,396.945 750.499,396.837 750.499,396.716C750.499,396.659 750.503,396.589 750.51,396.506C750.517,396.424 750.529,396.334 750.545,396.239C750.561,396.143 750.583,396.044 750.609,395.942C750.635,395.84 750.667,395.739 750.705,395.641C750.744,395.543 750.788,395.45 750.839,395.362C750.89,395.274 750.949,395.197 751.015,395.13C751.055,395.09 751.099,395.053 751.147,395.021C751.194,394.988 751.246,394.961 751.301,394.94C751.356,394.918 751.415,394.902 751.478,394.89C751.54,394.878 751.607,394.872 751.677,394.872C751.801,394.872 751.906,394.889 751.993,394.923C752.081,394.957 752.152,395.006 752.207,395.071C752.263,395.135 752.303,395.215 752.328,395.309C752.354,395.403 752.366,395.51 752.366,395.63ZM752.025,395.634C752.025,395.469 751.994,395.346 751.932,395.267C751.87,395.188 751.771,395.148 751.636,395.148C751.559,395.148 751.49,395.161 751.428,395.188C751.366,395.215 751.309,395.253 751.257,395.304C751.205,395.356 751.159,395.421 751.118,395.497C751.078,395.574 751.042,395.657 751.011,395.746C750.98,395.836 750.954,395.927 750.933,396.022C750.912,396.116 750.895,396.207 750.881,396.295C750.867,396.383 750.857,396.463 750.851,396.535C750.844,396.608 750.841,396.667 750.841,396.712C750.841,396.878 750.872,397 750.935,397.079C750.997,397.159 751.096,397.199 751.23,397.199C751.308,397.199 751.378,397.185 751.44,397.159C751.502,397.132 751.558,397.093 751.609,397.042C751.659,396.992 751.705,396.927 751.746,396.85C751.787,396.772 751.824,396.689 751.855,396.6C751.886,396.511 751.912,396.419 751.934,396.325C751.955,396.23 751.973,396.139 751.987,396.052C752,395.965 752.01,395.885 752.016,395.812C752.022,395.739 752.025,395.68 752.025,395.634ZM754.243,396.433C754.243,396.505 754.235,396.58 754.219,396.66C754.203,396.741 754.178,396.819 754.145,396.896C754.112,396.973 754.069,397.046 754.017,397.116C753.965,397.185 753.901,397.247 753.825,397.3C753.75,397.354 753.663,397.396 753.565,397.427C753.466,397.458 753.355,397.474 753.23,397.474C753.111,397.474 753.011,397.457 752.93,397.422C752.849,397.388 752.782,397.34 752.73,397.279C752.678,397.217 752.64,397.144 752.617,397.059C752.595,396.974 752.583,396.88 752.583,396.779C752.583,396.728 752.587,396.662 752.593,396.581C752.6,396.501 752.611,396.41 752.627,396.311C752.644,396.211 752.666,396.107 752.696,395.998C752.725,395.89 752.763,395.782 752.811,395.676C752.858,395.57 752.915,395.468 752.982,395.371C753.048,395.274 753.127,395.189 753.217,395.116C753.308,395.042 753.412,394.983 753.53,394.94C753.647,394.896 753.78,394.874 753.927,394.874C754.012,394.874 754.088,394.881 754.157,394.894C754.225,394.907 754.284,394.923 754.333,394.941C754.365,394.954 754.386,394.967 754.397,394.981C754.408,394.994 754.413,395.013 754.413,395.036C754.413,395.046 754.413,395.056 754.411,395.069C754.41,395.081 754.408,395.094 754.406,395.109C754.403,395.123 754.399,395.137 754.395,395.152C754.39,395.166 754.385,395.179 754.379,395.191C754.373,395.202 754.366,395.212 754.358,395.219C754.349,395.226 754.339,395.23 754.327,395.23C754.313,395.23 754.295,395.225 754.274,395.216C754.252,395.207 754.225,395.197 754.191,395.186C754.157,395.175 754.116,395.165 754.069,395.156C754.021,395.146 753.965,395.142 753.902,395.142C753.779,395.142 753.67,395.167 753.574,395.216C753.477,395.266 753.393,395.331 753.321,395.413C753.248,395.495 753.187,395.59 753.137,395.698C753.087,395.805 753.048,395.918 753.021,396.036C753.096,395.996 753.183,395.961 753.282,395.931C753.38,395.901 753.491,395.886 753.615,395.886C753.728,395.886 753.824,395.9 753.903,395.929C753.981,395.958 754.046,395.996 754.097,396.045C754.148,396.094 754.185,396.152 754.208,396.218C754.232,396.285 754.243,396.356 754.243,396.433ZM753.9,396.476C753.9,396.428 753.893,396.383 753.879,396.343C753.866,396.303 753.844,396.268 753.815,396.24C753.785,396.211 753.747,396.189 753.699,396.174C753.65,396.159 753.593,396.152 753.527,396.152C753.478,396.152 753.429,396.156 753.379,396.163C753.329,396.171 753.28,396.183 753.232,396.198C753.184,396.213 753.137,396.23 753.093,396.25C753.049,396.271 753.007,396.292 752.968,396.316C752.95,396.406 752.937,396.487 752.93,396.56C752.923,396.633 752.919,396.699 752.919,396.757C752.919,396.917 752.951,397.032 753.014,397.1C753.077,397.168 753.169,397.202 753.288,397.202C753.357,397.202 753.421,397.192 753.478,397.17C753.535,397.149 753.587,397.119 753.632,397.082C753.678,397.045 753.717,397.002 753.75,396.953C753.783,396.905 753.811,396.853 753.833,396.799C753.855,396.745 753.872,396.69 753.883,396.635C753.894,396.58 753.9,396.527 753.9,396.476ZM754.468,397.908C754.459,397.924 754.449,397.938 754.438,397.948C754.427,397.957 754.413,397.965 754.398,397.97C754.382,397.975 754.364,397.979 754.344,397.982C754.324,397.984 754.3,397.986 754.273,397.986C754.238,397.986 754.209,397.983 754.187,397.979C754.165,397.974 754.149,397.968 754.139,397.959C754.129,397.951 754.125,397.94 754.125,397.928C754.126,397.916 754.131,397.901 754.142,397.884L755.972,394.644C755.981,394.627 755.991,394.614 756.002,394.604C756.013,394.594 756.026,394.586 756.041,394.58C756.056,394.575 756.074,394.571 756.095,394.569C756.116,394.567 756.14,394.566 756.167,394.566C756.201,394.566 756.229,394.568 756.251,394.573C756.273,394.577 756.289,394.583 756.299,394.591C756.309,394.599 756.314,394.609 756.314,394.622C756.314,394.635 756.309,394.65 756.3,394.667L754.468,397.908ZM757.615,397.232C757.615,397.24 757.614,397.251 757.612,397.265C757.61,397.279 757.607,397.294 757.603,397.309C757.599,397.324 757.594,397.339 757.588,397.355C757.582,397.37 757.575,397.384 757.567,397.396C757.558,397.408 757.549,397.417 757.538,397.425C757.528,397.433 757.516,397.437 757.503,397.437L756.107,397.437C756.09,397.437 756.075,397.435 756.064,397.431C756.052,397.427 756.043,397.422 756.036,397.414C756.03,397.407 756.025,397.399 756.022,397.389C756.019,397.379 756.017,397.368 756.017,397.355C756.017,397.342 756.018,397.325 756.02,397.304C756.022,397.283 756.027,397.26 756.034,397.236C756.042,397.211 756.054,397.186 756.07,397.16C756.085,397.135 756.107,397.111 756.134,397.087L756.784,396.517C756.886,396.428 756.974,396.345 757.047,396.268C757.121,396.19 757.183,396.118 757.233,396.051C757.283,395.984 757.323,395.922 757.353,395.866C757.383,395.809 757.406,395.757 757.423,395.71C757.44,395.663 757.451,395.621 757.456,395.582C757.462,395.544 757.464,395.51 757.464,395.48C757.464,395.449 757.459,395.415 757.449,395.379C757.44,395.343 757.423,395.31 757.399,395.279C757.375,395.247 757.34,395.221 757.296,395.201C757.252,395.18 757.196,395.169 757.128,395.169C757.054,395.169 756.983,395.18 756.915,395.202C756.848,395.225 756.786,395.249 756.732,395.276C756.677,395.302 756.631,395.327 756.594,395.35C756.557,395.373 756.531,395.384 756.517,395.384C756.504,395.384 756.493,395.378 756.486,395.365C756.478,395.352 756.474,395.333 756.474,395.308C756.474,395.298 756.475,395.286 756.477,395.274C756.479,395.261 756.481,395.248 756.483,395.234C756.485,395.219 756.488,395.205 756.492,395.191C756.497,395.176 756.502,395.163 756.508,395.15C756.514,395.137 756.52,395.124 756.528,395.112C756.535,395.099 756.543,395.089 756.552,395.079C756.566,395.065 756.595,395.046 756.637,395.023C756.679,394.999 756.73,394.977 756.79,394.954C756.85,394.932 756.917,394.913 756.99,394.897C757.062,394.881 757.138,394.872 757.216,394.872C757.341,394.872 757.445,394.89 757.527,394.925C757.609,394.96 757.673,395.005 757.721,395.058C757.769,395.111 757.802,395.169 757.821,395.232C757.839,395.294 757.849,395.354 757.849,395.41C757.849,395.463 757.845,395.518 757.837,395.574C757.829,395.63 757.814,395.688 757.791,395.75C757.769,395.812 757.737,395.878 757.696,395.947C757.655,396.016 757.601,396.09 757.535,396.17C757.47,396.25 757.39,396.337 757.297,396.43C757.204,396.523 757.093,396.624 756.964,396.734L756.476,397.152L757.554,397.152C757.576,397.152 757.592,397.16 757.601,397.176C757.61,397.192 757.615,397.211 757.615,397.232ZM759.999,395.63C759.999,395.688 759.996,395.757 759.989,395.84C759.981,395.923 759.97,396.012 759.953,396.108C759.937,396.203 759.916,396.303 759.89,396.406C759.864,396.508 759.832,396.609 759.794,396.706C759.756,396.804 759.712,396.897 759.66,396.986C759.609,397.074 759.55,397.151 759.484,397.216C759.407,397.294 759.314,397.357 759.205,397.404C759.097,397.451 758.969,397.474 758.824,397.474C758.701,397.474 758.596,397.457 758.509,397.424C758.422,397.391 758.35,397.342 758.294,397.278C758.238,397.213 758.197,397.134 758.171,397.039C758.145,396.945 758.132,396.837 758.132,396.716C758.132,396.659 758.136,396.589 758.143,396.506C758.15,396.424 758.162,396.334 758.178,396.239C758.194,396.143 758.215,396.044 758.241,395.942C758.268,395.84 758.3,395.739 758.338,395.641C758.377,395.543 758.421,395.45 758.472,395.362C758.523,395.274 758.581,395.197 758.648,395.13C758.688,395.09 758.732,395.053 758.78,395.021C758.827,394.988 758.879,394.961 758.934,394.94C758.989,394.918 759.048,394.902 759.111,394.89C759.173,394.878 759.24,394.872 759.31,394.872C759.434,394.872 759.539,394.889 759.626,394.923C759.713,394.957 759.785,395.006 759.84,395.071C759.895,395.135 759.936,395.215 759.961,395.309C759.987,395.403 759.999,395.51 759.999,395.63ZM759.658,395.634C759.658,395.469 759.627,395.346 759.565,395.267C759.503,395.188 759.404,395.148 759.269,395.148C759.192,395.148 759.123,395.161 759.061,395.188C758.999,395.215 758.942,395.253 758.89,395.304C758.838,395.356 758.792,395.421 758.751,395.497C758.711,395.574 758.675,395.657 758.644,395.746C758.613,395.836 758.587,395.927 758.566,396.022C758.545,396.116 758.528,396.207 758.514,396.295C758.5,396.383 758.49,396.463 758.484,396.535C758.477,396.608 758.474,396.667 758.474,396.712C758.474,396.878 758.505,397 758.568,397.079C758.63,397.159 758.728,397.199 758.863,397.199C758.941,397.199 759.011,397.185 759.073,397.159C759.134,397.132 759.191,397.093 759.241,397.042C759.292,396.992 759.338,396.927 759.379,396.85C759.42,396.772 759.456,396.689 759.488,396.6C759.519,396.511 759.545,396.419 759.567,396.325C759.588,396.23 759.606,396.139 759.619,396.052C759.633,395.965 759.643,395.885 759.649,395.812C759.655,395.739 759.658,395.68 759.658,395.634ZM761.669,397.232C761.669,397.24 761.668,397.251 761.666,397.265C761.664,397.279 761.661,397.294 761.658,397.309C761.654,397.324 761.649,397.339 761.643,397.355C761.637,397.37 761.63,397.384 761.621,397.396C761.613,397.408 761.603,397.417 761.593,397.425C761.583,397.433 761.571,397.437 761.558,397.437L760.161,397.437C760.144,397.437 760.13,397.435 760.118,397.431C760.107,397.427 760.098,397.422 760.091,397.414C760.085,397.407 760.08,397.399 760.076,397.389C760.073,397.379 760.072,397.368 760.072,397.355C760.072,397.342 760.073,397.325 760.074,397.304C760.076,397.283 760.081,397.26 760.089,397.236C760.097,397.211 760.109,397.186 760.124,397.16C760.14,397.135 760.161,397.111 760.189,397.087L760.839,396.517C760.941,396.428 761.028,396.345 761.102,396.268C761.175,396.19 761.237,396.118 761.287,396.051C761.338,395.984 761.378,395.922 761.408,395.866C761.437,395.809 761.461,395.757 761.478,395.71C761.495,395.663 761.506,395.621 761.511,395.582C761.516,395.544 761.519,395.51 761.519,395.48C761.519,395.449 761.514,395.415 761.504,395.379C761.494,395.343 761.477,395.31 761.453,395.279C761.429,395.247 761.395,395.221 761.351,395.201C761.307,395.18 761.251,395.169 761.183,395.169C761.109,395.169 761.038,395.18 760.97,395.202C760.902,395.225 760.841,395.249 760.786,395.276C760.732,395.302 760.686,395.327 760.649,395.35C760.612,395.373 760.586,395.384 760.572,395.384C760.559,395.384 760.548,395.378 760.54,395.365C760.533,395.352 760.529,395.333 760.529,395.308C760.529,395.298 760.53,395.286 760.532,395.274C760.533,395.261 760.535,395.248 760.537,395.234C760.539,395.219 760.543,395.205 760.547,395.191C760.552,395.176 760.557,395.163 760.563,395.15C760.569,395.137 760.575,395.124 760.582,395.112C760.589,395.099 760.598,395.089 760.607,395.079C760.621,395.065 760.649,395.046 760.692,395.023C760.734,394.999 760.785,394.977 760.845,394.954C760.905,394.932 760.971,394.913 761.044,394.897C761.117,394.881 761.193,394.872 761.271,394.872C761.396,394.872 761.499,394.89 761.581,394.925C761.663,394.96 761.728,395.005 761.776,395.058C761.823,395.111 761.856,395.169 761.875,395.232C761.894,395.294 761.904,395.354 761.904,395.41C761.904,395.463 761.9,395.518 761.892,395.574C761.884,395.63 761.869,395.688 761.846,395.75C761.823,395.812 761.791,395.878 761.75,395.947C761.709,396.016 761.656,396.09 761.59,396.17C761.524,396.25 761.445,396.337 761.352,396.43C761.259,396.523 761.148,396.624 761.019,396.734L760.531,397.152L761.609,397.152C761.631,397.152 761.646,397.16 761.656,397.176C761.665,397.192 761.669,397.211 761.669,397.232ZM763.786,396.63C763.786,396.694 763.778,396.759 763.762,396.826C763.746,396.892 763.72,396.956 763.685,397.019C763.65,397.081 763.605,397.14 763.551,397.196C763.497,397.251 763.432,397.299 763.356,397.34C763.28,397.381 763.193,397.414 763.095,397.438C762.997,397.462 762.887,397.474 762.763,397.474C762.698,397.474 762.636,397.47 762.578,397.462C762.52,397.454 762.466,397.444 762.414,397.43C762.363,397.416 762.316,397.4 762.274,397.381C762.231,397.362 762.193,397.342 762.159,397.32C762.14,397.308 762.126,397.294 762.117,397.278C762.109,397.261 762.105,397.243 762.105,397.222C762.105,397.214 762.105,397.203 762.107,397.19C762.108,397.176 762.11,397.161 762.113,397.146C762.115,397.13 762.118,397.114 762.122,397.096C762.126,397.078 762.131,397.063 762.137,397.049C762.143,397.035 762.15,397.024 762.158,397.016C762.167,397.007 762.176,397.003 762.187,397.003C762.199,397.003 762.22,397.013 762.25,397.034C762.281,397.054 762.321,397.076 762.37,397.1C762.42,397.124 762.478,397.146 762.545,397.166C762.612,397.187 762.689,397.197 762.777,397.197C762.886,397.197 762.981,397.18 763.061,397.146C763.141,397.112 763.207,397.069 763.259,397.016C763.311,396.963 763.35,396.905 763.375,396.84C763.401,396.776 763.413,396.712 763.413,396.648C763.413,396.596 763.404,396.547 763.385,396.501C763.366,396.456 763.336,396.416 763.295,396.383C763.254,396.35 763.201,396.324 763.135,396.304C763.069,396.285 762.99,396.275 762.898,396.275L762.626,396.275C762.605,396.275 762.589,396.269 762.578,396.258C762.567,396.247 762.562,396.229 762.562,396.204C762.562,396.195 762.563,396.184 762.565,396.169C762.567,396.155 762.57,396.141 762.574,396.127C762.577,396.114 762.582,396.1 762.588,396.085C762.594,396.071 762.601,396.058 762.61,396.046C762.618,396.035 762.628,396.025 762.638,396.019C762.648,396.012 762.661,396.009 762.675,396.009L762.896,396.009C762.992,396.009 763.081,395.994 763.161,395.965C763.242,395.936 763.311,395.896 763.369,395.844C763.427,395.793 763.473,395.733 763.505,395.665C763.538,395.598 763.554,395.525 763.554,395.449C763.554,395.356 763.528,395.283 763.475,395.23C763.422,395.176 763.335,395.15 763.212,395.15C763.138,395.15 763.067,395.161 762.999,395.184C762.932,395.207 762.87,395.231 762.816,395.258C762.761,395.285 762.714,395.31 762.676,395.333C762.638,395.357 762.611,395.368 762.595,395.368C762.583,395.368 762.574,395.363 762.568,395.352C762.561,395.341 762.558,395.326 762.558,395.306C762.558,395.296 762.559,395.281 762.562,395.261C762.564,395.242 762.569,395.221 762.574,395.199C762.58,395.176 762.588,395.155 762.598,395.134C762.608,395.113 762.619,395.096 762.632,395.083C762.646,395.069 762.674,395.05 762.716,395.026C762.758,395.002 762.809,394.978 762.868,394.955C762.928,394.933 762.996,394.913 763.071,394.897C763.145,394.881 763.223,394.872 763.302,394.872C763.405,394.872 763.495,394.884 763.573,394.909C763.65,394.933 763.714,394.967 763.765,395.012C763.816,395.057 763.854,395.112 763.879,395.176C763.905,395.241 763.917,395.313 763.917,395.392C763.917,395.483 763.903,395.569 763.873,395.649C763.844,395.729 763.802,395.8 763.748,395.863C763.694,395.925 763.63,395.979 763.556,396.024C763.482,396.069 763.4,396.101 763.312,396.12L763.312,396.124C763.398,396.133 763.471,396.154 763.532,396.186C763.592,396.218 763.641,396.257 763.679,396.303C763.717,396.349 763.744,396.401 763.761,396.457C763.778,396.514 763.786,396.572 763.786,396.63Z"/>
    </g>
</svg>
