<?xml version="1.0" encoding="UTF-8" standalone="no"?>
<!DOCTYPE svg PUBLIC "-//W3C//DTD SVG 1.1//EN" "http://www.w3.org/Graphics/SVG/1.1/DTD/svg11.dtd">
<svg width="100%" height="100%" viewBox="0 0 30 7" version="1.1" xmlns="http://www.w3.org/2000/svg" xmlns:xlink="http://www.w3.org/1999/xlink" xml:space="preserve" xmlns:serif="http://www.serif.com/" style="fill-rule:evenodd;clip-rule:evenodd;stroke-linejoin:round;stroke-miterlimit:2;">
    <g transform="matrix(1,0,0,1,-651.428,-398.426)">
        <path d="M680.909,404.603L651.428,404.603L651.428,398.426L680.909,398.426L680.909,404.603ZM676.628,401.793L676.628,401.734C676.628,401.643 676.616,401.558 676.593,401.48C676.57,401.401 676.533,401.334 676.483,401.277C676.433,401.22 676.37,401.175 676.292,401.143C676.214,401.11 676.121,401.094 676.011,401.094C675.908,401.094 675.815,401.111 675.732,401.146C675.65,401.18 675.58,401.229 675.522,401.294C675.465,401.359 675.421,401.438 675.39,401.532C675.36,401.625 675.345,401.73 675.345,401.846C675.345,401.968 675.359,402.074 675.388,402.165C675.417,402.256 675.461,402.331 675.519,402.391C675.578,402.45 675.651,402.495 675.738,402.524C675.826,402.553 675.927,402.568 676.044,402.568C676.108,402.568 676.169,402.564 676.225,402.556C676.282,402.547 676.332,402.537 676.376,402.526C676.42,402.515 676.456,402.504 676.485,402.492C676.513,402.48 676.53,402.471 676.537,402.464C676.543,402.457 676.548,402.45 676.552,402.443C676.556,402.435 676.559,402.426 676.561,402.416C676.563,402.405 676.564,402.392 676.565,402.377C676.566,402.362 676.567,402.343 676.567,402.322C676.567,402.297 676.566,402.277 676.564,402.261C676.563,402.245 676.56,402.233 676.556,402.224C676.552,402.215 676.548,402.209 676.542,402.205C676.536,402.202 676.529,402.2 676.52,402.2C676.505,402.2 676.486,402.205 676.463,402.214C676.439,402.223 676.41,402.234 676.374,402.245C676.338,402.256 676.296,402.266 676.247,402.276C676.198,402.285 676.142,402.29 676.077,402.29C676.014,402.29 675.959,402.281 675.914,402.265C675.869,402.248 675.831,402.224 675.803,402.192C675.774,402.16 675.753,402.122 675.74,402.076C675.727,402.031 675.72,401.981 675.72,401.925L676.515,401.925C676.55,401.925 676.578,401.914 676.598,401.893C676.618,401.871 676.628,401.838 676.628,401.793ZM676.271,401.688L675.72,401.688C675.722,401.642 675.729,401.598 675.741,401.558C675.753,401.517 675.771,401.482 675.794,401.452C675.817,401.423 675.846,401.399 675.88,401.381C675.915,401.364 675.956,401.355 676.003,401.355C676.095,401.355 676.164,401.385 676.208,401.444C676.253,401.503 676.274,401.584 676.271,401.688ZM675.209,401.269C675.209,401.218 675.204,401.182 675.193,401.16C675.183,401.139 675.17,401.128 675.153,401.128L674.738,401.128C674.706,401.119 674.671,401.112 674.634,401.108C674.596,401.103 674.557,401.1 674.516,401.1C674.436,401.1 674.362,401.111 674.296,401.133C674.23,401.155 674.173,401.187 674.125,401.228C674.077,401.27 674.039,401.321 674.013,401.381C673.986,401.441 673.972,401.509 673.972,401.585C673.972,401.656 673.983,401.716 674.003,401.764C674.024,401.812 674.051,401.853 674.085,401.887C674.043,401.925 674.009,401.968 673.983,402.015C673.956,402.062 673.943,402.115 673.943,402.172C673.943,402.218 673.955,402.261 673.977,402.299C674,402.338 674.033,402.368 674.075,402.391C674.045,402.413 674.018,402.437 673.994,402.461C673.971,402.485 673.951,402.511 673.935,402.538C673.919,402.565 673.907,402.593 673.898,402.622C673.89,402.651 673.886,402.682 673.886,402.714C673.886,402.766 673.897,402.814 673.92,402.857C673.943,402.901 673.98,402.938 674.03,402.969C674.081,403.001 674.145,403.025 674.224,403.043C674.302,403.06 674.397,403.069 674.508,403.069C674.623,403.069 674.723,403.057 674.808,403.032C674.893,403.008 674.965,402.975 675.021,402.933C675.078,402.891 675.12,402.841 675.149,402.784C675.177,402.727 675.191,402.666 675.191,402.602C675.191,402.543 675.181,402.491 675.16,402.445C675.139,402.399 675.108,402.36 675.069,402.327C675.029,402.294 674.98,402.269 674.922,402.251C674.864,402.233 674.798,402.222 674.724,402.219L674.406,402.208C674.361,402.206 674.326,402.196 674.301,402.178C674.276,402.16 674.264,402.136 674.264,402.108C674.264,402.087 674.268,402.067 674.278,402.049C674.287,402.032 674.298,402.017 674.309,402.004C674.33,402.018 674.359,402.03 674.397,402.04C674.435,402.05 674.475,402.055 674.517,402.055C674.599,402.055 674.674,402.045 674.741,402.024C674.808,402.003 674.865,401.972 674.912,401.931C674.959,401.891 674.996,401.841 675.021,401.782C675.047,401.723 675.059,401.655 675.059,401.579C675.059,401.547 675.055,401.516 675.045,401.486C675.036,401.456 675.021,401.43 674.999,401.406L675.153,401.406C675.169,401.406 675.182,401.395 675.193,401.373C675.203,401.35 675.209,401.316 675.209,401.269ZM674.822,402.621C674.822,402.646 674.817,402.67 674.807,402.693C674.798,402.716 674.781,402.737 674.758,402.755C674.734,402.774 674.703,402.789 674.665,402.8C674.627,402.811 674.58,402.817 674.525,402.817C674.435,402.817 674.365,402.804 674.316,402.779C674.267,402.754 674.242,402.716 674.242,402.668C674.242,402.652 674.243,402.637 674.246,402.622C674.249,402.608 674.255,402.592 674.265,402.577C674.274,402.561 674.286,402.545 674.301,402.528C674.316,402.511 674.337,402.493 674.362,402.474L674.624,402.482C674.686,402.483 674.734,402.496 674.769,402.52C674.804,402.543 674.822,402.577 674.822,402.621ZM674.736,401.578C674.736,401.607 674.731,401.635 674.722,401.662C674.712,401.689 674.699,401.712 674.681,401.733C674.663,401.754 674.64,401.77 674.612,401.781C674.585,401.793 674.553,401.799 674.516,401.799C674.446,401.799 674.392,401.78 674.353,401.741C674.314,401.702 674.295,401.65 674.295,401.584C674.295,401.553 674.299,401.524 674.308,401.496C674.317,401.469 674.33,401.444 674.348,401.423C674.366,401.402 674.389,401.386 674.416,401.373C674.444,401.361 674.475,401.355 674.511,401.355C674.583,401.355 674.638,401.375 674.677,401.414C674.716,401.453 674.736,401.507 674.736,401.578ZM657.636,400.933C657.636,400.884 657.633,400.847 657.627,400.823C657.622,400.798 657.612,400.778 657.599,400.765C657.586,400.751 657.562,400.735 657.529,400.716C657.496,400.698 657.454,400.681 657.404,400.664C657.354,400.648 657.295,400.635 657.228,400.623C657.16,400.612 657.085,400.607 657.003,400.607C656.854,400.607 656.718,400.629 656.597,400.675C656.475,400.721 656.372,400.787 656.286,400.874C656.2,400.96 656.133,401.065 656.086,401.189C656.04,401.312 656.016,401.452 656.016,401.607C656.016,401.757 656.038,401.892 656.082,402.011C656.126,402.129 656.189,402.23 656.272,402.312C656.355,402.395 656.457,402.458 656.576,402.501C656.696,402.545 656.832,402.566 656.983,402.566C657.035,402.566 657.086,402.564 657.137,402.559C657.189,402.554 657.239,402.547 657.29,402.537C657.34,402.527 657.389,402.516 657.436,402.502C657.482,402.488 657.522,402.475 657.553,402.462C657.585,402.45 657.606,402.432 657.616,402.41C657.627,402.389 657.632,402.363 657.632,402.334L657.632,401.579C657.632,401.56 657.629,401.542 657.625,401.527C657.62,401.512 657.613,401.499 657.603,401.488C657.594,401.478 657.583,401.47 657.571,401.464C657.559,401.459 657.545,401.456 657.529,401.456L656.889,401.456C656.88,401.456 656.873,401.459 656.866,401.464C656.859,401.47 656.853,401.478 656.848,401.489C656.843,401.5 656.84,401.515 656.837,401.534C656.835,401.552 656.833,401.575 656.833,401.603C656.833,401.655 656.838,401.693 656.848,401.715C656.858,401.737 656.872,401.748 656.889,401.748L657.248,401.748L657.248,402.187C657.212,402.207 657.173,402.221 657.131,402.231C657.089,402.241 657.046,402.246 657.003,402.246C656.916,402.246 656.835,402.232 656.762,402.203C656.69,402.175 656.627,402.133 656.576,402.077C656.524,402.022 656.484,401.952 656.455,401.87C656.426,401.787 656.412,401.692 656.412,401.584C656.412,401.485 656.426,401.395 656.454,401.313C656.482,401.232 656.523,401.162 656.576,401.104C656.628,401.046 656.692,401.001 656.766,400.969C656.84,400.937 656.923,400.921 657.015,400.921C657.101,400.921 657.177,400.93 657.241,400.948C657.306,400.965 657.362,400.984 657.409,401.005C657.456,401.025 657.494,401.045 657.522,401.062C657.55,401.08 657.571,401.088 657.583,401.088C657.592,401.088 657.6,401.086 657.606,401.081C657.613,401.076 657.618,401.068 657.622,401.056C657.627,401.043 657.63,401.027 657.633,401.006C657.635,400.986 657.636,400.962 657.636,400.933ZM677.771,401.299C677.771,401.264 677.77,401.236 677.769,401.216C677.768,401.195 677.767,401.18 677.765,401.17C677.763,401.16 677.761,401.151 677.758,401.146C677.756,401.14 677.752,401.134 677.747,401.129C677.741,401.125 677.733,401.12 677.721,401.116C677.709,401.111 677.696,401.107 677.68,401.104C677.664,401.1 677.649,401.098 677.634,401.097C677.62,401.095 677.606,401.094 677.593,401.094C677.566,401.094 677.539,401.098 677.511,401.105C677.484,401.113 677.457,401.126 677.429,401.144C677.402,401.163 677.373,401.188 677.343,401.22C677.313,401.251 677.28,401.292 677.246,401.34L677.246,401.178C677.246,401.168 677.244,401.16 677.239,401.152C677.234,401.145 677.226,401.139 677.215,401.134C677.204,401.129 677.188,401.125 677.167,401.123C677.147,401.12 677.121,401.119 677.09,401.119C677.059,401.119 677.034,401.12 677.014,401.123C676.994,401.125 676.978,401.129 676.965,401.134C676.952,401.139 676.944,401.145 676.939,401.152C676.934,401.16 676.931,401.168 676.931,401.178L676.931,402.484C676.931,402.494 676.934,402.503 676.94,402.51C676.946,402.517 676.956,402.524 676.97,402.528C676.984,402.533 677.003,402.537 677.027,402.539C677.05,402.542 677.08,402.543 677.116,402.543C677.152,402.543 677.182,402.542 677.205,402.539C677.229,402.537 677.248,402.533 677.262,402.528C677.276,402.524 677.286,402.517 677.292,402.51C677.298,402.503 677.3,402.494 677.3,402.484L677.3,401.67C677.328,401.627 677.353,401.591 677.377,401.562C677.401,401.532 677.424,401.509 677.446,401.491C677.468,401.474 677.489,401.461 677.51,401.452C677.53,401.444 677.551,401.44 677.571,401.44C677.589,401.44 677.605,401.442 677.62,401.445C677.634,401.449 677.648,401.452 677.66,401.456C677.672,401.46 677.683,401.464 677.693,401.467C677.703,401.471 677.712,401.472 677.719,401.472C677.729,401.472 677.737,401.47 677.744,401.465C677.75,401.46 677.755,401.451 677.759,401.439C677.763,401.426 677.766,401.408 677.768,401.386C677.77,401.363 677.771,401.335 677.771,401.299ZM661.578,401.559C661.578,401.408 661.557,401.276 661.515,401.162C661.473,401.047 661.412,400.951 661.331,400.874C661.251,400.796 661.152,400.738 661.034,400.698C660.916,400.659 660.773,400.639 660.604,400.639L660.118,400.639C660.085,400.639 660.058,400.648 660.036,400.667C660.014,400.686 660.003,400.717 660.003,400.76L660.003,402.413C660.003,402.456 660.014,402.487 660.036,402.506C660.058,402.525 660.085,402.534 660.118,402.534L660.57,402.534C660.738,402.534 660.883,402.516 661.005,402.479C661.126,402.443 661.229,402.385 661.314,402.307C661.399,402.229 661.465,402.128 661.51,402.005C661.555,401.881 661.578,401.733 661.578,401.559ZM661.18,401.572C661.18,401.681 661.168,401.777 661.144,401.859C661.12,401.941 661.084,402.01 661.035,402.065C660.987,402.12 660.927,402.161 660.854,402.189C660.782,402.216 660.693,402.23 660.588,402.23L660.387,402.23L660.387,400.941L660.582,400.941C660.7,400.941 660.796,400.956 660.868,400.988C660.941,401.02 661.001,401.064 661.047,401.121C661.093,401.177 661.127,401.244 661.148,401.321C661.169,401.399 661.18,401.482 661.18,401.572ZM666.335,403.842L666.335,399.188C666.335,399.096 666.261,399.021 666.169,399.021C666.077,399.021 666.002,399.096 666.002,399.188L666.002,403.842C666.002,403.934 666.077,404.008 666.169,404.008C666.261,404.008 666.335,403.934 666.335,403.842ZM659.59,402.399L659.59,400.696C659.59,400.686 659.588,400.677 659.583,400.67C659.578,400.662 659.57,400.655 659.557,400.649C659.545,400.643 659.528,400.639 659.505,400.637C659.483,400.634 659.455,400.633 659.422,400.633C659.387,400.633 659.358,400.634 659.335,400.637C659.313,400.639 659.295,400.643 659.281,400.649C659.268,400.655 659.258,400.662 659.252,400.67C659.246,400.677 659.243,400.686 659.243,400.696L659.243,401.585C659.243,401.652 659.244,401.723 659.245,401.797C659.247,401.872 659.248,401.943 659.251,402.011C659.234,401.972 659.215,401.933 659.196,401.894C659.178,401.855 659.159,401.815 659.139,401.775C659.12,401.734 659.099,401.694 659.078,401.653C659.057,401.613 659.036,401.571 659.015,401.529L658.645,400.837C658.627,400.798 658.609,400.766 658.591,400.741C658.574,400.715 658.555,400.694 658.535,400.68C658.515,400.665 658.492,400.655 658.467,400.648C658.441,400.642 658.41,400.639 658.373,400.639L658.166,400.639C658.127,400.639 658.094,400.65 658.068,400.673C658.041,400.696 658.027,400.731 658.027,400.776L658.027,402.48C658.027,402.49 658.03,402.499 658.035,402.506C658.04,402.514 658.048,402.521 658.061,402.526C658.074,402.532 658.091,402.536 658.114,402.539C658.136,402.542 658.165,402.543 658.199,402.543C658.234,402.543 658.263,402.542 658.285,402.539C658.308,402.536 658.325,402.532 658.339,402.526C658.352,402.521 658.361,402.514 658.366,402.506C658.372,402.499 658.375,402.49 658.375,402.48L658.375,401.488C658.375,401.414 658.374,401.342 658.372,401.272C658.37,401.202 658.367,401.132 658.363,401.062L658.366,401.062C658.388,401.12 658.414,401.179 658.442,401.24C658.47,401.301 658.498,401.358 658.525,401.411L658.997,402.297C659.021,402.346 659.043,402.386 659.063,402.416C659.083,402.447 659.103,402.472 659.124,402.49C659.145,402.508 659.168,402.52 659.193,402.527C659.218,402.534 659.247,402.537 659.281,402.537L659.445,402.537C659.464,402.537 659.482,402.535 659.5,402.529C659.518,402.524 659.534,402.515 659.547,402.504C659.56,402.492 659.571,402.477 659.579,402.46C659.586,402.442 659.59,402.422 659.59,402.399ZM670.732,400.797C670.732,400.768 670.731,400.743 670.728,400.722C670.726,400.702 670.722,400.685 670.717,400.673C670.713,400.661 670.706,400.652 670.699,400.647C670.692,400.641 670.684,400.639 670.675,400.639L669.339,400.639C669.329,400.639 669.321,400.641 669.314,400.647C669.307,400.652 669.301,400.661 669.297,400.673C669.292,400.685 669.288,400.702 669.286,400.722C669.283,400.743 669.282,400.768 669.282,400.797C669.282,400.825 669.283,400.849 669.286,400.869C669.288,400.889 669.292,400.906 669.297,400.918C669.301,400.93 669.307,400.939 669.314,400.945C669.321,400.951 669.329,400.954 669.339,400.954L669.814,400.954L669.814,402.482C669.814,402.491 669.817,402.5 669.823,402.508C669.83,402.516 669.84,402.522 669.855,402.527C669.869,402.532 669.889,402.536 669.914,402.539C669.939,402.542 669.97,402.543 670.007,402.543C670.044,402.543 670.075,402.542 670.1,402.539C670.125,402.536 670.145,402.532 670.159,402.527C670.174,402.522 670.185,402.516 670.191,402.508C670.197,402.5 670.2,402.491 670.2,402.482L670.2,400.954L670.675,400.954C670.684,400.954 670.692,400.951 670.699,400.945C670.706,400.939 670.713,400.93 670.717,400.918C670.722,400.906 670.726,400.889 670.728,400.869C670.731,400.849 670.732,400.825 670.732,400.797ZM671.62,401.299C671.62,401.264 671.619,401.236 671.618,401.216C671.617,401.195 671.616,401.18 671.614,401.17C671.612,401.16 671.61,401.151 671.607,401.146C671.605,401.14 671.601,401.134 671.596,401.129C671.59,401.125 671.582,401.12 671.57,401.116C671.558,401.111 671.545,401.107 671.529,401.104C671.513,401.1 671.498,401.098 671.484,401.097C671.469,401.095 671.455,401.094 671.443,401.094C671.415,401.094 671.388,401.098 671.361,401.105C671.333,401.113 671.306,401.126 671.279,401.144C671.251,401.163 671.222,401.188 671.192,401.22C671.162,401.251 671.13,401.292 671.095,401.34L671.095,401.178C671.095,401.168 671.093,401.16 671.088,401.152C671.083,401.145 671.075,401.139 671.064,401.134C671.053,401.129 671.037,401.125 671.016,401.123C670.996,401.12 670.97,401.119 670.939,401.119C670.908,401.119 670.883,401.12 670.863,401.123C670.843,401.125 670.827,401.129 670.814,401.134C670.801,401.139 670.793,401.145 670.788,401.152C670.783,401.16 670.78,401.168 670.78,401.178L670.78,402.484C670.78,402.494 670.783,402.503 670.789,402.51C670.795,402.517 670.805,402.524 670.819,402.528C670.833,402.533 670.852,402.537 670.876,402.539C670.899,402.542 670.929,402.543 670.965,402.543C671.001,402.543 671.031,402.542 671.054,402.539C671.078,402.537 671.097,402.533 671.111,402.528C671.125,402.524 671.135,402.517 671.141,402.51C671.147,402.503 671.15,402.494 671.15,402.484L671.15,401.67C671.177,401.627 671.203,401.591 671.227,401.562C671.25,401.532 671.273,401.509 671.295,401.491C671.317,401.474 671.339,401.461 671.359,401.452C671.38,401.444 671.4,401.44 671.421,401.44C671.438,401.44 671.454,401.442 671.469,401.445C671.484,401.449 671.497,401.452 671.509,401.456C671.521,401.46 671.532,401.464 671.542,401.467C671.552,401.471 671.561,401.472 671.569,401.472C671.578,401.472 671.586,401.47 671.593,401.465C671.599,401.46 671.604,401.451 671.608,401.439C671.612,401.426 671.615,401.408 671.617,401.386C671.619,401.363 671.62,401.335 671.62,401.299ZM672.244,400.735C672.244,400.664 672.229,400.615 672.2,400.587C672.171,400.559 672.115,400.545 672.033,400.545C671.95,400.545 671.893,400.559 671.864,400.588C671.834,400.617 671.819,400.669 671.819,400.743C671.819,400.814 671.833,400.863 671.862,400.891C671.891,400.918 671.947,400.932 672.03,400.932C672.112,400.932 672.168,400.918 672.198,400.889C672.229,400.861 672.244,400.81 672.244,400.735ZM672.216,402.484L672.216,401.181C672.216,401.171 672.213,401.162 672.207,401.155C672.201,401.148 672.191,401.141 672.177,401.136C672.163,401.131 672.144,401.127 672.121,401.124C672.097,401.121 672.068,401.119 672.031,401.119C671.995,401.119 671.966,401.121 671.942,401.124C671.919,401.127 671.9,401.131 671.886,401.136C671.872,401.141 671.862,401.148 671.856,401.155C671.85,401.162 671.847,401.171 671.847,401.181L671.847,402.484C671.847,402.494 671.85,402.503 671.856,402.51C671.862,402.517 671.872,402.524 671.886,402.528C671.9,402.533 671.919,402.537 671.942,402.539C671.966,402.542 671.995,402.543 672.031,402.543C672.068,402.543 672.097,402.542 672.121,402.539C672.144,402.537 672.163,402.533 672.177,402.528C672.191,402.524 672.201,402.517 672.207,402.51C672.213,402.503 672.216,402.494 672.216,402.484ZM673.761,401.269C673.761,401.218 673.756,401.182 673.746,401.16C673.736,401.139 673.722,401.128 673.706,401.128L673.291,401.128C673.259,401.119 673.224,401.112 673.186,401.108C673.149,401.103 673.11,401.1 673.069,401.1C672.988,401.1 672.915,401.111 672.849,401.133C672.782,401.155 672.725,401.187 672.677,401.228C672.63,401.27 672.592,401.321 672.565,401.381C672.539,401.441 672.525,401.509 672.525,401.585C672.525,401.656 672.535,401.716 672.556,401.764C672.576,401.812 672.604,401.853 672.638,401.887C672.596,401.925 672.562,401.968 672.535,402.015C672.509,402.062 672.496,402.115 672.496,402.172C672.496,402.218 672.507,402.261 672.53,402.299C672.553,402.338 672.586,402.368 672.628,402.391C672.597,402.413 672.571,402.437 672.547,402.461C672.524,402.485 672.504,402.511 672.488,402.538C672.472,402.565 672.459,402.593 672.451,402.622C672.443,402.651 672.439,402.682 672.439,402.714C672.439,402.766 672.45,402.814 672.473,402.857C672.496,402.901 672.533,402.938 672.583,402.969C672.633,403.001 672.698,403.025 672.776,403.043C672.855,403.06 672.95,403.069 673.061,403.069C673.175,403.069 673.275,403.057 673.361,403.032C673.446,403.008 673.517,402.975 673.574,402.933C673.631,402.891 673.673,402.841 673.701,402.784C673.73,402.727 673.744,402.666 673.744,402.602C673.744,402.543 673.733,402.491 673.712,402.445C673.691,402.399 673.661,402.36 673.622,402.327C673.582,402.294 673.533,402.269 673.475,402.251C673.417,402.233 673.351,402.222 673.277,402.219L672.959,402.208C672.914,402.206 672.879,402.196 672.854,402.178C672.829,402.16 672.817,402.136 672.817,402.108C672.817,402.087 672.821,402.067 672.831,402.049C672.84,402.032 672.85,402.017 672.862,402.004C672.883,402.018 672.912,402.03 672.95,402.04C672.988,402.05 673.028,402.055 673.07,402.055C673.152,402.055 673.227,402.045 673.293,402.024C673.36,402.003 673.417,401.972 673.465,401.931C673.512,401.891 673.549,401.841 673.574,401.782C673.599,401.723 673.612,401.655 673.612,401.579C673.612,401.547 673.607,401.516 673.598,401.486C673.589,401.456 673.573,401.43 673.552,401.406L673.706,401.406C673.721,401.406 673.735,401.395 673.745,401.373C673.756,401.35 673.761,401.316 673.761,401.269ZM673.288,401.578C673.288,401.607 673.284,401.635 673.274,401.662C673.265,401.689 673.251,401.712 673.233,401.733C673.215,401.754 673.193,401.77 673.165,401.781C673.138,401.793 673.106,401.799 673.069,401.799C672.999,401.799 672.945,401.78 672.906,401.741C672.867,401.702 672.847,401.65 672.847,401.584C672.847,401.553 672.852,401.524 672.861,401.496C672.869,401.469 672.883,401.444 672.901,401.423C672.919,401.402 672.942,401.386 672.969,401.373C672.996,401.361 673.028,401.355 673.064,401.355C673.135,401.355 673.191,401.375 673.23,401.414C673.269,401.453 673.288,401.507 673.288,401.578ZM673.375,402.621C673.375,402.646 673.37,402.67 673.36,402.693C673.35,402.716 673.334,402.737 673.31,402.755C673.287,402.774 673.256,402.789 673.218,402.8C673.18,402.811 673.133,402.817 673.077,402.817C672.987,402.817 672.918,402.804 672.869,402.779C672.819,402.754 672.795,402.716 672.795,402.668C672.795,402.652 672.796,402.637 672.799,402.622C672.802,402.608 672.808,402.592 672.817,402.577C672.827,402.561 672.839,402.545 672.854,402.528C672.869,402.511 672.889,402.493 672.915,402.474L673.177,402.482C673.238,402.483 673.287,402.496 673.322,402.52C673.357,402.543 673.375,402.577 673.375,402.621Z"/>
    </g>
</svg>
