<?xml version="1.0" encoding="UTF-8" standalone="no"?>
<!DOCTYPE svg PUBLIC "-//W3C//DTD SVG 1.1//EN" "http://www.w3.org/Graphics/SVG/1.1/DTD/svg11.dtd">
<svg width="100%" height="100%" viewBox="0 0 30 7" version="1.1" xmlns="http://www.w3.org/2000/svg" xmlns:xlink="http://www.w3.org/1999/xlink" xml:space="preserve" xmlns:serif="http://www.serif.com/" style="fill-rule:evenodd;clip-rule:evenodd;stroke-linejoin:round;stroke-miterlimit:2;">
    <g transform="matrix(1,0,0,1,-683.691,-398.426)">
        <path d="M713.171,404.603L683.691,404.603L683.691,398.426L713.171,398.426L713.171,404.603ZM689.251,402.373C689.251,402.344 689.249,402.319 689.247,402.299C689.244,402.279 689.241,402.263 689.236,402.251C689.231,402.239 689.225,402.23 689.218,402.224C689.21,402.219 689.202,402.216 689.192,402.216L688.596,402.216L688.596,400.691C688.596,400.682 688.593,400.673 688.586,400.665C688.58,400.657 688.569,400.651 688.555,400.646C688.54,400.641 688.521,400.637 688.496,400.634C688.472,400.631 688.44,400.63 688.402,400.63C688.365,400.63 688.334,400.631 688.309,400.634C688.284,400.637 688.265,400.641 688.25,400.646C688.235,400.651 688.225,400.657 688.219,400.665C688.212,400.673 688.209,400.682 688.209,400.691L688.209,402.413C688.209,402.456 688.22,402.487 688.242,402.506C688.264,402.525 688.291,402.534 688.323,402.534L689.192,402.534C689.202,402.534 689.21,402.531 689.218,402.525C689.225,402.52 689.231,402.51 689.236,402.497C689.241,402.484 689.244,402.467 689.247,402.447C689.249,402.427 689.251,402.402 689.251,402.373ZM690.601,402.383C690.601,402.355 690.6,402.331 690.597,402.312C690.595,402.293 690.591,402.278 690.586,402.266C690.582,402.254 690.575,402.246 690.568,402.241C690.561,402.235 690.553,402.233 690.544,402.233L689.861,402.233L689.861,401.698L690.434,401.698C690.443,401.698 690.451,401.695 690.458,401.691C690.466,401.686 690.472,401.678 690.477,401.666C690.481,401.655 690.485,401.64 690.488,401.622C690.49,401.603 690.491,401.58 690.491,401.551C690.491,401.524 690.49,401.501 690.488,401.482C690.485,401.463 690.481,401.448 690.477,401.436C690.472,401.425 690.466,401.417 690.458,401.411C690.451,401.406 690.443,401.403 690.434,401.403L689.861,401.403L689.861,400.941L690.538,400.941C690.547,400.941 690.555,400.938 690.562,400.932C690.568,400.927 690.574,400.919 690.579,400.907C690.584,400.895 690.588,400.88 690.59,400.861C690.593,400.842 690.594,400.818 690.594,400.791C690.594,400.762 690.593,400.738 690.59,400.719C690.588,400.7 690.584,400.684 690.579,400.672C690.574,400.66 690.568,400.651 690.562,400.646C690.555,400.641 690.547,400.639 690.538,400.639L689.592,400.639C689.56,400.639 689.533,400.648 689.511,400.667C689.489,400.686 689.478,400.717 689.478,400.76L689.478,402.413C689.478,402.456 689.489,402.487 689.511,402.506C689.533,402.525 689.56,402.534 689.592,402.534L690.544,402.534C690.553,402.534 690.561,402.532 690.568,402.526C690.575,402.521 690.582,402.512 690.586,402.501C690.591,402.489 690.595,402.473 690.597,402.454C690.6,402.435 690.601,402.412 690.601,402.383ZM705.629,402.383C705.629,402.355 705.628,402.331 705.625,402.312C705.623,402.293 705.619,402.278 705.615,402.266C705.61,402.254 705.604,402.246 705.596,402.241C705.589,402.235 705.581,402.233 705.572,402.233L704.889,402.233L704.889,401.698L705.462,401.698C705.471,401.698 705.479,401.695 705.486,401.691C705.494,401.686 705.5,401.678 705.505,401.666C705.51,401.655 705.513,401.64 705.516,401.622C705.518,401.603 705.519,401.58 705.519,401.551C705.519,401.524 705.518,401.501 705.516,401.482C705.513,401.463 705.51,401.448 705.505,401.436C705.5,401.425 705.494,401.417 705.486,401.411C705.479,401.406 705.471,401.403 705.462,401.403L704.889,401.403L704.889,400.941L705.566,400.941C705.575,400.941 705.583,400.938 705.59,400.932C705.596,400.927 705.602,400.919 705.607,400.907C705.612,400.895 705.616,400.88 705.618,400.861C705.621,400.842 705.622,400.818 705.622,400.791C705.622,400.762 705.621,400.738 705.618,400.719C705.616,400.7 705.612,400.684 705.607,400.672C705.602,400.66 705.596,400.651 705.59,400.646C705.583,400.641 705.575,400.639 705.566,400.639L704.62,400.639C704.588,400.639 704.561,400.648 704.539,400.667C704.517,400.686 704.506,400.717 704.506,400.76L704.506,402.413C704.506,402.456 704.517,402.487 704.539,402.506C704.561,402.525 704.588,402.534 704.62,402.534L705.572,402.534C705.581,402.534 705.589,402.532 705.596,402.526C705.604,402.521 705.61,402.512 705.615,402.501C705.619,402.489 705.623,402.473 705.625,402.454C705.628,402.435 705.629,402.412 705.629,402.383ZM704.279,402.373C704.279,402.344 704.277,402.319 704.275,402.299C704.272,402.279 704.269,402.263 704.264,402.251C704.259,402.239 704.253,402.23 704.246,402.224C704.238,402.219 704.23,402.216 704.22,402.216L703.624,402.216L703.624,400.691C703.624,400.682 703.621,400.673 703.614,400.665C703.608,400.657 703.597,400.651 703.583,400.646C703.568,400.641 703.549,400.637 703.524,400.634C703.5,400.631 703.469,400.63 703.43,400.63C703.393,400.63 703.362,400.631 703.337,400.634C703.313,400.637 703.293,400.641 703.278,400.646C703.263,400.651 703.253,400.657 703.247,400.665C703.24,400.673 703.237,400.682 703.237,400.691L703.237,402.413C703.237,402.456 703.248,402.487 703.27,402.506C703.292,402.525 703.319,402.534 703.351,402.534L704.22,402.534C704.23,402.534 704.238,402.531 704.246,402.525C704.253,402.52 704.259,402.51 704.264,402.497C704.269,402.484 704.272,402.467 704.275,402.447C704.277,402.427 704.279,402.402 704.279,402.373ZM707.544,401.559C707.544,401.408 707.523,401.276 707.481,401.162C707.439,401.047 707.377,400.951 707.297,400.874C707.216,400.796 707.117,400.738 707,400.698C706.882,400.659 706.739,400.639 706.57,400.639L706.083,400.639C706.051,400.639 706.024,400.648 706.002,400.667C705.98,400.686 705.969,400.717 705.969,400.76L705.969,402.413C705.969,402.456 705.98,402.487 706.002,402.506C706.024,402.525 706.051,402.534 706.083,402.534L706.536,402.534C706.704,402.534 706.849,402.516 706.97,402.479C707.092,402.443 707.195,402.385 707.28,402.307C707.365,402.229 707.43,402.128 707.476,402.005C707.521,401.881 707.544,401.733 707.544,401.559ZM707.145,401.572C707.145,401.681 707.133,401.777 707.109,401.859C707.085,401.941 707.049,402.01 707.001,402.065C706.953,402.12 706.892,402.161 706.82,402.189C706.748,402.216 706.659,402.23 706.553,402.23L706.353,402.23L706.353,400.941L706.548,400.941C706.666,400.941 706.761,400.956 706.834,400.988C706.907,401.02 706.966,401.064 707.013,401.121C707.059,401.177 707.093,401.244 707.114,401.321C707.135,401.399 707.145,401.482 707.145,401.572ZM708.486,401.797C708.486,401.77 708.484,401.747 708.482,401.727C708.479,401.708 708.475,401.692 708.469,401.68C708.464,401.669 708.457,401.66 708.448,401.655C708.44,401.65 708.43,401.648 708.418,401.648L707.809,401.648C707.784,401.648 707.767,401.659 707.756,401.682C707.745,401.704 707.74,401.743 707.74,401.797C707.74,401.853 707.745,401.892 707.756,401.915C707.767,401.938 707.784,401.95 707.809,401.95L708.418,401.95C708.442,401.95 708.459,401.939 708.469,401.916C708.48,401.894 708.486,401.854 708.486,401.797ZM698.598,403.842L698.598,399.188C698.598,399.096 698.523,399.021 698.431,399.021C698.339,399.021 698.265,399.096 698.265,399.188L698.265,403.842C698.265,403.934 698.339,404.008 698.431,404.008C698.523,404.008 698.598,403.934 698.598,403.842ZM692.516,401.559C692.516,401.408 692.495,401.276 692.453,401.162C692.411,401.047 692.349,400.951 692.269,400.874C692.188,400.796 692.089,400.738 691.971,400.698C691.854,400.659 691.71,400.639 691.542,400.639L691.055,400.639C691.023,400.639 690.996,400.648 690.974,400.667C690.952,400.686 690.941,400.717 690.941,400.76L690.941,402.413C690.941,402.456 690.952,402.487 690.974,402.506C690.996,402.525 691.023,402.534 691.055,402.534L691.508,402.534C691.676,402.534 691.821,402.516 691.942,402.479C692.064,402.443 692.167,402.385 692.252,402.307C692.337,402.229 692.402,402.128 692.448,402.005C692.493,401.881 692.516,401.733 692.516,401.559ZM692.117,401.572C692.117,401.681 692.105,401.777 692.081,401.859C692.057,401.941 692.021,402.01 691.973,402.065C691.925,402.12 691.864,402.161 691.792,402.189C691.72,402.216 691.631,402.23 691.525,402.23L691.325,402.23L691.325,400.941L691.52,400.941C691.638,400.941 691.733,400.956 691.806,400.988C691.879,401.02 691.938,401.064 691.985,401.121C692.031,401.177 692.065,401.244 692.086,401.321C692.107,401.399 692.117,401.482 692.117,401.572ZM694.044,401.692C694.044,401.666 694.042,401.643 694.039,401.624C694.036,401.605 694.032,401.59 694.027,401.578C694.021,401.567 694.015,401.559 694.008,401.554C694,401.549 693.993,401.547 693.985,401.547L693.525,401.547L693.525,401.052C693.525,401.042 693.523,401.033 693.518,401.025C693.513,401.016 693.504,401.01 693.493,401.004C693.481,400.999 693.465,400.995 693.446,400.992C693.426,400.989 693.402,400.987 693.373,400.987C693.343,400.987 693.319,400.989 693.299,400.992C693.28,400.995 693.264,400.999 693.252,401.004C693.241,401.01 693.232,401.016 693.227,401.025C693.221,401.033 693.219,401.042 693.219,401.052L693.219,401.547L692.76,401.547C692.752,401.547 692.744,401.549 692.737,401.554C692.73,401.559 692.724,401.567 692.719,401.578C692.713,401.59 692.709,401.605 692.706,401.624C692.703,401.643 692.702,401.666 692.702,401.692C692.702,401.719 692.703,401.742 692.707,401.761C692.71,401.779 692.715,401.794 692.721,401.806C692.727,401.817 692.733,401.825 692.741,401.83C692.748,401.835 692.756,401.837 692.765,401.837L693.219,401.837L693.219,402.334C693.219,402.343 693.221,402.352 693.227,402.359C693.232,402.367 693.241,402.373 693.252,402.378C693.264,402.384 693.28,402.388 693.299,402.391C693.319,402.394 693.343,402.395 693.373,402.395C693.402,402.395 693.426,402.394 693.446,402.391C693.465,402.388 693.481,402.384 693.493,402.378C693.504,402.373 693.513,402.367 693.518,402.359C693.523,402.352 693.525,402.343 693.525,402.334L693.525,401.837L693.981,401.837C693.989,401.837 693.998,401.835 694.005,401.83C694.013,401.825 694.02,401.817 694.026,401.806C694.032,401.794 694.036,401.779 694.039,401.761C694.042,401.742 694.044,401.719 694.044,401.692Z"/>
    </g>
</svg>
